<?xml version="1.0" standalone="no"?>
<!DOCTYPE svg PUBLIC "-//W3C//DTD SVG 1.1//EN" "http://www.w3.org/Graphics/SVG/1.1/DTD/svg11.dtd" >
<svg xmlns="http://www.w3.org/2000/svg" xmlns:xlink="http://www.w3.org/1999/xlink" version="1.1">
<metadata>
Created by FontForge 20200427 at Fri Oct 28 21:26:43 2016
 By www
Copyright (c) 2012 by Neil Summerour. All rights reserved.
</metadata>
<defs>
<font id="LustScriptDisplay" horiz-adv-x="1212" >
  <font-face 
    font-family="Lust Script Display"
    font-weight="400"
    font-style="italic"
    font-stretch="normal"
    units-per-em="2000"
    panose-1="2 0 5 5 9 0 0 2 0 4"
    ascent="1600"
    descent="-400"
    x-height="1064"
    cap-height="1625"
    bbox="-2298 -817 4462 1956"
    underline-thickness="100"
    underline-position="-200"
    slope="-9"
    unicode-range="U+0020-FB04"
  />
<missing-glyph horiz-adv-x="728" 
d="M66 1333h530v-1333h-530v1333zM530 66v1201h-398v-1201h398z" />
    <glyph glyph-name="uniFB00" unicode="ff" horiz-adv-x="1236" 
d="M257 1050q32 193 61 275q64 178 210 222q54 17 121 17q129 0 191 -51q62 -52 62 -140q0 -89 -57 -144t-143 -55q-94 0 -144 60q-51 59 -16 138q46 -10 81 17q35 26 35 71q0 37 -22 62q-23 24 -67 24q-66 0 -123 -60q-57 -61 -57 -140q0 -49 24 -89q23 -41 55 -67
q31 -26 61 -48q30 -23 47 -45q16 -23 6 -47h293q9 55 16 92q6 37 18 88q11 50 23 85q11 34 29 75t38 69q20 27 49 55q28 28 61 44t76 26t93 10q130 0 208 -61q77 -61 77 -162q0 -93 -61 -158q-62 -65 -162 -65q-108 0 -163 70q-55 69 -20 160q52 -11 91 18q38 29 38 81
q0 39 -26 66t-72 27q-76 0 -128 -67t-52 -157q0 -41 17 -77q16 -36 41 -59q24 -23 51 -45q27 -23 49 -39t32 -36t2 -40h170l-1 -6h-137l-160 -1018l-16 -92q-8 -38 -20 -87q-12 -50 -27 -85t-36 -73q-21 -39 -48 -64q-28 -26 -63 -48t-81 -32q-46 -11 -100 -11
q-115 0 -183 52t-68 138q0 93 63 146q62 52 144 52q80 0 134 -56q53 -57 19 -142q-41 14 -77 -10q-37 -24 -37 -68q0 -36 26 -58q25 -23 70 -23q64 0 121 56t57 122q0 51 -25 98q-25 46 -59 80l-69 65q-34 31 -54 67q-21 36 -15 73l146 918h-260l-160 -1018
q-12 -77 -34 -147q-22 -71 -58 -139t-83 -117q-47 -50 -113 -80q-66 -31 -143 -31q-116 0 -187 61q-72 60 -72 155q0 103 67 157q67 53 159 53q85 0 143 -54q57 -54 47 -150q-55 3 -86 -21q-31 -25 -31 -68q0 -37 23 -62q22 -26 64 -26q58 0 91 50q33 49 33 120q0 46 -19 89
q-20 42 -47 75q-27 32 -52 66q-26 33 -40 77q-14 43 -6 92l146 918h-105l1 6h105z" />
    <glyph glyph-name="uniFB01" unicode="fi" horiz-adv-x="1178" 
d="M257 1050q14 93 73 192q58 98 145 180q86 82 207 135q120 52 247 52q151 0 227 -68t76 -167q0 -85 -55 -142q-55 -58 -146 -58q-97 0 -147 63q-51 62 -17 141q51 -8 86 24q34 32 34 85q0 42 -28 74t-101 32q-88 0 -186 -48q-99 -48 -166 -126q-68 -78 -68 -155
q0 -38 18 -67t43 -45q24 -17 47 -31t34 -31q11 -18 2 -40h108q46 0 153 3q106 3 174 3q181 0 144 -220l-68 -410q-37 -225 -36 -309q1 -96 36 -113l-2 -4q-74 -16 -140 -16q-47 0 -86 9t-73 31q-35 21 -54 57q-20 36 -28 90q-9 54 5 127l76 464q6 39 16 79q9 39 17 63t13 48
l8 37q3 12 -4 24t-16 17q-10 4 -36 8t-55 5q-30 1 -82 1h-38l-160 -1018q-12 -77 -34 -147q-22 -71 -58 -139t-83 -117q-47 -50 -113 -80q-66 -31 -143 -31q-116 0 -187 61q-72 60 -72 155q0 103 67 157q67 53 159 53q85 0 143 -54q57 -54 47 -150q-55 3 -86 -21
q-31 -25 -31 -68q0 -37 23 -62q22 -26 64 -26q58 0 91 50q33 49 33 120q0 46 -19 89q-20 42 -47 75q-27 32 -52 66q-26 33 -40 77q-14 43 -6 92l146 918h-105l1 6h105z" />
    <glyph glyph-name="uniFB02" unicode="fl" horiz-adv-x="1156" 
d="M867 1378q51 -8 86 24q34 32 34 85q0 42 -28 74t-101 32q-88 0 -186 -48q-99 -48 -166 -126q-68 -78 -68 -155q0 -38 18 -67t43 -45q24 -17 47 -31t34 -31q11 -18 2 -40h133l-1 -6h-100l-160 -1018q-12 -77 -34 -147q-22 -71 -58 -139t-83 -117q-47 -50 -113 -80
q-66 -31 -143 -31q-116 0 -187 61q-72 60 -72 155q0 103 67 157q67 53 159 53q85 0 143 -54q57 -54 47 -150q-55 3 -86 -21q-31 -25 -31 -68q0 -37 23 -62q22 -26 64 -26q58 0 91 50q33 49 33 120q0 46 -19 89q-20 42 -47 75q-27 32 -52 66q-26 33 -40 77q-14 43 -6 92
l146 918h-105l1 6h105q14 93 73 192q58 98 145 180q86 82 207 135q120 52 247 52q155 0 235 -65q79 -65 64 -158l-166 -1025q-9 -48 -13 -77q-5 -29 -11 -74q-7 -46 -7 -75q-1 -30 1 -60q2 -31 12 -48q9 -18 25 -23l-4 -4q-80 -16 -138 -16q-282 0 -232 314z" />
    <glyph glyph-name="uniFB03" unicode="ffi" horiz-adv-x="1796" 
d="M257 1050q11 66 21 117q10 50 27 107t37 98q19 41 49 81q29 40 65 65q35 24 83 39t106 15q118 0 188 -54q69 -55 69 -147q0 -83 -55 -142q-56 -59 -146 -59q-98 0 -147 63q-50 63 -18 145q46 -11 81 16q35 26 35 73q0 35 -23 60q-24 24 -66 24q-71 0 -122 -59t-51 -146
q0 -41 17 -77q16 -36 41 -59q24 -23 51 -45q27 -23 49 -39t32 -36t2 -40h292q14 93 73 192q58 98 145 180q86 82 207 135q120 52 247 52q151 0 227 -68t76 -167q0 -85 -55 -142q-55 -58 -146 -58q-97 0 -147 63q-51 62 -17 141q51 -8 86 24q34 32 34 85q0 42 -28 74t-101 32
q-88 0 -186 -48q-99 -48 -166 -126q-68 -78 -68 -155q0 -38 18 -67t43 -45q24 -17 47 -31t34 -31q11 -18 2 -40h71q63 0 179 3q115 3 185 3q181 0 144 -220l-68 -410q-37 -225 -36 -309q1 -96 36 -113l-2 -4q-74 -16 -140 -16q-47 0 -86 9t-73 31q-35 21 -54 57
q-20 36 -28 90q-9 54 5 127l76 464q8 48 20 96t21 73q8 24 11 49q2 24 -2 34q-4 9 -25 18q-22 8 -53 10q-32 2 -91 2h-58l-160 -1018l-16 -92q-8 -38 -20 -87q-12 -50 -27 -85t-36 -73q-21 -39 -48 -64q-28 -26 -63 -48t-81 -32q-46 -11 -100 -11q-114 0 -178 52t-64 138
q0 93 63 146q62 52 144 52q80 0 134 -56q53 -57 19 -142q-41 14 -77 -10q-37 -24 -37 -68q0 -38 22 -63t66 -25q64 0 121 59q56 59 56 126q0 51 -25 98q-25 46 -59 80l-69 65q-34 31 -54 67q-21 36 -15 73l146 918h-259l-160 -1018q-12 -77 -34 -147q-22 -71 -58 -139
t-83 -117q-47 -50 -113 -80q-66 -31 -143 -31q-116 0 -187 61q-72 60 -72 155q0 103 67 157q67 53 159 53q85 0 143 -54q57 -54 47 -150q-55 3 -86 -21q-31 -25 -31 -68q0 -37 23 -62q22 -26 64 -26q58 0 91 50q33 49 33 120q0 46 -19 89q-20 42 -47 75q-27 32 -52 66
q-26 33 -40 77q-14 43 -6 92l146 918h-105l1 6h105z" />
    <glyph glyph-name="uniFB04" unicode="ffl" horiz-adv-x="1774" 
d="M257 1050q11 66 21 117q10 50 27 107t37 98q19 41 49 81q29 40 65 65q35 24 83 39t106 15q118 0 188 -54q69 -55 69 -147q0 -83 -55 -142q-56 -59 -146 -59q-98 0 -147 63q-50 63 -18 145q46 -11 81 16q35 26 35 73q0 35 -23 60q-24 24 -66 24q-71 0 -122 -59t-51 -146
q0 -41 17 -77q16 -36 41 -59q24 -23 51 -45q27 -23 49 -39t32 -36t2 -40h294q14 93 73 192q58 98 145 180q86 82 207 135q120 52 247 52q155 0 235 -65q79 -65 64 -158l-166 -1025q-9 -48 -13 -77q-5 -29 -11 -74q-7 -46 -7 -75q-1 -30 1 -60q2 -31 12 -48q9 -18 25 -23
l-4 -4q-80 -16 -138 -16q-282 0 -232 314l172 1080q51 -8 86 24q34 32 34 85q0 42 -28 74t-101 32q-88 0 -186 -48q-99 -48 -166 -126q-68 -78 -68 -155q0 -38 18 -67t43 -45q24 -17 47 -31t34 -31q11 -18 2 -40h133l-1 -6h-100l-160 -1018q-10 -61 -18 -105q-9 -44 -25 -99
t-35 -93t-48 -77q-30 -40 -66 -64q-37 -24 -88 -39t-113 -15q-114 0 -178 52t-64 138q0 93 63 146q62 52 144 52q80 0 134 -56q53 -57 19 -142q-41 14 -77 -10q-37 -24 -37 -68q0 -38 22 -63t66 -25q64 0 121 59q56 59 56 126q0 51 -25 98q-25 46 -59 80l-67 65
q-34 31 -54 67q-21 36 -15 73l146 918h-261l-160 -1018q-12 -77 -34 -147q-22 -71 -58 -139t-83 -117q-47 -50 -113 -80q-66 -31 -143 -31q-116 0 -187 61q-72 60 -72 155q0 103 67 157q67 53 159 53q85 0 143 -54q57 -54 47 -150q-55 3 -86 -21q-31 -25 -31 -68
q0 -37 23 -62q22 -26 64 -26q58 0 91 50q33 49 33 120q0 46 -19 89q-20 42 -47 75q-27 32 -52 66q-26 33 -40 77q-14 43 -6 92l146 918h-105l1 6h105z" />
    <glyph glyph-name="f_j.liga" unicode="fj" horiz-adv-x="1178" 
d="M257 1050q14 93 73 192q58 98 145 180q86 82 207 135q120 52 247 52q151 0 227 -68t76 -167q0 -85 -55 -142q-55 -58 -146 -58q-97 0 -147 63q-51 62 -17 141q51 -8 86 24q34 32 34 85q0 42 -28 74t-101 32q-88 0 -186 -48q-99 -48 -166 -126q-68 -78 -68 -155
q0 -38 18 -67t43 -45q24 -17 47 -31t34 -31q11 -18 2 -40h108q46 0 153 3q106 3 174 3q178 0 144 -220l-127 -810q-30 -191 -57 -269q-59 -164 -193 -206q-52 -17 -119 -17q-114 0 -178 52t-64 138q0 93 63 146q62 52 144 52q80 0 134 -56q53 -57 19 -142q-41 14 -77 -10
q-37 -24 -37 -68q0 -37 25 -60q24 -24 69 -24q63 0 116 57q52 57 52 124q0 51 -27 98q-27 46 -64 80l-74 65q-37 31 -59 67q-23 36 -17 73l101 636q7 43 18 86q10 42 17 67l14 48q7 24 4 36t-9 23q-7 10 -29 14l-52 6q-30 2 -82 2h-58l-160 -1018q-12 -77 -34 -147
q-22 -71 -58 -139t-83 -117q-47 -50 -113 -80q-66 -31 -143 -31q-116 0 -187 61q-72 60 -72 155q0 103 67 157q67 53 159 53q85 0 143 -54q57 -54 47 -150q-55 3 -86 -21q-31 -25 -31 -68q0 -37 23 -62q22 -26 64 -26q58 0 91 50q33 49 33 120q0 46 -19 89q-20 42 -47 75
q-27 32 -52 66q-26 33 -40 77q-14 43 -6 92l146 918h-105l1 6h105z" />
    <glyph glyph-name="f_f_j.liga" unicode="ffj" horiz-adv-x="1796" 
d="M873 1044h-259l-160 -1018q-12 -77 -34 -147q-22 -71 -58 -139t-83 -117q-47 -50 -113 -80q-66 -31 -143 -31q-116 0 -187 61q-72 60 -72 155q0 103 67 157q67 53 159 53q85 0 143 -54q57 -54 47 -150q-55 3 -86 -21q-31 -25 -31 -68q0 -37 23 -62q22 -26 64 -26
q58 0 91 50q33 49 33 120q0 46 -19 89q-20 42 -47 75q-27 32 -52 66q-26 33 -40 77q-14 43 -6 92l146 918h-105l1 6h105q11 66 21 117q10 50 27 107t37 98q19 41 49 81q29 40 65 65q35 24 83 39t106 15q118 0 188 -54q69 -55 69 -147q0 -83 -55 -142q-56 -59 -146 -59
q-98 0 -147 63q-50 63 -18 145q46 -11 81 16q35 26 35 73q0 35 -23 60q-24 24 -66 24q-71 0 -122 -59t-51 -146q0 -41 17 -77q16 -36 41 -59q24 -23 51 -45q27 -23 49 -39t32 -36t2 -40h292q14 93 73 192q58 98 145 180q86 82 207 135q120 52 247 52q151 0 227 -68t76 -167
q0 -85 -55 -142q-55 -58 -146 -58q-97 0 -147 63q-51 62 -17 141q51 -8 86 24q34 32 34 85q0 42 -28 74t-101 32q-88 0 -186 -48q-99 -48 -166 -126q-68 -78 -68 -155q0 -38 18 -67t43 -45q24 -17 47 -31t34 -31q11 -18 2 -40h108q46 0 153 3q106 3 174 3q178 0 144 -220
l-124 -810q-30 -191 -57 -269q-59 -164 -193 -206q-52 -17 -119 -17q-114 0 -178 52t-64 138q0 93 63 146q62 52 144 52q80 0 134 -56q53 -57 19 -142q-41 14 -77 -10q-37 -24 -37 -68q0 -37 25 -60q24 -24 69 -24q63 0 116 57q52 57 52 124q0 51 -27 98q-27 46 -64 80
l-74 65q-37 31 -59 67q-23 36 -17 73l98 636q6 39 15 77q8 38 16 62t13 48l8 36q3 13 -2 25t-14 18q-9 5 -31 9q-23 4 -50 6q-28 1 -74 1h-58l-158 -1001l-16 -92q-8 -38 -20 -87q-12 -50 -27 -85t-36 -73q-21 -39 -48 -64q-28 -26 -63 -48t-81 -32q-46 -11 -100 -11
q-114 0 -178 52t-64 138q0 93 63 146q62 52 144 52q80 0 134 -56q53 -57 19 -142q-41 14 -77 -10q-37 -24 -37 -68q0 -37 23 -60q23 -24 67 -24q64 0 120 57q55 57 55 124q0 51 -25 98q-25 46 -59 80l-69 65q-34 31 -54 67q-21 36 -15 73z" />
    <glyph glyph-name="t_t.liga" unicode="tt" horiz-adv-x="1160" 
d="M488 436q-67 -414 38 -432l-4 -4q-80 -15 -146 -15t-117 16t-91 51t-55 100t-1 156l115 736h-85l1 6h27q91 1 155 11q64 9 119 34q55 24 92 67t65 109q27 65 44 159h6l-63 -380h162q223 0 332 101q109 100 153 337h6l-73 -438h138l-1 -6h-138l-99 -608q-67 -414 38 -432
l-4 -4q-80 -15 -146 -15t-117 16t-91 51t-55 100t-1 156l115 736h-220z" />
    <glyph glyph-name=".notdef" horiz-adv-x="728" 
d="M66 1333h530v-1333h-530v1333zM530 66v1201h-398v-1201h398z" />
    <glyph glyph-name="glyph1" horiz-adv-x="574" 
d="M524 1260h-474v20h474v-20zM524 1100h-474v20h474v-20zM524 940h-474v20h474v-20zM524 780h-474v20h474v-20zM524 620h-474v20h474v-20zM524 460h-474v20h474v-20zM524 300h-474v20h474v-20zM524 140h-474v20h474v-20z" />
    <glyph glyph-name="glyph1" horiz-adv-x="574" 
d="M524 1260h-474v20h474v-20zM524 1100h-474v20h474v-20zM524 940h-474v20h474v-20zM524 780h-474v20h474v-20zM524 620h-474v20h474v-20zM524 460h-474v20h474v-20zM524 300h-474v20h474v-20zM524 140h-474v20h474v-20z" />
    <glyph glyph-name="nonmarkingreturn" horiz-adv-x="666" 
 />
    <glyph glyph-name="space" unicode=" " horiz-adv-x="406" 
 />
    <glyph glyph-name="exclam" unicode="!" horiz-adv-x="593" 
d="M735 1172q0 -53 -16 -98q-16 -46 -42 -82t-58 -71q-33 -36 -67 -79q-35 -43 -66 -92q-31 -50 -57 -124t-38 -162h-6q16 119 9 194q-7 74 -30 137t-48 103t-44 90q-20 49 -20 97q0 62 25 119q24 56 70 105q46 48 92 84q45 36 108 77q188 -149 188 -298zM487 325
q44 -46 44 -115q0 -87 -65 -155q-65 -69 -154 -69q-69 0 -113 46q-45 46 -45 116q0 86 65 154t154 68q69 0 114 -45z" />
    <glyph glyph-name="quotedbl" unicode="&#x22;" horiz-adv-x="910" 
d="M371 878q22 156 -7 298q-29 141 -84 224q8 53 68 102q59 48 133 48t117 -48t35 -102q-81 -84 -155 -225q-74 -142 -101 -297h-6zM807 878q22 156 -6 298q-29 141 -84 224q8 54 67 102t133 48t118 -48q43 -48 35 -102q-82 -84 -156 -225q-74 -142 -101 -297h-6z" />
    <glyph glyph-name="numbersign" unicode="#" horiz-adv-x="1179" 
d="M454 640l168 400h-292l6 10h290l147 350h10l-147 -350h349l147 350h10l-147 -350h292l-6 -10h-290l-168 -400h292l-6 -10h-290l-147 -350h-10l147 350h-349l-147 -350h-10l147 350h-292l6 10h290zM464 640h349l168 400h-349z" />
    <glyph glyph-name="dollar" unicode="$" horiz-adv-x="1231" 
d="M610 -14q-54 0 -112 6q-59 6 -132 25t-129 49t-94 84q-39 53 -39 123q0 119 72 185t166 66q78 0 124 -49q46 -50 35 -143q-43 -21 -70 -63q-28 -42 -28 -100q0 -84 61 -130q60 -46 148 -46l83 526q-430 132 -430 429q0 83 35 157q34 74 92 128q57 54 131 95q74 40 155 62
q80 21 159 24l39 246h7l-39 -246q70 0 142 -11q72 -12 147 -37q74 -25 121 -76t47 -120q0 -100 -65 -160q-66 -60 -150 -60q-70 0 -112 44q-43 43 -34 124q40 17 65 57q24 40 24 88q0 67 -50 106q-50 38 -136 38l-75 -473q273 -97 380 -184q107 -88 107 -223
q0 -122 -57 -225q-57 -104 -149 -170q-93 -67 -205 -105t-227 -41l-39 -246h-7zM619 -7q53 0 107 18t100 52q46 33 75 87q29 53 29 118q0 162 -229 248zM836 1407q-93 -2 -178 -81t-85 -181q0 -130 188 -208z" />
    <glyph glyph-name="percent" unicode="%" horiz-adv-x="1235" 
d="M801 1339q79 -76 79 -200q0 -158 -116 -276q-116 -119 -283 -119q-136 0 -216 76q-80 75 -80 199q0 159 118 277q117 118 285 118q133 0 213 -75zM552 781q31 29 53 79q21 50 35 104q14 53 24 114t13 114q2 53 -3 104q-6 51 -28 81q-23 30 -60 30q-39 0 -71 -30
q-33 -30 -55 -81t-36 -104t-24 -114q-10 -78 -13 -150q-3 -73 21 -125t75 -52q37 0 69 30zM100 0l1251 1400h10l-1251 -1400h-10zM1191 581q79 -76 79 -200q0 -158 -116 -276q-116 -119 -283 -119q-136 0 -216 76q-80 75 -80 199q0 159 118 277q117 118 285 118
q133 0 213 -75zM942 23q31 29 53 79q21 50 35 104q14 53 24 114t13 114q2 53 -3 104q-6 51 -28 81q-23 30 -60 30q-39 0 -71 -30q-33 -30 -55 -81t-36 -104t-24 -114q-10 -78 -13 -150q-3 -73 21 -125t75 -52q37 0 69 30z" />
    <glyph glyph-name="ampersand" unicode="&#x26;" horiz-adv-x="1708" 
d="M1675 246l3 -2q-190 -258 -380 -258q-185 0 -369 187q-234 -187 -455 -187q-188 0 -287 94q-99 93 -99 236q0 84 30 159t80 130t116 99q66 43 138 69t146 37q-20 91 -20 186q0 129 67 226q66 97 173 145q106 47 234 47q119 0 179 -41q59 -42 59 -112q0 -54 -34 -109
q-35 -56 -88 -99q-54 -44 -107 -76q-54 -32 -103 -53q54 -151 151 -312q6 92 35 178q28 86 74 156q46 69 116 111q69 41 151 41q118 0 196 -79q77 -80 77 -205q0 -133 -86 -235q-86 -103 -220 -103q-105 0 -170 64q-66 63 -66 150q0 59 35 115q34 55 111 75q37 -84 123 -84
q62 0 98 39q35 39 35 97q0 60 -37 108q-38 47 -115 47q-62 0 -122 -36q-61 -36 -109 -98q-48 -63 -80 -155q-33 -92 -39 -197q66 -107 137 -188q70 -81 161 -137t179 -56q50 0 82 26zM493 685q-35 -83 -35 -173q0 -95 37 -178q37 -84 101 -135q63 -52 148 -63t182 40
q-116 120 -203 290q-88 170 -124 340q-72 -39 -106 -121zM1130 1368q-29 39 -87 39q-51 0 -84 -34t-44 -77q-11 -44 -11 -95q0 -119 53 -273q95 52 148 147q53 94 53 191q0 63 -28 102z" />
    <glyph glyph-name="quotesingle" unicode="'" horiz-adv-x="470" 
d="M371 878q22 156 -7 298q-29 141 -84 224q8 53 68 102q59 48 133 48t118 -48q43 -48 35 -102q-82 -84 -156 -225q-74 -142 -101 -297h-6z" />
    <glyph glyph-name="parenleft" unicode="(" horiz-adv-x="707" 
d="M479 404q-13 -84 -19 -128q-7 -44 -13 -116q-6 -73 -2 -113q3 -40 15 -91t37 -77q24 -27 65 -47q40 -20 97 -23l-1 -5q-128 6 -216 46q-89 40 -138 102t-69 156q-20 93 -17 194q2 100 23 230l53 336q21 129 50 229q28 100 78 194q50 93 119 155q68 62 170 102
q101 40 230 46l-1 -5q-66 -3 -118 -25q-52 -23 -89 -71q-37 -49 -61 -93q-25 -45 -45 -126q-20 -82 -30 -133t-25 -147z" />
    <glyph glyph-name="parenright" unicode=")" horiz-adv-x="707" 
d="M-11 -191q66 3 118 26t89 71q36 48 61 94q25 45 45 125q19 80 29 133q10 52 25 146l113 716q6 45 12 117q6 71 3 112q-4 41 -16 92q-12 50 -36 78q-25 27 -65 47q-41 20 -98 23l1 5q128 -6 217 -46q88 -40 137 -102t69 -155q20 -94 18 -193q-3 -100 -24 -230l-53 -336
q-20 -130 -49 -230q-29 -101 -79 -194q-50 -94 -118 -156q-69 -62 -170 -102t-230 -46z" />
    <glyph glyph-name="asterisk" unicode="*" horiz-adv-x="1127" 
d="M733 1030q20 155 11 218q-17 108 -108 108q7 46 58 89q50 43 114 43t101 -43q36 -43 29 -89q-34 0 -62 -14q-29 -14 -49 -42q-20 -29 -34 -57q-14 -29 -25 -72t-16 -71q-6 -28 -13 -70h-6zM693 1001l-82 26q-31 8 -46 11l-44 6q-28 3 -45 1t-40 -6q-23 -5 -38 -16
q-16 -11 -31 -27q-16 -17 -27 -40q-40 15 -56 68q-17 53 11 122q29 62 87 92q58 29 98 15q-14 -29 -14 -56q-1 -27 8 -47q8 -20 29 -40q20 -20 39 -33t51 -28q31 -15 51 -22l52 -20zM703 958q-100 -120 -131 -180q-60 -115 9 -173q-32 -37 -90 -45t-110 30q-31 26 -41 65
q-11 39 -3 74q7 35 27 59q25 -21 54 -25q28 -5 60 9q31 14 58 31q26 16 60 49q33 33 53 54l50 56zM748 961l22 -37q5 -10 22 -36q17 -27 26 -38q9 -12 27 -32q18 -21 31 -29t33 -18q19 -10 37 -9q17 0 38 6q21 5 42 19q10 -26 9 -59q-2 -34 -25 -74q-24 -40 -63 -66
q-63 -38 -119 -30t-77 45q38 25 55 62q16 36 16 69t-15 80q-15 46 -28 74q-14 27 -37 69zM766 1006l45 15q12 4 45 17q33 12 48 20q15 7 43 22q28 14 42 26q14 11 33 29q18 17 26 34q7 16 12 38q4 21 0 44q44 14 93 -15q48 -30 58 -93t-24 -118q-35 -56 -80 -71
q-5 34 -23 56q-18 21 -48 28q-30 6 -59 7t-71 -8q-43 -10 -70 -17t-68 -20z" />
    <glyph glyph-name="plus" unicode="+" horiz-adv-x="1045" 
d="M611 595h-421l1 10h422l69 435h10l-69 -435h422l-1 -10h-422l-69 -435h-10z" />
    <glyph glyph-name="comma" unicode="," horiz-adv-x="548" 
d="M170 -287q86 74 108 160q23 86 -22 153t-143 90q-10 72 23 132q34 60 90 91t116 31q69 0 115 -46t46 -137q0 -67 -29 -137t-79 -132t-104 -113t-117 -97z" />
    <glyph glyph-name="hyphen" unicode="-" horiz-adv-x="725" 
d="M780 645h-630l1 10h630z" />
    <glyph glyph-name="period" unicode="." horiz-adv-x="529" 
d="M437 325q44 -46 44 -115q0 -87 -65 -155q-65 -69 -154 -69q-69 0 -113 46q-45 46 -45 116q0 86 65 154t154 68q69 0 114 -45z" />
    <glyph glyph-name="slash" unicode="/" horiz-adv-x="828" 
d="M-28 -182l1098 1762h10l-1098 -1762h-10z" />
    <glyph glyph-name="zero" unicode="0" horiz-adv-x="1403" 
d="M889 162q75 169 134 538q43 270 43 428q0 142 -34 211q-35 68 -109 68q-114 0 -189 -169t-133 -538q-44 -278 -44 -430q0 -141 35 -209t108 -68q114 0 189 169zM1328 1255q147 -160 147 -415q0 -168 -59 -324q-60 -157 -162 -273q-102 -117 -247 -187q-146 -70 -309 -70
q-256 0 -403 159q-147 158 -147 413q0 130 35 255q34 125 102 233q67 108 160 191q92 82 216 130q124 47 264 47q256 0 403 -159z" />
    <glyph glyph-name="one" unicode="1" horiz-adv-x="879" 
d="M32 0l1 5q52 0 90 9q37 8 64 33q26 24 43 46q16 22 30 73q13 50 20 85l124 777q-114 -124 -237 -193l-3 9q150 85 275 238q124 152 210 318h214l-165 -1040q-12 -75 -16 -109q-5 -35 -7 -85q-2 -51 7 -73t28 -46q19 -25 54 -33q35 -9 87 -9l-1 -5h-818z" />
    <glyph glyph-name="two" unicode="2" horiz-adv-x="1210" 
d="M1320 1057q0 -78 -27 -141q-27 -64 -70 -106q-43 -43 -106 -76q-63 -34 -126 -52q-63 -19 -139 -34q-77 -15 -138 -22q-61 -8 -129 -16q-68 -9 -105 -16q-123 -23 -206 -73q-83 -51 -139 -141q50 47 144 73q93 25 173 25q79 0 183 -31q103 -31 210 -62t193 -31
q168 0 213 119l5 -1q-18 -57 -34 -101q-16 -45 -40 -97q-24 -53 -48 -92q-25 -39 -58 -77q-34 -39 -71 -64t-85 -40t-102 -15q-71 0 -198 38l-256 76q-129 38 -202 38q-82 0 -113 -34q-8 -43 -8 -104h-9q2 131 34 238q31 106 83 178q51 72 117 130t139 101t146 83
q72 39 138 83q65 43 115 95q50 51 80 125t30 167q0 23 -2 44q-2 20 -12 53q-10 32 -27 54q-18 22 -52 39q-35 17 -83 17q-103 0 -163 -68q-61 -69 -61 -153q0 -63 45 -94q44 -32 131 -4q26 -74 2 -139q-24 -66 -90 -110q-67 -45 -146 -45q-114 0 -186 68t-72 188
q0 176 160 270t425 94q537 0 537 -357z" />
    <glyph glyph-name="three" unicode="3" horiz-adv-x="1284" 
d="M644 1352q-58 -55 -58 -126q0 -63 49 -85t103 17q20 -49 20 -94q0 -94 -73 -149t-171 -55q-100 0 -171 60t-71 174q0 73 34 130t88 92t129 58q74 22 149 31q74 9 155 9q73 0 138 -7t133 -27q68 -21 117 -53q49 -33 80 -88q31 -56 31 -128q0 -62 -23 -113t-60 -86
q-37 -36 -92 -64t-109 -45q-55 -17 -124 -29q-70 -12 -123 -17q-54 -6 -119 -10v-2q626 9 626 -313q0 -141 -89 -243t-242 -152q-153 -51 -351 -51q-253 0 -393 85q-141 85 -141 245q0 122 81 205q80 83 221 83q107 0 172 -79t30 -185q-89 7 -142 -46q-54 -54 -54 -138
q0 -83 53 -123t124 -40q92 0 160 70t99 167q30 96 30 198q0 75 -28 145q-29 70 -91 119q-63 49 -145 49h-64l2 7h54q156 0 252 125q96 124 96 311q0 223 -154 223q-81 0 -138 -55z" />
    <glyph glyph-name="four" unicode="4" horiz-adv-x="1258" 
d="M702 410l86 540q72 79 163 218t139 232h168l-156 -990h212l-2 -10h-212l-6 -40q-12 -74 -16 -109q-5 -35 -7 -85q-3 -51 7 -73q9 -22 28 -46q19 -25 54 -33q35 -9 87 -9l-1 -5h-820l1 5q133 0 188 75q40 54 66 200l19 120h-626l1 6q124 32 282 129q157 96 274 218
q117 121 117 209q0 59 -34 92q-34 32 -80 32q-49 0 -81 -33q-33 -33 -33 -75q0 -58 60 -84q-51 -82 -140 -82q-101 0 -155 67q-55 66 -55 162q0 72 30 137t94 110q64 44 150 44q118 0 187 -72q69 -73 69 -218q0 -118 -49 -251t-110 -227t-121 -154h222z" />
    <glyph glyph-name="five" unicode="5" horiz-adv-x="1276" 
d="M312 24q-106 37 -172 113t-66 175q0 112 79 186t209 74q97 0 159 -65q62 -66 33 -157q-80 -2 -134 -58q-54 -57 -54 -138q0 -78 51 -119q50 -42 123 -42q88 0 163 63q75 62 115 154q40 91 40 184q0 96 -49 162q-50 66 -126 95q-77 29 -173 29q-183 0 -330 -94l154 460
q67 202 136 280q68 78 168 78q72 0 246 -46q173 -46 276 -46q96 0 152 21q55 20 77 80l5 -1q-25 -78 -48 -135q-24 -57 -60 -118q-37 -61 -78 -99q-42 -39 -102 -63q-60 -25 -132 -25q-74 0 -168 27l-187 54q-93 27 -165 27q-57 0 -105 -12l-156 -465q379 327 677 327
q124 0 224 -41q99 -42 160 -126q60 -85 60 -199q0 -126 -64 -235q-65 -110 -172 -184t-246 -116q-140 -43 -290 -43q-125 0 -230 38z" />
    <glyph glyph-name="six" unicode="6" horiz-adv-x="1330" 
d="M1178 1382q99 -33 163 -104q63 -71 63 -170q0 -112 -79 -186t-209 -74q-96 0 -160 76q-65 76 -36 168q80 -19 136 28t56 128q0 77 -51 118q-52 41 -117 41q-124 0 -207 -175q-84 -176 -137 -534q98 72 208 106q109 33 206 25q96 -8 175 -45q79 -38 125 -110t46 -164
q0 -96 -39 -181q-39 -86 -105 -147q-66 -62 -151 -107t-178 -67t-186 -22q-173 0 -299 79q-127 79 -190 213q-64 134 -64 306q0 164 61 315q60 151 165 265t257 182q151 68 324 68q123 0 223 -32zM868 769q-102 40 -270 -79q-38 -244 -38 -402q0 -90 11 -149q11 -60 33 -91
t50 -43q27 -12 66 -12q40 0 72 11t67 46q34 34 58 92q23 57 38 158q15 100 15 236q0 193 -102 233z" />
    <glyph glyph-name="seven" unicode="7" horiz-adv-x="1156" 
d="M710 1404q75 -17 150 -40q74 -23 155 -45t146 -36q64 -15 115 -11q50 4 69 30q9 39 14 104h7q-8 -80 -16 -118q-14 -71 -57 -146q-43 -76 -100 -142q-58 -66 -124 -133l-131 -133q-64 -65 -116 -127t-84 -128q-32 -67 -32 -127q0 -51 30 -77q29 -26 76 -7
q-4 -63 -24 -113q-21 -50 -50 -81q-30 -32 -68 -52q-39 -21 -77 -29q-38 -9 -77 -9q-104 0 -181 71q-77 70 -77 174q0 77 39 148q39 70 104 125q64 54 150 110q85 56 177 104q91 48 185 106q94 57 174 113q79 56 144 130q64 74 94 154h-2q-47 -111 -149 -181
q-103 -70 -224 -70q-93 0 -284 34t-296 34q-180 0 -219 -117l-5 1q21 68 41 120q19 51 48 113t63 106q33 44 75 83q42 38 97 58q54 20 116 20q48 0 124 -16z" />
    <glyph glyph-name="eight" unicode="8" horiz-adv-x="1238" 
d="M1198 1016q-84 -74 -238 -124q59 -28 102 -52q42 -25 89 -62t77 -76q29 -40 49 -94q19 -55 19 -118q0 -150 -101 -266q-101 -117 -266 -177q-166 -61 -363 -61q-95 0 -178 15q-84 15 -157 48q-74 32 -117 92q-44 60 -44 141q0 53 24 100q24 46 58 78t89 63q55 30 98 48
t104 40q-96 65 -149 144q-54 79 -54 185q0 93 44 173q44 79 115 134q70 54 159 93q88 38 177 56q88 18 169 18q65 0 128 -12q62 -13 121 -39q58 -27 94 -77q35 -50 35 -118q0 -78 -84 -152zM912 322q-30 42 -86 78q-56 35 -114 65q-58 29 -135 69q-78 40 -130 75
q-74 -42 -124 -126q-51 -85 -51 -171q0 -60 18 -114q18 -55 55 -102q36 -47 99 -75t145 -28q139 0 246 71t107 168q0 48 -30 90zM613 1137q9 -25 21 -44t37 -40q24 -21 43 -34q19 -14 55 -33q36 -20 58 -30q21 -11 65 -31l64 -31q173 98 173 248q0 116 -88 188
q-89 71 -198 71q-102 0 -170 -64q-69 -64 -69 -149q0 -27 9 -51z" />
    <glyph glyph-name="nine" unicode="9" horiz-adv-x="1326" 
d="M442 2q-78 16 -146 50q-68 33 -108 94q-40 60 -40 140q0 117 79 192q79 74 209 74q96 0 161 -76q64 -76 35 -168q-77 19 -134 -27q-58 -46 -58 -125q0 -44 17 -77q16 -33 43 -51t58 -26q30 -9 63 -9q49 0 88 19q39 18 70 61q31 42 55 96q23 53 45 139q21 86 37 176
q16 89 36 218q-120 -88 -256 -115q-137 -28 -247 1q-111 29 -184 117q-73 87 -73 215q0 99 38 182t103 140q64 57 150 97q85 39 180 57q94 18 193 18q169 0 295 -79q125 -79 189 -213q64 -135 64 -306q0 -165 -56 -315q-57 -151 -158 -265q-102 -114 -254 -182t-331 -68
q-86 0 -163 16zM771 1394q-35 -13 -71 -51t-61 -98q-26 -60 -42 -162q-17 -102 -17 -235q0 -112 49 -169q48 -58 134 -49q85 8 190 81q42 274 42 438q0 127 -38 193q-39 65 -112 65q-39 0 -74 -13z" />
    <glyph glyph-name="colon" unicode=":" horiz-adv-x="529" 
d="M547 1019q44 -46 44 -115q0 -87 -65 -155q-65 -69 -154 -69q-69 0 -113 46q-45 46 -45 116q0 86 65 154t154 68q69 0 114 -45zM437 325q44 -46 44 -115q0 -87 -65 -155q-65 -69 -154 -69q-69 0 -113 46q-45 46 -45 116q0 86 65 154t154 68q69 0 114 -45z" />
    <glyph glyph-name="semicolon" unicode=";" horiz-adv-x="545" 
d="M553 1019q45 -46 45 -115q0 -87 -65 -155q-65 -69 -154 -69q-69 0 -114 46q-44 46 -44 116q0 86 65 154t154 68q69 0 113 -45zM170 -287q86 74 108 160q23 86 -22 153t-143 90q-10 72 23 132q34 60 90 91t116 31q69 0 115 -46t46 -137q0 -67 -29 -137t-79 -132t-104 -113
t-117 -97z" />
    <glyph glyph-name="less" unicode="&#x3c;" horiz-adv-x="654" 
d="M726 1100l4 -4l-454 -496l297 -496l-6 -4l-375 500z" />
    <glyph glyph-name="equal" unicode="=" horiz-adv-x="1049" 
d="M1079 810l-2 -10h-854l2 10h854zM1014 400l-2 -10h-854l2 10h854z" />
    <glyph glyph-name="greater" unicode="&#x3e;" horiz-adv-x="655" 
d="M651 600l-535 -500l-4 4l455 496l-298 496l6 4z" />
    <glyph glyph-name="question" unicode="?" horiz-adv-x="1145" 
d="M904 1405q66 -9 135 -31q68 -22 121 -54q52 -33 86 -85q33 -52 33 -116q0 -74 -34 -136t-89 -105q-56 -44 -123 -81t-135 -68q-69 -31 -127 -61q-58 -31 -97 -69q-40 -38 -47 -81q-6 -38 16 -80l-6 -4q-27 43 -20 88q4 25 33 68l67 97q37 55 75 125q37 69 63 170
q25 100 25 212q0 107 -38 160t-108 53q-85 0 -137 -71q-53 -71 -53 -162q0 -72 53 -106q-19 -93 -81 -142q-62 -50 -140 -50q-72 0 -121 44q-49 43 -49 125q0 80 37 145q36 65 94 106q57 41 134 69q76 27 151 38t150 11q65 0 132 -9zM748 325q44 -46 44 -115q0 -87 -65 -155
q-65 -69 -154 -69q-69 0 -113 46q-45 46 -45 116q0 86 65 154t154 68q69 0 114 -45z" />
    <glyph glyph-name="at" unicode="@" horiz-adv-x="1591" 
d="M1411 259q107 80 159 198q51 118 51 258q0 104 -32 195q-33 91 -96 163q-64 72 -166 114q-103 41 -233 41q-152 0 -298 -50q-147 -51 -264 -139q-118 -89 -208 -202t-139 -245t-49 -262q0 -227 145 -369q144 -143 384 -143q200 0 407 101l3 -9q-207 -102 -412 -102
q-244 0 -390 145q-147 144 -147 376q0 110 36 222q35 112 99 212q63 100 154 188q90 87 196 151q106 63 232 100q125 36 253 36q132 0 236 -42q104 -43 168 -115q64 -73 98 -166q33 -93 33 -199q0 -112 -34 -213q-35 -101 -100 -179t-166 -124t-225 -46q-94 0 -145 46
q-52 46 -33 136q-43 -72 -119 -128t-157 -56q-73 0 -115 49t-42 131q0 128 75 260q74 131 198 218q123 86 251 86q89 0 162 -34t114 -78l-128 -390q-20 -62 -29 -96q-10 -34 -15 -69q-6 -36 3 -50t33 -13q145 13 252 93zM1078 808q25 78 -32 78q-62 0 -142 -115
q-80 -116 -134 -262t-54 -236q0 -70 41 -70q35 0 88 48q52 47 84 108z" />
    <glyph glyph-name="A" unicode="A" horiz-adv-x="2238" 
d="M1986 356q59 -188 119 -269q60 -82 159 -82l-1 -5h-837v5q66 0 106 28q40 27 52 76q12 48 8 105q-5 56 -24 124l-44 156h-325q-188 -339 -362 -497q-171 -156 -369 -156q-216 0 -342 95q-126 94 -126 284q0 171 116 276q116 104 287 104q101 0 192 -36q90 -36 151 -110
q60 -74 60 -170q0 -103 -72 -174q-72 -72 -188 -72q-89 0 -145 63q-57 63 -31 151q72 2 122 56q50 53 50 131q0 75 -46 115q-46 39 -114 39q-127 0 -213 -106q-87 -106 -87 -263q0 -171 105 -273q104 -103 281 -103q197 0 366 154q46 42 93 97q46 54 86 107q39 53 86 131
t81 136q33 58 81 155l77 156q28 58 78 170l75 167l77 177q52 121 74 170zM1406 913q-111 -243 -203 -412h319z" />
    <glyph glyph-name="B" unicode="B" horiz-adv-x="1720" 
d="M1126 1379q-61 -2 -134 15q-74 16 -118 33q-44 16 -128 51q-83 34 -128 51q-45 16 -116 33q-72 17 -132 17q-86 0 -146 -45t-60 -122q0 -65 39 -95q39 -31 93 -31q90 0 152 80q67 -30 97 -81q29 -52 18 -106t-45 -102q-34 -49 -94 -80t-128 -31q-117 0 -206 81
q-90 80 -90 207q0 141 105 237q105 95 265 95q70 0 150 -20q79 -21 151 -50q72 -30 144 -59q71 -30 148 -50q76 -21 141 -21q31 0 48 15q16 15 16 35q0 28 -24 40t-66 -10q-33 61 1 109q33 47 91 47q45 0 78 -27q32 -28 32 -81q0 -50 -37 -80q-38 -30 -81 -44q68 12 106 12
q86 0 165 -17q78 -17 143 -49t104 -86q38 -54 38 -122q0 -328 -612 -354l-2 -2q56 -1 113 -8t128 -22q71 -16 131 -45q60 -30 112 -71q52 -42 82 -107t30 -145q0 -118 -69 -221t-199 -172t-317 -84q-188 -15 -425 43l1 4q88 -16 161 -13q72 2 130 26t103 57q44 33 78 80
q33 47 56 95q23 47 37 100q14 52 20 97t6 86q0 57 -14 108q-15 50 -44 94q-30 44 -84 70q-54 25 -126 25l2 5q71 0 127 22q55 21 91 58q35 37 58 91q23 53 33 112q9 59 9 129q0 85 -40 140q-40 54 -110 54q-64 0 -107 -63t-67 -217l-172 -1100h-608v5q61 0 104 17
q43 16 69 39q25 22 44 76q18 53 27 94q8 41 22 129l106 680q10 63 42 116q31 52 78 87q46 35 98 61t110 41t105 23q47 7 91 9v2z" />
    <glyph glyph-name="C" unicode="C" horiz-adv-x="1430" 
d="M888 1433q-91 -80 -159 -209q-68 -130 -120 -287q-53 -157 -80 -319t-27 -300q0 -73 8 -136q8 -64 31 -131q22 -68 59 -115q36 -47 99 -77q62 -31 144 -31q90 0 179 38q89 37 159 102t114 162q43 97 43 207q0 77 -21 135q-22 57 -57 88q-36 31 -74 46q-39 14 -81 14
q-84 0 -133 -53q-50 -54 -50 -132q0 -71 41 -112t103 -43q10 -88 -57 -151q-68 -63 -157 -63q-103 0 -162 58q-60 57 -60 146q0 104 73 188t183 127q109 43 227 43q141 0 222 -70q81 -71 81 -220q0 -103 -40 -195q-41 -92 -116 -165q-76 -73 -196 -115q-120 -43 -268 -43
q-171 0 -305 53q-135 53 -219 146q-85 93 -128 215q-44 121 -44 264q0 119 30 240t87 235q56 114 142 214q86 99 192 173t242 117t285 43q122 0 223 -33q100 -33 165 -103q64 -71 64 -168q0 -111 -76 -183q-77 -73 -170 -73q-82 0 -141 59q-60 58 -39 143q68 11 106 61
t38 113q0 72 -46 125q-47 52 -130 52q-94 0 -184 -80z" />
    <glyph glyph-name="D" unicode="D" horiz-adv-x="1824" 
d="M1077 1320q-43 -65 -67 -220l-172 -1100h-608v5q61 0 104 17q43 16 69 39q25 22 44 76q18 53 27 94q8 41 22 129l106 680q10 63 42 116q31 52 78 87q46 35 98 61t110 41t105 23q47 7 91 9v2q-61 -2 -134 15q-74 16 -118 33q-44 16 -128 51q-83 34 -128 51q-45 16 -116 33
q-72 17 -132 17q-86 0 -146 -45t-60 -122q0 -65 39 -95q39 -31 93 -31q90 0 152 80q67 -30 97 -81q29 -52 18 -106t-45 -102q-34 -49 -94 -80t-128 -31q-117 0 -206 81q-90 80 -90 207q0 141 105 237q105 95 265 95q70 0 150 -20q79 -21 151 -50q72 -30 144 -59
q71 -30 148 -50q76 -21 141 -21q31 0 48 15q16 15 16 35q0 28 -24 40t-66 -10q-33 61 1 109q33 47 91 47q45 0 78 -27q32 -28 32 -81q0 -50 -37 -80q-38 -30 -81 -44q48 6 94 6q91 0 175 -21q83 -21 161 -68q77 -47 135 -117q57 -70 91 -175q34 -106 34 -235q0 -71 -10 -144
q-10 -74 -32 -154q-23 -80 -57 -154q-35 -75 -87 -144q-53 -70 -118 -126q-66 -56 -154 -96q-89 -41 -192 -59q-103 -19 -234 -10q-131 8 -278 47l1 5q130 -23 240 3t187 88q76 61 137 153q60 92 96 192q36 99 60 211q24 111 33 204q8 93 8 178q0 101 -12 174
q-13 72 -43 127t-83 82t-130 27q-64 0 -107 -64z" />
    <glyph glyph-name="E" unicode="E" horiz-adv-x="1414" 
d="M836 1394q-54 -38 -86 -95q-33 -58 -50 -122q-18 -64 -18 -123q0 -116 61 -201t165 -85h54l-1 -6h-35q-102 0 -192 -54t-150 -142q-61 -89 -95 -201q-35 -112 -35 -229q0 -60 9 -112t33 -104q23 -52 60 -88q36 -37 96 -60t138 -23q105 0 197 34q91 33 154 88
q62 55 108 126q45 70 66 144q21 73 21 143q0 108 -60 182q-60 73 -182 73q-99 0 -145 -50q-47 -51 -47 -139q0 -66 41 -108q40 -42 103 -44q10 -88 -57 -151q-68 -63 -157 -63q-103 0 -162 58q-60 57 -60 146q0 104 74 188q73 84 181 127t222 43q156 0 242 -83
q85 -83 85 -208q0 -70 -27 -142q-28 -72 -86 -139q-58 -68 -139 -120q-81 -53 -197 -84q-116 -32 -251 -32q-153 0 -277 41q-124 40 -200 109q-77 68 -117 152q-41 84 -41 175q0 112 47 209q46 96 137 172q90 75 236 120q146 44 331 47l1 3q-229 4 -364 93q-135 88 -135 227
q0 68 31 124t84 93t117 65q63 27 135 42q72 14 134 21q61 7 117 7q127 0 229 -33t166 -102q63 -70 63 -167q0 -113 -76 -185q-77 -73 -170 -73q-82 0 -141 59q-60 58 -39 143q60 13 99 54t39 112q0 81 -43 133t-122 52q-65 0 -119 -37z" />
    <glyph glyph-name="F" unicode="F" horiz-adv-x="1972" 
d="M1592 1388q41 7 117 10q75 3 135 4l270 -2l-78 -482h-5q37 249 -40 361q-77 111 -285 111q-50 0 -87 -7t-64 -24q-27 -18 -45 -39t-31 -57q-14 -36 -22 -72t-17 -91l-59 -382q113 0 202 30q89 29 157 102q67 73 91 186h5l-136 -646h-5q15 86 1 147q-15 61 -60 100
q-46 39 -109 57q-64 18 -147 18l-46 -300q-16 -105 -59 -193t-100 -147q-58 -60 -132 -105q-74 -46 -145 -72q-72 -26 -151 -42q-79 -17 -139 -22q-60 -6 -117 -6q-235 0 -363 101q-128 100 -128 294q0 171 116 276q116 104 287 104q101 0 192 -36q90 -36 151 -110
q60 -74 60 -170q0 -103 -72 -174q-72 -72 -188 -72q-89 0 -145 63q-57 63 -31 151q72 2 122 56q50 53 50 131q0 75 -46 115q-46 39 -114 39q-127 0 -213 -106q-87 -106 -87 -263q0 -178 97 -285q96 -107 289 -107q187 0 304 134q116 134 156 394l104 680q10 63 42 116
q31 52 78 87q46 35 98 61t110 41t105 23q47 7 91 9v2q-61 -2 -134 15q-74 16 -118 33q-44 16 -128 51q-83 34 -128 51q-45 16 -116 33q-72 17 -132 17q-86 0 -146 -45t-60 -122q0 -65 39 -95q39 -31 93 -31q90 0 152 80q67 -30 97 -81q29 -52 18 -106t-45 -102
q-34 -49 -94 -80t-128 -31q-117 0 -206 81q-90 80 -90 207q0 141 105 237q105 95 265 95q70 0 150 -20q79 -21 151 -50q72 -30 144 -59q71 -30 148 -50q76 -21 141 -21q31 0 48 15q16 15 16 35q0 28 -24 40t-66 -10q-33 61 1 109q33 47 91 47q45 0 78 -27q32 -28 32 -81
q0 -50 -37 -80q-38 -30 -81 -44v-2z" />
    <glyph glyph-name="G" unicode="G" horiz-adv-x="1536" 
d="M1348 -76q-11 -76 -31 -145q-20 -70 -55 -137q-35 -68 -80 -117q-46 -49 -112 -79q-66 -31 -144 -31q-116 0 -191 59q-75 58 -75 152q0 70 34 120q34 49 83 70q49 20 107 20q85 0 143 -54q57 -54 47 -150q-54 4 -85 -22q-31 -27 -31 -69q0 -37 24 -62q24 -26 66 -26
q57 0 84 47q26 47 26 120q0 45 -19 87q-20 41 -47 74q-27 32 -53 65q-27 32 -44 73q-17 40 -14 85q-39 -69 -124 -102q-86 -34 -196 -34q-136 0 -244 51q-109 51 -177 140q-69 88 -104 202q-36 114 -36 245q0 127 35 253q34 126 96 238q62 111 154 208q91 96 200 166
q108 70 241 110q133 39 274 39q122 0 223 -33q100 -33 165 -103q64 -71 64 -168q0 -111 -76 -183q-77 -73 -170 -73q-82 0 -141 59q-60 58 -39 143q68 11 106 61t38 113q0 72 -46 125q-47 52 -131 52q-95 0 -186 -75q-91 -76 -160 -198t-122 -271q-53 -150 -81 -304
t-28 -287q0 -30 1 -61q1 -32 7 -83q5 -51 14 -96q8 -45 25 -94t40 -83q22 -35 57 -57q35 -23 78 -23q66 0 145 40q78 40 101 103l38 260q25 175 22 228q-5 83 -66 107q-34 14 -92 14l1 5h720l-1 -5q-25 0 -45 -4q-21 -5 -37 -11q-16 -7 -29 -22q-14 -15 -24 -28t-19 -39
t-15 -46t-13 -57q-7 -38 -11 -65q-5 -28 -12 -77z" />
    <glyph glyph-name="H" unicode="H" horiz-adv-x="2380" 
d="M1696 1476q-12 -21 -32 -35q-20 -15 -45 -30t-52 -38q-27 -24 -51 -56q-25 -33 -46 -88q-21 -56 -32 -129l-60 -387h442l18 111q22 140 94 276q71 136 168 240q97 103 208 184q110 80 216 122t188 42q87 0 132 -42q44 -42 44 -111q0 -88 -64 -145q-65 -58 -139 -58
q-41 0 -72 21t-45 58q32 14 54 45q21 30 21 61q0 46 -28 80q-28 33 -84 33q-42 0 -78 -31q-36 -32 -59 -76q-24 -45 -44 -106q-20 -62 -30 -109t-18 -96l-136 -852q-27 -171 -23 -227q7 -89 77 -114q38 -14 98 -14v-5h-758v5q94 0 132 62q37 62 64 233l63 406h-442l-45 -294
q-16 -105 -59 -193t-100 -147q-58 -60 -132 -105q-74 -46 -145 -72q-72 -26 -151 -42q-79 -17 -139 -22q-60 -6 -117 -6q-235 0 -363 101q-128 100 -128 294q0 171 116 276q116 104 287 104q101 0 192 -36q90 -36 151 -110q60 -74 60 -170q0 -103 -72 -174q-72 -72 -188 -72
q-89 0 -145 63q-57 63 -31 151q72 2 122 56q50 53 50 131q0 75 -46 115q-46 39 -114 39q-127 0 -213 -106q-87 -106 -87 -263q0 -178 97 -285q96 -107 289 -107q187 0 304 134q116 134 156 394l104 680q10 63 42 116q31 52 78 87q46 35 98 61t110 41t105 23q47 7 91 9v2
q-61 -2 -134 15q-74 16 -118 33q-44 16 -128 51q-83 34 -128 51q-45 16 -116 33q-72 17 -132 17q-86 0 -146 -45t-60 -122q0 -65 39 -95q39 -31 93 -31q90 0 152 80q67 -30 97 -81q29 -52 18 -106t-45 -102q-34 -49 -94 -80t-128 -31q-117 0 -206 81q-90 80 -90 207
q0 141 105 237q105 95 265 95q70 0 150 -20q79 -21 151 -50q72 -30 144 -59q71 -30 148 -50q76 -21 141 -21q33 0 49 15q15 14 15 35q0 28 -24 40t-66 -10q-33 63 1 111q33 48 95 48q42 0 74 -26q32 -27 32 -75q0 -28 -12 -48z" />
    <glyph glyph-name="I" unicode="I" horiz-adv-x="1108" 
d="M896 360q-27 -171 -23 -227q7 -89 77 -114q38 -14 98 -14v-5h-817v5q61 0 104 17q43 16 69 39q25 22 44 75q18 53 27 95q8 42 21 129l106 682q10 63 42 116q31 52 78 87q46 34 98 60q51 26 110 41q58 14 105 22q47 7 91 9v2q-61 -2 -134 15q-74 16 -118 33
q-44 16 -128 51q-83 34 -128 51q-45 16 -116 33q-72 17 -132 17q-86 0 -146 -45t-60 -122q0 -65 39 -95q39 -31 93 -31q90 0 152 80q67 -30 97 -81q29 -52 18 -106t-45 -102q-34 -49 -94 -80t-128 -31q-117 0 -206 81q-90 80 -90 207q0 141 105 237q105 95 265 95
q70 0 150 -20q79 -21 151 -50q72 -30 144 -59q71 -30 148 -50q76 -21 141 -21q33 0 49 15q15 14 15 35q0 28 -24 40t-66 -10q-33 63 1 111q33 48 95 48q42 0 74 -26q32 -27 32 -75q0 -38 -22 -62q-22 -25 -56 -46q-35 -21 -71 -51q-36 -31 -69 -98q-34 -68 -50 -167z" />
    <glyph glyph-name="J" unicode="J" horiz-adv-x="1538" 
d="M1696 1476q-12 -21 -32 -35q-20 -15 -45 -30t-52 -38q-27 -24 -51 -56q-25 -33 -46 -88q-21 -56 -32 -129l-106 -688q-16 -105 -59 -193t-100 -147q-58 -60 -132 -105q-74 -46 -145 -72q-72 -26 -151 -42q-79 -17 -139 -22q-60 -6 -117 -6q-235 0 -363 101
q-128 100 -128 294q0 171 116 276q116 104 287 104q101 0 192 -36q90 -36 151 -110q60 -74 60 -170q0 -103 -72 -174q-72 -72 -188 -72q-89 0 -145 63q-57 63 -31 151q72 2 122 56q50 53 50 131q0 75 -46 115q-46 39 -114 39q-127 0 -213 -106q-87 -106 -87 -263
q0 -178 97 -285q96 -107 289 -107q187 0 304 134q116 134 156 394l104 680q10 63 42 116q31 52 78 87q46 35 98 61t110 41t105 23q47 7 91 9v2q-61 -2 -134 15q-74 16 -118 33q-44 16 -128 51q-83 34 -128 51q-45 16 -116 33q-72 17 -132 17q-86 0 -146 -45t-60 -122
q0 -65 39 -95q39 -31 93 -31q90 0 152 80q67 -30 97 -81q29 -52 18 -106t-45 -102q-34 -49 -94 -80t-128 -31q-117 0 -206 81q-90 80 -90 207q0 141 105 237q105 95 265 95q70 0 150 -20q79 -21 151 -50q72 -30 144 -59q71 -30 148 -50q76 -21 141 -21q33 0 49 15
q15 14 15 35q0 28 -24 40t-66 -10q-33 63 1 111q33 48 95 48q42 0 74 -26q32 -27 32 -75q0 -28 -12 -48z" />
    <glyph glyph-name="K" unicode="K" horiz-adv-x="2194" 
d="M1696 1476q-12 -21 -32 -35q-20 -15 -45 -30t-52 -38q-27 -24 -51 -56q-25 -33 -46 -88q-21 -56 -32 -129l-60 -385l288 281q203 198 246 286q56 113 -97 113v5h569v-5q-90 0 -184 -32t-186 -92q-93 -60 -173 -127q-81 -67 -172 -155l-234 -227q119 30 204 30
q66 0 120 -15t93 -45q38 -30 67 -63q29 -34 52 -82q23 -49 38 -88q15 -40 33 -94l68 -218q13 -41 32 -93q18 -52 36 -84q17 -33 39 -64t48 -47t57 -19l-1 -5q-79 -15 -154 -15q-205 0 -350 113q-145 112 -190 325q-5 23 -13 75l-15 94q-7 42 -21 95t-32 91t-48 68
q-30 29 -68 36l-53 -52l-45 -293q-16 -105 -59 -193t-100 -147q-58 -60 -132 -105q-74 -46 -145 -72q-72 -26 -151 -42q-79 -17 -139 -22q-60 -6 -117 -6q-235 0 -363 101q-128 100 -128 294q0 171 116 276q116 104 287 104q101 0 192 -36q90 -36 151 -110q60 -74 60 -170
q0 -103 -72 -174q-72 -72 -188 -72q-89 0 -145 63q-57 63 -31 151q72 2 122 56q50 53 50 131q0 75 -46 115q-46 39 -114 39q-127 0 -213 -106q-87 -106 -87 -263q0 -178 97 -285q96 -107 289 -107q187 0 304 134q116 134 156 394l104 680q10 63 42 116q31 52 78 87
q46 35 98 61t110 41t105 23q47 7 91 9v2q-61 -2 -134 15q-74 16 -118 33q-44 16 -128 51q-83 34 -128 51q-45 16 -116 33q-72 17 -132 17q-86 0 -146 -45t-60 -122q0 -65 39 -95q39 -31 93 -31q90 0 152 80q67 -30 97 -81q29 -52 18 -106t-45 -102q-34 -49 -94 -80t-128 -31
q-117 0 -206 81q-90 80 -90 207q0 141 105 237q105 95 265 95q70 0 150 -20q79 -21 151 -50q72 -30 144 -59q71 -30 148 -50q76 -21 141 -21q33 0 49 15q15 14 15 35q0 28 -24 40t-66 -10q-33 63 1 111q33 48 95 48q42 0 74 -26q32 -27 32 -75q0 -28 -12 -48z" />
    <glyph glyph-name="L" unicode="L" horiz-adv-x="1340" 
d="M420 740q24 147 101 295q76 147 187 268q110 121 261 197q150 76 307 76q117 0 181 -61q63 -61 63 -149q0 -106 -85 -185t-195 -79q-74 0 -120 47q-47 47 -28 121q57 -1 93 42q35 42 35 95q0 45 -37 84q-38 39 -97 39q-185 0 -248 -402l-106 -672q-14 -89 -48 -163
q-34 -75 -82 -130t-104 -102q-56 -48 -120 -93q-64 -46 -123 -91t-120 -105q-62 -60 -106 -126l1 -1q262 317 542 317q114 0 259 -38t283 -92l273 -109q134 -55 266 -93t226 -38q66 0 112 20q46 19 85 66l4 -2q-106 -209 -235 -299q-130 -91 -285 -91q-111 0 -248 45
q-138 45 -271 109q-134 64 -270 128q-137 63 -288 108q-152 45 -284 45q-59 0 -101 -21q-42 -22 -87 -88l-6 3q28 49 71 103t79 98q36 43 73 99q37 55 66 133q28 77 43 173z" />
    <glyph glyph-name="M" unicode="M" horiz-adv-x="2724" 
d="M1205 1402l-176 -1043q-21 -126 -76 -228q-56 -103 -135 -172q-154 -134 -352 -134q-223 0 -345 103q-123 102 -123 292q0 171 116 276q116 104 287 104q101 0 192 -36q90 -36 151 -110q60 -74 60 -170q0 -103 -72 -174q-72 -72 -188 -72q-89 0 -145 63q-57 63 -31 151
q72 2 122 56q50 53 50 131q0 75 -46 115q-46 39 -114 39q-127 0 -213 -106q-87 -106 -87 -263q0 -178 97 -285q96 -107 289 -107q95 0 185 35q89 34 165 99q75 65 130 167q55 101 76 227l180 1066q152 -56 298 -48l54 2q-66 3 -134 25q-69 22 -127 51l-119 56
q-60 28 -129 48q-69 19 -137 19q-86 0 -146 -45t-60 -122q0 -65 39 -95q39 -31 93 -31q90 0 152 80q67 -30 97 -81q29 -52 18 -106t-45 -102q-34 -49 -94 -80t-128 -31q-117 0 -206 81q-90 80 -90 207q0 141 105 237q105 95 265 95q70 0 143 -20q72 -21 134 -50
q62 -30 124 -59q61 -30 131 -50q69 -21 134 -21q33 0 49 15q15 14 15 35q0 28 -24 40t-66 -10q-33 63 1 111q33 48 95 48q42 0 74 -26q32 -27 32 -75q0 -126 -130 -143l194 -866q178 313 369 564t362 359q130 115 270 183q139 67 243 67q87 0 132 -42q44 -42 44 -111
q0 -88 -64 -145q-65 -58 -139 -58q-41 0 -72 21t-45 58q32 14 54 45q21 30 21 61q0 46 -28 80q-28 33 -84 33q-42 0 -78 -31q-36 -32 -59 -76q-24 -45 -44 -106q-20 -62 -30 -109t-18 -96l-136 -852q-27 -171 -23 -227q7 -89 77 -114q38 -14 98 -14v-5h-758v5q94 0 132 62
q37 62 64 233l82 524q25 162 112 311q86 148 212 268q-114 -82 -243 -235q-130 -154 -240 -322q-110 -169 -213 -350q-103 -182 -172 -324q-70 -142 -110 -240z" />
    <glyph glyph-name="N" unicode="N" horiz-adv-x="2454" 
d="M1559 1381l597 -853l107 686q24 152 61 258q36 105 85 163q48 57 102 81q53 24 120 24q63 0 108 -19q45 -20 67 -52q21 -32 30 -62q8 -30 8 -63q0 -96 -64 -154q-65 -58 -140 -58q-80 0 -108 76q30 13 46 42t16 62q0 43 -30 75q-30 31 -80 31q-152 0 -214 -406
l-200 -1280l-898 1274l-143 -847q-21 -126 -76 -228q-56 -103 -135 -172q-154 -134 -352 -134q-223 0 -345 103q-123 102 -123 292q0 171 116 276q116 104 287 104q101 0 192 -36q90 -36 151 -110q60 -74 60 -170q0 -103 -72 -174q-72 -72 -188 -72q-89 0 -145 63
q-57 63 -31 151q72 2 122 56q50 53 50 131q0 75 -46 115q-46 39 -114 39q-127 0 -213 -106q-87 -106 -87 -263q0 -178 97 -285q96 -107 289 -107q95 0 185 35q89 34 165 99q75 65 130 167q55 101 76 227l114 675q23 115 14 225q-10 109 -56 148q134 -41 348 -30l60 1
q-67 3 -136 25q-69 21 -128 50l-119 58q-60 28 -130 48q-70 19 -138 19q-86 0 -146 -45t-60 -122q0 -65 39 -95q39 -31 93 -31q90 0 152 80q67 -30 97 -81q29 -52 18 -106t-45 -102q-34 -49 -94 -80t-128 -31q-117 0 -206 81q-90 80 -90 207q0 141 105 237q105 95 265 95
q70 0 143 -20q72 -21 134 -50q62 -30 124 -59q61 -30 131 -50q69 -21 134 -21q33 0 49 15q15 14 15 35q0 28 -24 40t-66 -10q-33 63 1 111q33 48 95 48q42 0 74 -26q32 -27 32 -75q0 -127 -134 -143z" />
    <glyph glyph-name="O" unicode="O" horiz-adv-x="1736" 
d="M200 910q99 192 277 325q59 139 210 226q150 87 379 87q139 0 257 -35q117 -35 200 -95q82 -61 140 -142q58 -82 86 -175q27 -94 27 -195q0 -146 -39 -285t-108 -254q-69 -116 -165 -213q-97 -97 -209 -164t-240 -104q-128 -38 -257 -38q-144 0 -267 48t-208 132
q-86 83 -134 200q-49 116 -49 250q0 240 100 432zM987 1449q-97 -35 -180 -130q-84 -96 -140 -219q-57 -124 -98 -277q78 -65 199 -65q86 0 136 49t50 131q0 66 -40 108q-41 42 -104 44q-10 88 58 151q67 63 156 63q103 0 163 -57q59 -58 59 -147q0 -78 -46 -145
q-47 -68 -118 -111q-72 -43 -154 -67q-83 -25 -160 -25q-120 0 -202 58q-72 -273 -72 -546q0 -88 12 -160t38 -129q25 -57 68 -88q43 -32 100 -32q118 0 242 125q123 124 214 308q90 184 148 398t58 388q0 70 -9 133q-10 62 -35 124q-26 62 -66 107q-41 44 -107 72
q-67 28 -153 28q-95 0 -189 -30t-178 -95t-127 -155q205 141 476 194z" />
    <glyph glyph-name="P" unicode="P" horiz-adv-x="2122" 
d="M1592 1388q53 14 108 14q226 0 354 -87q128 -88 128 -267q0 -84 -27 -157q-27 -74 -73 -128t-108 -99q-63 -45 -134 -71q-71 -27 -147 -44q-76 -18 -149 -17q-74 0 -142 8l1 7q61 -9 113 7t89 49q36 33 65 83q29 49 47 104q17 54 29 117q11 63 16 120q4 56 4 113
q0 108 -38 174q-39 66 -112 66q-69 0 -111 -66t-65 -214l-106 -688q-16 -105 -59 -193t-100 -147q-58 -60 -132 -105q-74 -46 -145 -72q-72 -26 -151 -42q-79 -17 -139 -22q-60 -6 -117 -6q-235 0 -363 101q-128 100 -128 294q0 171 116 276q116 104 287 104q101 0 192 -36
q90 -36 151 -110q60 -74 60 -170q0 -103 -72 -174q-72 -72 -188 -72q-89 0 -145 63q-57 63 -31 151q72 2 122 56q50 53 50 131q0 75 -46 115q-46 39 -114 39q-127 0 -213 -106q-87 -106 -87 -263q0 -178 97 -285q96 -107 289 -107q187 0 304 134q116 134 156 394l104 680
q10 63 42 116q31 52 78 87q46 35 98 61t110 41t105 23q47 7 91 9v2q-61 -2 -134 15q-74 16 -118 33q-44 16 -128 51q-83 34 -128 51q-45 16 -116 33q-72 17 -132 17q-86 0 -146 -45t-60 -122q0 -65 39 -95q39 -31 93 -31q90 0 152 80q67 -30 97 -81q29 -52 18 -106t-45 -102
q-34 -49 -94 -80t-128 -31q-117 0 -206 81q-90 80 -90 207q0 141 105 237q105 95 265 95q70 0 150 -20q79 -21 151 -50q72 -30 144 -59q71 -30 148 -50q76 -21 141 -21q31 0 48 15q16 15 16 35q0 28 -24 40t-66 -10q-33 61 1 109q33 47 91 47q45 0 78 -27q32 -28 32 -81
q0 -50 -37 -80q-38 -30 -81 -44v-2z" />
    <glyph glyph-name="Q" unicode="Q" horiz-adv-x="1700" 
d="M314 -101q-81 15 -127 38t-69 49q-24 25 -24 49q0 27 29 45t67 25q37 6 78 6q89 0 216 -35t347 -110q132 64 233 180q101 115 159 255t87 286q28 145 28 291q0 62 -5 120q-6 57 -19 124t-38 122q-26 55 -63 101q-38 46 -95 72q-58 26 -131 26q-107 0 -196 -54
q-90 -55 -149 -142q-59 -88 -100 -201q-42 -113 -60 -228t-18 -228q0 -172 52 -256q52 -85 147 -85q84 0 127 60q42 59 42 146q0 91 -45 138q-46 46 -121 49q-12 106 61 184q72 78 185 78q118 0 187 -73q69 -74 69 -177q0 -73 -31 -139q-31 -67 -82 -115q-52 -49 -115 -85
q-64 -36 -130 -54q-67 -19 -128 -19q-58 0 -123 16t-137 56t-128 99q-57 58 -94 153q-38 95 -38 212q0 151 63 278t172 213q108 86 255 134q147 47 314 47q114 0 223 -21q108 -22 209 -70t177 -116q75 -69 120 -171t45 -224q0 -194 -105 -394t-301 -364q-197 -165 -443 -244
q166 -57 267 -89q100 -33 280 -83q179 -51 319 -79q139 -28 319 -49q180 -22 347 -22q136 0 224 17q87 17 145 64l2 -1q-125 -230 -284 -350t-386 -120q-99 0 -204 23q-106 22 -213 67q-108 44 -204 93q-97 48 -209 119q-113 70 -194 124t-193 130t-174 117
q-118 -23 -239 -23q-100 0 -180 15zM711 -79q-138 88 -240 135t-178 47q-57 0 -87 -24t-30 -54q0 -50 83 -92t229 -42q116 0 223 30z" />
    <glyph glyph-name="R" unicode="R" horiz-adv-x="2206" 
d="M1401 622q89 20 155 60q66 39 106 89q39 49 63 116q24 66 33 132q8 65 8 145q0 105 -38 161t-112 56q-69 0 -111 -66q-42 -67 -65 -215l-106 -688q-16 -105 -59 -193t-100 -147q-58 -60 -132 -105q-74 -46 -145 -72q-72 -26 -151 -42q-79 -17 -139 -22q-60 -6 -117 -6
q-235 0 -363 101q-128 100 -128 294q0 171 116 276q116 104 287 104q101 0 192 -36q90 -36 151 -110q60 -74 60 -170q0 -103 -72 -174q-72 -72 -188 -72q-89 0 -145 63q-57 63 -31 151q72 2 122 56q50 53 50 131q0 75 -46 115q-46 39 -114 39q-127 0 -213 -106
q-87 -106 -87 -263q0 -178 97 -285q96 -107 289 -107q187 0 304 134q116 134 156 394l104 680q10 63 42 116q31 52 78 87q46 35 98 61t110 41t105 23q47 7 91 9v2q-61 -2 -134 15q-74 16 -118 33q-44 16 -128 51q-83 34 -128 51q-45 16 -116 33q-72 17 -132 17
q-86 0 -146 -45t-60 -122q0 -65 39 -95q39 -31 93 -31q90 0 152 80q67 -30 97 -81q29 -52 18 -106t-45 -102q-34 -49 -94 -80t-128 -31q-117 0 -206 81q-90 80 -90 207q0 141 105 237q105 95 265 95q70 0 150 -20q79 -21 151 -50q72 -30 144 -59q71 -30 148 -50
q76 -21 141 -21q31 0 48 15q16 15 16 35q0 28 -24 40t-66 -10q-33 61 1 109q33 47 91 47q45 0 78 -27q32 -28 32 -81q0 -50 -37 -80q-38 -30 -81 -44v-2q53 14 108 14q492 0 492 -308q0 -60 -26 -113t-68 -93t-105 -76q-64 -36 -127 -61t-144 -49q-82 -25 -146 -41t-143 -34
l-31 -7q123 27 222 29t171 -17t128 -60q55 -42 92 -97q37 -56 66 -132q16 -43 38 -116t39 -122q16 -50 42 -102q25 -53 62 -84q36 -31 84 -39l-1 -5q-79 -15 -154 -15q-112 0 -196 20q-85 19 -139 50q-55 31 -94 85q-39 53 -60 108q-22 54 -42 133q-13 53 -23 87t-32 87
t-46 86q-25 33 -65 63q-41 29 -91 39z" />
    <glyph glyph-name="S" unicode="S" horiz-adv-x="1430" 
d="M374 1142q37 75 101 129q64 53 147 92q82 38 173 57q91 18 183 18q123 0 223 -32q100 -33 165 -104q64 -71 64 -170q0 -109 -76 -181q-77 -73 -170 -73q-81 0 -135 54q-54 53 -33 138q58 12 90 55t32 101q0 98 -55 152q-55 53 -145 53q-105 0 -184 -67q-80 -67 -80 -168
q0 -49 26 -91q25 -42 68 -74t99 -62q56 -31 118 -61q62 -31 124 -64t118 -75q56 -43 99 -93t69 -119q25 -70 25 -151q0 -179 -113 -333q-114 -154 -307 -244q-193 -91 -416 -91q-142 0 -256 39t-184 105q-70 65 -107 147q-37 81 -37 171q0 169 117 284q116 114 289 114
q99 0 189 -36t151 -110q60 -74 60 -170q0 -103 -72 -174q-72 -72 -188 -72q-89 0 -145 63q-57 63 -31 151q73 2 123 56q49 53 49 132q0 72 -51 108t-115 36q-81 0 -149 -52q-68 -53 -106 -139q-39 -87 -39 -185q0 -67 16 -130q15 -63 53 -124q38 -62 95 -107q57 -46 146 -74
q88 -28 199 -28q128 0 234 36q105 36 171 95q65 58 101 130q35 71 35 146q0 59 -27 112q-27 52 -73 93q-47 41 -106 79q-60 38 -126 74q-66 35 -132 71t-125 78q-60 42 -106 88q-47 46 -74 107q-27 60 -27 128q0 86 38 162z" />
    <glyph glyph-name="T" unicode="T" horiz-adv-x="1274" 
d="M47 1438q43 82 111 133q68 50 161 83t187 46q94 12 198 12q142 0 367 -34q224 -34 436 -68q211 -34 323 -34q84 0 144 16q60 15 97 61l3 -1q-57 -112 -120 -189q-63 -78 -130 -121q-68 -43 -134 -61q-67 -19 -144 -19q-103 0 -243 35q-50 -15 -81 -84q-32 -69 -52 -197
l-105 -656q-27 -171 -23 -227q7 -89 77 -114q38 -14 98 -14v-5h-817v5q44 0 79 9q34 8 59 20q24 12 44 38q19 26 31 49t23 67t17 78q6 33 15 94l92 598q11 75 56 135q44 60 102 96q57 36 130 61t133 36q59 10 116 13q-105 27 -253 83q-149 55 -261 100t-242 81
q-130 35 -224 35q-103 0 -160 -39q-58 -39 -58 -117q0 -76 52 -120q51 -44 121 -44q50 0 97 22q47 21 79 62q116 -54 116 -160q0 -109 -78 -171q-79 -63 -188 -63q-73 0 -137 29t-109 95q-46 66 -52 158q3 105 47 188z" />
    <glyph glyph-name="U" unicode="U" horiz-adv-x="1936" 
d="M602 1042q10 63 42 116q32 52 79 87q46 34 98 60t111 41q58 14 105 22q47 7 91 9v2q-61 -2 -134 15q-74 16 -118 33q-44 16 -128 51q-83 34 -128 51q-45 16 -116 33q-72 17 -132 17q-86 0 -146 -45t-60 -122q0 -65 39 -95q39 -31 93 -31q90 0 152 80q67 -30 97 -81
q29 -52 18 -106t-45 -102q-34 -49 -94 -80t-128 -31q-117 0 -206 81q-90 80 -90 207q0 141 105 237q105 95 265 95q70 0 150 -20q79 -21 151 -50q72 -30 144 -59q71 -30 148 -50q76 -21 141 -21q33 0 49 15q15 14 15 35q0 28 -24 40t-66 -10q-33 63 1 111q33 48 95 48
q42 0 74 -26q32 -27 32 -75q0 -28 -12 -48q-12 -21 -32 -35q-20 -15 -44 -30q-25 -15 -52 -38q-27 -24 -51 -56q-25 -33 -46 -88q-22 -56 -33 -129l-84 -536q-10 -65 -16 -114q-7 -50 -11 -119q-5 -69 -1 -119q3 -51 16 -105t38 -88q25 -35 67 -57t99 -22q149 1 262 82
q113 80 179 220q46 100 68 235l52 329q12 77 19 132t10 121t-3 112q-6 45 -22 91q-16 45 -45 72t-74 44q-46 17 -108 17v5h639v-5q-63 0 -115 -17t-89 -44t-68 -73t-50 -90q-20 -44 -37 -111q-18 -68 -28 -121q-10 -54 -22 -133l-52 -330q-42 -265 -192 -414
q-150 -150 -404 -150q-147 0 -253 32t-178 103q-72 70 -93 182q-22 111 0 269z" />
    <glyph glyph-name="V" unicode="V" horiz-adv-x="1792" 
d="M1758 1106q-44 48 -115 48q-54 0 -100 -31t-66 -91q-86 6 -132 60q-47 53 -47 134q0 109 74 179q73 69 174 69q54 0 104 -22t92 -64q41 -42 66 -111q24 -70 24 -157q0 -141 -53 -290q-54 -150 -142 -281q-89 -132 -205 -256t-239 -222q-124 -98 -249 -171l-6 12
q24 36 24 84q0 43 -22 98q-23 54 -58 111q-36 57 -79 120t-86 134q-43 70 -78 141q-36 71 -58 154q-23 82 -23 160q0 88 32 162t86 126t128 90q73 38 154 59q80 20 168 26v2q-61 -2 -134 15q-74 16 -118 33q-44 16 -128 51q-83 34 -128 51q-45 16 -116 33q-72 17 -132 17
q-86 0 -146 -45t-60 -122q0 -65 39 -95q39 -31 93 -31q90 0 152 80q67 -30 97 -81q29 -52 18 -106t-45 -102q-34 -49 -94 -80t-128 -31q-117 0 -206 81q-90 80 -90 207q0 141 105 237q105 95 265 95q70 0 150 -20q79 -21 151 -50q72 -30 144 -59q71 -30 148 -50
q76 -21 141 -21q31 0 48 15q16 15 16 35q0 28 -24 40t-66 -10q-33 61 1 109q33 47 91 47q45 0 78 -27q32 -28 32 -81q0 -30 -21 -54t-57 -46q-37 -22 -44 -28q-178 -141 -178 -410q0 -104 26 -232q26 -129 58 -226t58 -192q26 -96 26 -142q0 -67 -47 -125q-48 -58 -152 -145
l1 -2q226 134 435 342t326 439q91 180 91 291q0 73 -44 122z" />
    <glyph glyph-name="W" unicode="W" horiz-adv-x="2344" 
d="M2364 984q0 73 -44 122q-44 48 -115 48q-54 0 -100 -31t-66 -91q-86 6 -132 60q-47 53 -47 134q0 109 74 179q73 69 174 69q54 0 104 -22t92 -64q41 -42 66 -111q24 -70 24 -157q0 -141 -51 -290q-52 -149 -137 -281q-86 -132 -199 -256t-234 -222q-122 -98 -247 -171
l-6 12q26 39 26 84q0 41 -17 100q-18 58 -37 103q-20 45 -58 126q-214 -267 -490 -425l-6 12q24 36 24 84q0 43 -22 98q-23 54 -58 111q-36 57 -79 120t-86 134q-43 70 -78 141q-36 71 -58 154q-23 82 -23 160q0 88 32 162t86 126t128 90q73 38 154 59q80 20 168 26v2
q-61 -2 -134 15q-74 16 -118 33q-44 16 -128 51q-83 34 -128 51q-45 16 -116 33q-72 17 -132 17q-86 0 -146 -45t-60 -122q0 -65 39 -95q39 -31 93 -31q90 0 152 80q67 -30 97 -81q29 -52 18 -106t-45 -102q-34 -49 -94 -80t-128 -31q-117 0 -206 81q-90 80 -90 207
q0 141 105 237q105 95 265 95q70 0 150 -20q79 -21 151 -50q72 -30 144 -59q71 -30 148 -50q76 -21 141 -21q31 0 48 15q16 15 16 35q0 28 -24 40t-66 -10q-33 61 1 109q33 47 91 47q45 0 78 -27q32 -28 32 -81q0 -30 -21 -54t-57 -46q-37 -22 -44 -28q-180 -142 -180 -406
q0 -102 27 -229q26 -127 58 -224t59 -195q26 -98 26 -148q0 -67 -46 -125q-47 -58 -148 -143l1 -2q267 158 476 417q-42 89 -63 139q-22 50 -53 133t-45 157t-14 146q0 88 23 159q23 70 61 113t84 66q45 22 92 22q86 0 146 -73t60 -207q0 -157 -86 -343q16 -52 51 -151
t52 -163q17 -65 17 -115q0 -40 -16 -77q-16 -38 -49 -75t-63 -64q-31 -28 -80 -70l-17 -14l1 -2q223 131 426 340q203 208 318 440q88 174 88 292zM1633 653q82 181 82 333q0 54 -16 99q-16 44 -46 44q-21 0 -36 -20t-21 -52q-7 -32 -9 -59q-3 -28 -3 -56q0 -128 49 -289z
" />
    <glyph glyph-name="X" unicode="X" horiz-adv-x="1924" 
d="M652 -138q88 35 168 105q79 70 143 186t102 268q-28 66 -84 204q-53 130 -81 197q-28 66 -77 174q-50 108 -87 162t-85 111t-96 74q-49 16 -100 0l-3 5q66 41 159 66q92 24 175 24q138 0 231 -65q92 -66 161 -199q46 -91 111 -245q21 88 50 166q29 77 72 148t96 122
q52 51 122 81q69 30 148 30q137 0 212 -80t75 -198q0 -90 -36 -168q-37 -78 -109 -127t-165 -49q-68 0 -123 32q-55 31 -81 80t-28 104q-2 54 36 106t110 82q37 -84 120 -84q65 0 101 39q35 39 35 99t-34 109q-35 48 -112 48q-79 0 -148 -30q-70 -31 -121 -82
q-52 -52 -95 -124t-71 -150q-29 -78 -49 -166l41 -97q43 -102 67 -156q23 -55 68 -155q44 -100 75 -158q30 -59 74 -140t81 -130t80 -98q42 -49 85 -73q42 -25 83 -30l1 -4q-48 -9 -148 -16q-100 -8 -155 -8q-89 0 -161 23t-128 70t-98 105q-42 57 -85 138q-44 82 -104 223
q-39 -150 -103 -264q-64 -115 -144 -185q-80 -71 -171 -106q-91 -36 -191 -36q-90 0 -172 28q-83 28 -147 78q-65 50 -103 127q-39 76 -39 165q0 112 60 201t152 134q91 45 194 45q99 0 189 -36t151 -110q60 -74 60 -170q0 -103 -72 -174q-72 -72 -188 -72q-89 0 -145 63
q-57 63 -31 151q73 2 123 56q49 53 49 132q0 72 -51 108t-115 36q-53 0 -106 -27t-94 -73q-42 -47 -68 -115q-26 -69 -26 -145q0 -75 24 -144q23 -69 69 -126q45 -57 121 -91q75 -34 171 -34t185 35z" />
    <glyph glyph-name="Y" unicode="Y" horiz-adv-x="1088" 
d="M1214 1259l-324 -578l-50 -321q-27 -171 -23 -225q5 -89 73 -115q38 -15 100 -15v-5h-817v5q44 0 79 8q34 8 59 21q24 12 44 38q19 26 31 49t23 67q10 44 16 78t15 94l30 202q-25 191 -78 367q-54 175 -133 295q-79 119 -162 119q-37 0 -94 -46l-3 5q75 63 174 108
q98 44 194 44q92 0 168 -38t129 -104q52 -66 89 -154q36 -88 52 -190t16 -210q0 -109 -18 -216l404 720q32 56 59 97q26 40 65 94t79 92q39 37 87 72q47 35 102 53t114 18q123 0 199 -76q75 -77 75 -198q0 -132 -85 -231q-86 -99 -221 -99q-106 0 -171 60t-65 146
q0 59 35 115q34 55 111 75q37 -84 124 -84q61 0 98 39t37 98q0 58 -38 102q-39 43 -120 43q-239 0 -479 -419z" />
    <glyph glyph-name="Z" unicode="Z" horiz-adv-x="1350" 
d="M1104 574q107 -50 178 -163q70 -113 70 -223q0 -60 -22 -121q-23 -62 -64 -114t-106 -84q-65 -33 -142 -33q-75 0 -162 39q-88 38 -168 93t-158 110q-79 55 -160 94q-81 38 -147 38q-41 0 -72 -20t-31 -62q0 -43 43 -60q43 -18 89 18q34 -63 23 -111q-11 -49 -51 -78
q-41 -29 -92 -29q-53 0 -92 33q-40 32 -40 104q0 126 130 186q33 70 89 134q56 63 124 114q67 51 146 99q79 47 162 90l165 84q82 41 159 86q77 44 142 90t117 103q51 56 79 117q-68 -31 -175 -51q-108 -21 -212 -28q-104 -8 -213 -22q-109 -15 -190 -34q-82 -20 -134 -63
q-53 -44 -53 -110q0 -37 17 -64t61 -54l-2 -4q-107 50 -177 163q-71 113 -71 223q0 60 23 122q22 61 63 113t106 85q65 32 142 32q75 0 156 -33t152 -80l139 -94q69 -47 144 -80q74 -33 140 -33q41 0 72 20t31 62q0 43 -43 61q-43 17 -89 -19q-34 63 -23 112q11 48 52 77
q40 29 91 29q53 0 93 -33q39 -34 39 -106q0 -121 -128 -185q-33 -79 -105 -150q-73 -71 -164 -127q-92 -57 -197 -111l-214 -111q-108 -56 -203 -115q-96 -60 -176 -138q-81 -79 -124 -166q62 26 156 41q93 15 188 20l196 8q102 3 190 12q87 8 158 26q70 17 111 55
q40 37 40 94q0 37 -17 64t-61 54z" />
    <glyph glyph-name="bracketleft" unicode="[" horiz-adv-x="665" 
d="M893 1566l-1 -5h-217l-273 -1724h217l-1 -5h-488l275 1734h488z" />
    <glyph glyph-name="backslash" unicode="\" horiz-adv-x="831" 
d="M791 -182l-541 1762h10l541 -1762h-10z" />
    <glyph glyph-name="bracketright" unicode="]" horiz-adv-x="664" 
d="M756 1566l-275 -1734h-487l1 5h216l273 1724h-217l1 5h488z" />
    <glyph glyph-name="asciicircum" unicode="^" horiz-adv-x="654" 
d="M566 1514l-343 -494l-7 4l355 526l189 -526l-7 -4z" />
    <glyph glyph-name="underscore" unicode="_" horiz-adv-x="817" 
d="M787 -200l-1 -10h-820l1 10h820z" />
    <glyph glyph-name="grave" unicode="`" horiz-adv-x="0" 
d="M640 1142l-408 317q0 15 11 25q10 10 26 10q15 0 55 -41t131 -132q90 -92 188 -175z" />
    <glyph glyph-name="a" unicode="a" 
d="M640 973q-64 -80 -106 -201q-43 -121 -67 -259q-25 -139 -25 -261q0 -67 21 -118t58 -51q58 0 121 91t111 228t74 287l22 122q44 241 -75 241q-70 0 -134 -79zM1126 436q-9 -50 -15 -92q-6 -43 -11 -96q-6 -54 -5 -94q0 -41 6 -77t22 -55q15 -19 40 -18l-3 -4
q-64 -14 -142 -14q-54 0 -98 10q-44 9 -83 31q-40 22 -61 59t-29 92t11 130l70 309l-4 1q-46 -182 -99 -308t-111 -195q-59 -70 -119 -99q-60 -30 -131 -30q-76 0 -132 32q-57 31 -89 85q-32 53 -47 117q-16 63 -16 136q0 118 53 245q52 126 137 229q85 102 204 168
q118 66 239 66q68 0 146 -22q77 -22 143 -44t107 -22q79 0 123 80z" />
    <glyph glyph-name="b" unicode="b" horiz-adv-x="1180" 
d="M523 646q41 125 88 211q46 86 98 134t105 69q52 20 115 20q143 0 220 -87q76 -87 76 -249q0 -82 -17 -168q-18 -87 -51 -172q-33 -86 -86 -161q-54 -75 -120 -132q-67 -58 -157 -91q-90 -34 -191 -34q-149 0 -265 58q-117 58 -175 165q-59 106 -38 239l158 996
q7 44 -14 59q-22 14 -71 -4l-3 3q59 29 149 54q90 24 157 24q88 0 120 -39t16 -139l-192 -1174q-35 -224 46 -224q82 0 172 153q90 152 147 356q56 204 57 359q0 66 -16 109q-16 42 -46 42q-63 0 -142 -104q-79 -105 -134 -276z" />
    <glyph glyph-name="c" unicode="c" horiz-adv-x="1096" 
d="M132 659q52 120 141 209t215 143q125 53 264 53q60 0 121 -11q61 -12 123 -37q62 -26 101 -77q39 -52 39 -123q0 -89 -64 -156q-65 -68 -164 -68q-74 0 -121 46q-47 45 -37 130q59 16 91 58q31 42 31 92q0 56 -35 98q-35 41 -98 41q-70 0 -127 -53t-89 -133
q-33 -81 -50 -165t-17 -157q0 -163 83 -260q82 -98 216 -98q83 0 164 39t140 115l5 -3q-69 -115 -166 -197q-98 -82 -201 -120q-104 -39 -207 -39q-84 0 -157 27q-74 27 -131 79t-89 134q-33 81 -33 183q0 130 52 250z" />
    <glyph glyph-name="d" unicode="d" horiz-adv-x="1228" 
d="M947 1444q7 44 -14 59q-22 14 -71 -4l-3 3q59 29 149 54q90 24 157 24q88 0 121 -39q32 -40 16 -139l-156 -966q-9 -50 -15 -92q-6 -43 -11 -96q-6 -54 -5 -94q0 -41 6 -77t22 -55q15 -19 40 -18l-3 -4q-64 -14 -142 -14q-320 0 -265 322l52 309l-4 1q-46 -183 -98 -308
q-52 -126 -110 -195q-58 -70 -117 -99q-59 -30 -130 -30q-148 0 -217 93t-69 243q0 99 27 202q26 102 80 199t129 173t181 122t227 46q79 0 136 -18l-1 -2q-88 3 -168 -78q-81 -81 -135 -207t-86 -276q-32 -151 -32 -289q0 -141 60 -141q61 0 129 99q67 98 119 243
q51 144 78 294z" />
    <glyph glyph-name="e" unicode="e" horiz-adv-x="1096" 
d="M479 642q84 -10 150 2q66 11 107 38q40 27 67 68q26 40 37 82q10 41 10 86q0 63 -27 101q-28 38 -84 38q-83 0 -150 -81t-99 -192q-33 -111 -33 -218q0 -76 18 -142q17 -66 52 -119t94 -83q58 -31 134 -31q77 0 158 37q80 37 146 117l5 -3q-97 -161 -248 -258
q-152 -98 -322 -98q-185 0 -299 115q-115 115 -115 313q0 127 52 246q52 118 141 208q89 89 215 143q125 53 264 53q52 0 101 -5q48 -5 101 -20q53 -16 92 -39q39 -24 65 -65q25 -42 25 -95q0 -47 -20 -90q-21 -44 -70 -81q-50 -38 -123 -58t-188 -14q-116 6 -257 43z" />
    <glyph glyph-name="f" unicode="f" horiz-adv-x="618" 
d="M257 1050q32 193 61 275q64 178 210 222q54 17 121 17q134 0 212 -60q77 -61 77 -163q0 -92 -61 -156t-162 -64q-108 0 -164 70q-57 69 -19 157q51 -11 90 18t39 80q0 41 -24 71q-24 29 -68 29q-66 0 -123 -60q-57 -61 -57 -140q0 -49 24 -89q23 -41 55 -67
q31 -26 61 -48q30 -23 47 -45q16 -23 6 -47h170l-1 -6h-137l-160 -1018q-12 -77 -34 -147q-22 -71 -58 -139t-83 -117q-47 -50 -113 -80q-66 -31 -143 -31q-116 0 -187 61q-72 60 -72 155q0 103 67 157q67 53 159 53q85 0 143 -54q57 -54 47 -150q-55 3 -86 -21
q-31 -25 -31 -68q0 -37 23 -62q22 -26 64 -26q58 0 91 50q33 49 33 120q0 46 -19 89q-20 42 -47 75q-27 32 -52 66q-26 33 -40 77q-14 43 -6 92l146 918h-105l1 6h105z" />
    <glyph glyph-name="g" unicode="g" 
d="M640 973q-64 -80 -106 -201q-43 -121 -67 -259q-25 -139 -25 -261q0 -67 21 -118t58 -51q58 0 121 91t111 228t74 287l22 122q44 241 -75 241q-70 0 -134 -79zM1068 14q-34 -214 -194 -339t-436 -125q-45 0 -87 4q-42 3 -89 12q-47 8 -85 25q-38 16 -69 40q-31 23 -48 58
q-18 35 -18 79q0 83 59 139q59 55 145 55q68 0 118 -45t42 -121q-55 -6 -83 -39q-29 -33 -29 -76q0 -49 37 -86q37 -38 118 -38q108 0 159 75q50 74 80 238l140 747l-4 1q-46 -182 -99 -308t-111 -195q-59 -70 -119 -99q-60 -30 -131 -30q-76 0 -132 32q-57 31 -89 85
q-32 53 -47 117q-16 63 -16 136q0 118 53 245q52 126 137 229q85 102 204 168q118 66 239 66q68 0 146 -22q77 -22 143 -44t107 -22q79 0 123 80z" />
    <glyph glyph-name="h" unicode="h" horiz-adv-x="1192" 
d="M463 434l6 -2q39 150 88 263q48 113 97 182t106 112q56 43 108 59q51 16 109 16q267 0 209 -344l-48 -284q-72 -413 38 -432l-4 -4q-80 -15 -146 -15q-52 0 -94 10q-43 9 -81 32q-39 22 -61 59t-32 92t4 130l80 496q14 80 6 127q-9 46 -47 46q-77 0 -173 -162
q-96 -163 -152 -387q-96 -391 -16 -424l-4 -4q-114 -16 -169 -16q-125 0 -170 68q-45 67 -15 246l188 1146q7 44 -14 59q-22 14 -71 -4l-3 3q59 29 149 54q90 24 157 24q88 0 120 -39t16 -139z" />
    <glyph glyph-name="i" unicode="i" horiz-adv-x="560" 
d="M294 1144q35 54 38 145t-39 153q35 65 97 105q62 39 125 39q65 0 116 -40q50 -40 50 -118q0 -117 -111 -199t-275 -87zM477 426q-37 -225 -36 -309q1 -96 36 -113l-2 -4q-74 -16 -140 -16q-39 0 -72 6q-34 6 -65 21q-31 14 -52 38q-22 23 -37 58q-16 35 -17 82
q-2 47 7 109l104 630q7 44 -14 59q-22 14 -71 -4l-3 3q59 29 149 54q90 24 157 24q87 0 118 -39q30 -39 14 -139z" />
    <glyph glyph-name="j" unicode="j" horiz-adv-x="560" 
d="M202 928q7 44 -14 59q-22 14 -71 -4l-3 3q59 29 149 54q90 24 157 24q87 0 118 -39q30 -39 14 -139l-136 -860q-12 -77 -34 -147q-22 -71 -58 -139t-83 -117q-47 -50 -113 -80q-66 -31 -143 -31q-116 0 -187 61q-72 60 -72 155q0 103 67 157q67 53 159 53q85 0 143 -54
q57 -54 47 -150q-55 3 -86 -21q-31 -25 -31 -68q0 -37 23 -62q22 -26 64 -26q58 0 91 50q33 49 33 120q0 46 -19 89q-20 42 -47 75q-27 32 -52 66q-26 33 -40 77q-14 43 -6 92zM293 1144q35 54 38 145t-39 153q35 65 97 105q62 39 125 39q65 0 116 -40q50 -40 50 -118
q0 -117 -111 -199t-275 -87z" />
    <glyph glyph-name="k" unicode="k" horiz-adv-x="1166" 
d="M1142 1011q58 -54 58 -133q0 -46 -21 -86t-54 -68q-34 -29 -84 -54q-50 -26 -99 -43q-50 -17 -112 -33t-111 -26l-106 -22q-57 -12 -89 -20q105 14 184 14q78 0 129 -11t87 -36q36 -26 56 -55t36 -72q6 -15 20 -57q14 -43 26 -74q11 -32 31 -74q20 -43 40 -72
q20 -30 50 -54t63 -31l-4 -4q-148 -28 -239 -28q-68 0 -122 13q-54 12 -104 43q-51 31 -88 90q-37 58 -57 142q-6 23 -15 72q-10 48 -17 76t-18 60t-25 46q-15 14 -34 11v2q139 35 231 132q92 96 92 227q0 41 -16 66t-45 25q-77 0 -170 -157q-94 -157 -155 -392
q-15 -58 -27 -119t-20 -130q-9 -69 -1 -117q7 -48 32 -58l-4 -4q-114 -16 -171 -16q-61 0 -100 14t-65 50t-28 97q-3 60 10 153l188 1146q7 44 -14 59q-22 14 -71 -4l-3 3q61 29 150 54q88 24 161 24q86 0 118 -41q31 -42 13 -137l-181 -968l6 -2q39 149 87 262
q48 112 97 182q48 70 105 113t111 59q53 16 114 16q117 0 175 -53z" />
    <glyph glyph-name="l" unicode="l" horiz-adv-x="538" 
d="M475 285l-11 -75q-6 -44 -7 -75t1 -61t12 -47q9 -18 25 -23l-4 -4q-80 -16 -138 -16q-283 0 -232 314l184 1146q7 44 -14 59q-22 14 -71 -4l-3 3q59 29 149 54q90 24 157 24q87 0 118 -39q30 -39 14 -139z" />
    <glyph glyph-name="m" unicode="m" horiz-adv-x="1822" 
d="M1097 434l6 -2q39 150 87 263q47 113 94 183q47 69 102 112q55 42 105 58t108 16q50 0 88 -12q38 -13 62 -32q23 -19 38 -49q14 -30 20 -58q5 -29 5 -66t-3 -65t-9 -62l-48 -284q-17 -100 -23 -187q-7 -87 8 -162q15 -76 59 -83l-4 -4q-80 -15 -146 -15t-117 16
q-51 15 -90 51q-40 35 -55 100q-16 65 -2 156l74 496q15 80 10 127q-6 46 -43 46q-76 0 -166 -161q-91 -161 -147 -388q-21 -87 -35 -167q-14 -81 -11 -162q2 -81 36 -95l-4 -4q-114 -16 -169 -16q-125 0 -170 68q-45 67 -15 246l83 506q16 80 10 127q-6 46 -43 46
q-76 0 -166 -161q-91 -161 -147 -388q-96 -391 -16 -424l-4 -4q-114 -16 -169 -16q-62 0 -102 15q-40 14 -66 50q-27 35 -29 96q-2 60 12 153l112 630q8 44 -14 59q-22 14 -71 -4l-3 3q59 29 149 54q90 24 157 24q89 0 124 -40q34 -41 12 -138l-105 -452l6 -2q39 150 87 263
q47 113 94 183q47 69 102 112q55 42 105 58t108 16t100 -15q41 -16 64 -44q22 -28 34 -61t13 -74q0 -42 -4 -76q-4 -35 -13 -74z" />
    <glyph glyph-name="n" unicode="n" 
d="M466 434l6 -2q39 150 88 263q48 113 97 182t106 112q56 43 108 59q51 16 109 16q267 0 209 -344l-48 -284q-72 -413 38 -432l-4 -4q-80 -15 -146 -15q-52 0 -94 10q-43 9 -81 32q-39 22 -61 59t-32 92t4 130l80 496q15 80 6 127q-9 46 -47 46q-77 0 -173 -162
q-96 -163 -152 -387q-96 -391 -16 -424l-4 -4q-114 -16 -169 -16q-62 0 -102 15q-40 14 -66 50q-27 35 -29 96q-2 60 12 153l112 630q8 44 -14 59q-22 14 -71 -4l-3 3q59 29 149 54q90 24 157 24q89 0 124 -40q34 -41 12 -138z" />
    <glyph glyph-name="o" unicode="o" horiz-adv-x="1202" 
d="M1087 939q135 -126 135 -325q0 -123 -53 -238q-53 -116 -141 -201q-88 -86 -210 -137q-122 -52 -253 -52q-214 0 -349 126q-136 126 -136 324q0 170 89 315q88 145 239 229t328 84q215 0 351 -125zM681 60q52 67 84 167q31 99 53 221q22 121 31 223q8 101 8 179
q0 207 -122 207q-62 0 -114 -69t-83 -171q-32 -102 -54 -224q-22 -123 -30 -223q-9 -101 -9 -173q0 -204 121 -204q63 0 115 67z" />
    <glyph glyph-name="p" unicode="p" horiz-adv-x="1208" 
d="M406 -14q-76 -408 4 -432l-4 -4q-61 -8 -116 -8q-42 0 -76 6q-35 5 -69 19q-34 13 -56 36q-23 23 -40 59q-17 35 -18 84q-1 48 7 112l178 1070q8 44 -14 59q-22 14 -71 -4l-3 3q59 29 149 54q90 24 157 24q89 0 124 -40q34 -41 12 -138l-99 -454l8 -2q38 148 82 261
q44 112 89 186q45 73 97 119q51 46 103 65q51 19 110 19q140 0 209 -94q68 -94 68 -244q0 -98 -27 -200q-28 -103 -84 -199q-56 -97 -133 -173t-184 -122t-228 -46q-79 0 -136 18l1 2q88 -3 171 79q82 81 138 207t90 275t34 282q0 75 -13 112q-14 36 -50 36q-57 0 -127 -98
q-70 -99 -126 -245q-56 -147 -84 -293z" />
    <glyph glyph-name="q" unicode="q" 
d="M640 973q-64 -80 -106 -201q-43 -121 -67 -259q-25 -139 -25 -261q0 -67 21 -118t58 -51q58 0 121 91t111 228t74 287l22 122q44 241 -75 241q-70 0 -134 -79zM1066 3q-13 -85 -20 -141q-7 -57 -10 -132t11 -119q14 -45 45 -57l-4 -4q-56 -7 -140 -7q-52 0 -95 10t-81 33
q-39 23 -60 61q-22 38 -31 93t7 130l140 747l-4 1q-46 -182 -99 -308t-111 -195q-59 -70 -119 -99q-60 -30 -131 -30q-76 0 -132 32q-57 31 -89 85q-32 53 -47 117q-16 63 -16 136q0 118 53 245q52 126 137 229q85 102 204 168q118 66 239 66q68 0 146 -22q77 -22 143 -44
t107 -22q79 0 123 80z" />
    <glyph glyph-name="r" unicode="r" horiz-adv-x="1088" 
d="M879 991q-20 31 -60 31q-60 0 -127 -86t-122 -221t-89 -287q-17 -78 -26 -125q-10 -47 -20 -123q-11 -76 -3 -120q7 -45 33 -56l-4 -4q-77 -16 -134 -16q-50 0 -88 9t-71 31q-33 21 -50 57t-23 90q-6 53 9 127l112 630q8 44 -14 59q-22 14 -71 -4l-3 3q59 29 149 54
q90 24 157 24q89 0 124 -40q34 -41 12 -138l-107 -452l6 -2q40 152 85 266q44 113 88 186q44 72 95 117q50 44 99 62q49 17 106 17q119 0 185 -67q65 -68 65 -165q0 -107 -75 -187q-76 -81 -203 -81q-74 0 -123 46q-49 45 -41 130q59 0 104 45q44 45 44 118q0 41 -19 72z
" />
    <glyph glyph-name="s" unicode="s" horiz-adv-x="1070" 
d="M322 -9q-51 5 -105 20q-55 14 -95 37q-40 22 -66 61q-26 38 -26 87q0 77 53 135q53 57 133 57q64 0 108 -38q44 -39 36 -108q-43 -15 -68 -51q-26 -37 -26 -81q0 -53 39 -85t140 -32q50 0 101 8t101 25q49 17 80 49t31 74q0 43 -34 79q-35 35 -90 61t-121 52
q-67 25 -133 56q-67 30 -122 67q-55 36 -89 92q-35 55 -35 124q0 99 51 176q51 76 135 120t181 66q96 22 199 22q64 0 124 -9t118 -28q58 -20 93 -59q35 -40 35 -94q0 -70 -47 -121t-119 -51q-55 0 -92 36t-30 98q35 13 59 43q23 29 23 65q0 52 -48 83q-49 30 -136 30
q-110 0 -174 -46q-64 -47 -64 -112q0 -44 34 -78t88 -57t120 -45q65 -22 131 -49q65 -28 119 -63t88 -92q34 -58 34 -132q0 -77 -37 -143q-37 -67 -99 -112q-62 -46 -144 -78q-82 -33 -171 -48q-89 -16 -180 -16q-53 0 -103 5z" />
    <glyph glyph-name="t" unicode="t" horiz-adv-x="580" 
d="M488 436q-67 -414 38 -432l-4 -4q-80 -15 -146 -15t-117 16t-91 51t-55 100t-1 156l115 736h-85l1 6h27q91 1 155 11q64 9 119 34q55 24 92 67t65 109q27 65 44 159h6l-63 -380h138l-1 -6h-138z" />
    <glyph glyph-name="u" unicode="u" horiz-adv-x="1208" 
d="M444 244q-14 -80 -1 -126q13 -47 52 -47q76 0 168 161q91 161 147 388q98 398 16 432l4 4q63 8 169 8q62 0 102 -14q40 -15 67 -50q26 -36 28 -96q2 -61 -12 -154l-56 -314q-14 -77 -21 -142q-8 -66 -10 -137q-2 -72 16 -113q17 -41 53 -40l-3 -4q-64 -14 -142 -14
q-54 0 -97 10q-44 9 -83 31q-40 22 -61 59q-22 37 -30 92q-9 55 9 130l64 306l-6 2q-39 -150 -86 -263q-48 -113 -95 -182q-48 -70 -103 -112q-55 -43 -105 -59q-51 -16 -109 -16q-69 0 -117 24q-48 23 -71 58q-23 34 -32 83q-10 49 -8 91q1 41 9 88l100 600q8 44 -14 59
q-22 14 -71 -4l-3 3q59 29 149 54q90 24 157 24q87 0 118 -39q30 -39 14 -139z" />
    <glyph glyph-name="v" unicode="v" horiz-adv-x="1034" 
d="M477 306q-25 -128 -15 -194q9 -67 69 -67q73 0 168 58t179 147q84 88 142 206q58 117 58 223q0 61 -39 95t-88 35q-49 0 -93 -31q-45 -31 -55 -86q-73 4 -115 53q-43 49 -43 115q0 98 64 159t152 61q99 0 173 -79q73 -80 73 -221q0 -153 -68 -300q-68 -148 -175 -255
q-108 -107 -245 -173t-270 -66q-138 0 -198 74q-60 73 -36 220l104 648q8 44 -14 59q-22 14 -71 -4l-3 3q59 29 149 54q90 24 157 24q87 0 118 -39q30 -39 14 -139z" />
    <glyph glyph-name="w" unicode="w" horiz-adv-x="1676" 
d="M1103 306q-9 -56 -13 -93q-5 -37 -5 -71q0 -35 8 -54q7 -20 23 -31q16 -12 41 -12q73 0 168 58t179 147q84 88 142 206q58 117 58 223q0 61 -39 95t-88 35q-49 0 -93 -31q-45 -31 -55 -86q-73 4 -115 53q-43 49 -43 115q0 98 64 159t152 61q99 0 173 -79q73 -80 73 -221
q0 -153 -68 -300q-68 -148 -175 -255q-108 -107 -245 -173t-270 -66q-140 0 -204 76q-65 75 -30 218l74 334l-6 2q-39 -150 -85 -263q-47 -113 -93 -182q-47 -70 -101 -112q-54 -43 -103 -59q-50 -16 -108 -16q-69 0 -117 24q-48 23 -71 58q-23 34 -32 83q-10 49 -8 91
q1 41 9 88l100 600q8 44 -14 59q-22 14 -71 -4l-3 3q59 29 149 54q90 24 157 24q87 0 118 -39q30 -39 14 -139l-106 -642q-14 -80 -1 -126q13 -47 52 -47q75 0 163 160q87 160 144 389q98 398 16 432l4 4q63 8 169 8q125 0 170 -67q45 -68 15 -247z" />
    <glyph glyph-name="x" unicode="x" horiz-adv-x="1196" 
d="M229 33q27 -25 67 -25q45 0 81 29q35 27 58 70q23 42 34 98t15 98q3 42 5 104l-135 387q-6 19 -14 38l-19 42q-12 24 -25 43t-29 36q-17 17 -34 26q-18 8 -39 7q-22 -1 -43 -15l-3 3q145 90 304 90q114 0 178 -55q63 -56 108 -173l65 -169q20 397 277 397q39 0 76 -9
q37 -10 72 -30t57 -58q21 -39 21 -91q0 -85 -51 -134q-52 -50 -121 -50q-67 0 -111 46q-45 45 -39 110q56 -2 89 30q32 31 32 81q0 63 -49 80t-102 -16q-74 -43 -107 -146q-34 -104 -38 -226l83 -215q95 -244 155 -336q59 -92 141 -96l-4 -4q-116 -22 -201 -22
q-345 0 -463 340l-25 70l-2 -60q-2 -25 -6 -60q-4 -36 -9 -61q-6 -26 -16 -57q-10 -32 -23 -54q-14 -22 -34 -44t-44 -35q-25 -14 -58 -22q-33 -9 -73 -9q-48 0 -91 14q-44 13 -80 39q-36 25 -57 68q-22 43 -22 97q0 88 57 139q56 51 131 51q73 0 123 -49q49 -49 43 -123
q-59 -3 -95 -35q-37 -33 -37 -85q0 -44 27 -69z" />
    <glyph glyph-name="y" unicode="y" horiz-adv-x="1192" 
d="M1068 14q-34 -214 -194 -339t-436 -125q-45 0 -87 4q-42 3 -89 12q-47 8 -85 25q-38 16 -69 40q-31 23 -48 58q-18 35 -18 79q0 83 59 139q59 55 145 55q68 0 118 -45t42 -121q-55 -6 -83 -39q-29 -33 -29 -76q0 -49 37 -86q37 -38 118 -38q57 0 97 20t67 63t44 96
q16 53 31 134l134 744l-6 2q-39 -150 -86 -263q-48 -113 -95 -182q-48 -70 -103 -112q-55 -43 -105 -59q-51 -16 -109 -16q-69 0 -117 24q-48 23 -71 58q-23 34 -32 83q-10 49 -8 91q1 41 9 88l100 600q8 44 -14 59q-22 14 -71 -4l-3 3q59 29 149 54q90 24 157 24
q87 0 118 -39q30 -39 14 -139l-106 -642q-14 -80 -1 -126q13 -47 52 -47q76 0 168 161q91 161 147 388q98 398 16 432l4 4q63 8 169 8q62 0 101 -14t66 -50q26 -36 28 -96q2 -61 -10 -154z" />
    <glyph glyph-name="z" unicode="z" horiz-adv-x="1116" 
d="M884 512q88 -30 143 -102q55 -73 55 -158q0 -46 -17 -91q-17 -46 -49 -86t-86 -64q-55 -25 -122 -25q-62 0 -134 24q-73 23 -138 56t-127 67q-62 33 -120 57q-59 23 -100 23q-37 0 -61 -17t-24 -47q0 -34 32 -45q32 -12 70 10q37 -58 4 -104t-92 -46q-39 0 -68 25
q-30 24 -30 75q0 84 90 132q29 70 93 129q64 58 144 99t171 79l181 73q90 35 167 73t135 90t80 113q-60 -31 -166 -51t-206 -30q-101 -11 -195 -27t-152 -50t-58 -89q0 -26 12 -40t36 -24l-2 -3q-88 30 -143 103q-55 72 -55 157q0 46 17 92q17 45 49 85t87 65q54 24 121 24
q62 0 131 -23q68 -24 128 -57q59 -33 116 -66q56 -34 111 -57q54 -24 95 -24q37 0 61 17t24 47q0 34 -32 46q-32 11 -70 -11q-37 58 -4 104t92 46q39 0 69 -24q29 -25 29 -76q0 -82 -86 -129q-21 -64 -78 -118q-58 -54 -134 -92q-76 -39 -165 -74l-181 -72q-91 -37 -171 -77
q-80 -41 -145 -98t-96 -125q63 31 174 51q110 20 215 30q104 10 203 25q98 15 158 49t60 89q0 26 -12 40t-36 24z" />
    <glyph glyph-name="braceleft" unicode="{" horiz-adv-x="706" 
d="M305 699q40 0 81 -16q40 -16 74 -45q34 -30 51 -80q17 -51 7 -112q-5 -36 -33 -130q-29 -95 -40 -160q-15 -105 -3 -181t66 -118q53 -43 148 -46l-1 -5q-78 4 -142 17q-65 13 -110 33t-80 45q-36 25 -57 55q-21 29 -34 58q-14 29 -19 60t-5 56t4 50q9 54 39 113
q29 58 60 99t59 92q28 50 35 90q9 62 -25 93q-34 30 -92 30h-52l1 6h52q58 0 102 31q44 30 53 92q7 40 -5 91q-13 50 -31 91t-29 100q-11 58 -2 112q7 42 24 84q16 41 58 93q41 52 100 92q58 40 157 70q98 29 222 35l-1 -5q-142 -4 -217 -92q-76 -88 -102 -253
q-11 -67 -12 -162q-2 -95 -7 -128q-10 -61 -43 -111q-33 -51 -76 -80q-43 -30 -88 -46q-46 -16 -86 -16z" />
    <glyph glyph-name="bar" unicode="|" horiz-adv-x="475" 
d="M483 1578h10l-279 -1760h-10z" />
    <glyph glyph-name="braceright" unicode="}" horiz-adv-x="705" 
d="M622 701q-40 0 -80 16q-41 16 -75 46q-34 29 -51 80q-17 50 -7 111q5 36 34 131q28 94 39 159q15 105 3 181t-65 119q-54 42 -149 45l1 5q78 -4 143 -17q64 -13 109 -33t81 -45q35 -25 56 -54q21 -30 35 -59q13 -29 18 -60t5 -56t-4 -50q-9 -54 -38 -112
q-30 -59 -61 -100t-59 -91q-28 -51 -35 -91q-9 -62 25 -92q34 -31 92 -31h52l-1 -6h-52q-58 0 -102 -30q-44 -31 -53 -93q-7 -40 6 -90q12 -51 30 -92t29 -99q11 -59 2 -113q-7 -42 -23 -83q-17 -42 -58 -94q-42 -52 -100 -92q-59 -40 -157 -69q-99 -30 -222 -36l1 5
q141 4 217 92q75 88 101 253q11 67 13 162q1 95 6 128q10 61 43 112q33 50 76 80q43 29 89 45q45 16 85 16z" />
    <glyph glyph-name="asciitilde" unicode="~" horiz-adv-x="876" 
d="M144 604q55 90 103 123t100 33q43 0 84 -18t75 -43q34 -26 69 -51q34 -26 77 -44q42 -18 86 -18q107 0 196 142l8 -4q-53 -85 -103 -116q-50 -32 -103 -32q-44 0 -87 18t-77 44l-69 51q-35 25 -76 43t-82 18q-50 0 -95 -31q-45 -32 -97 -119z" />
    <glyph glyph-name="uni00A0" unicode="&#xa0;" horiz-adv-x="406" 
 />
    <glyph glyph-name="exclamdown" unicode="&#xa1;" horiz-adv-x="591" 
d="M22 -122q0 53 16 99q16 45 42 81t59 72q32 35 67 78q34 43 65 93q31 49 57 123t38 162h6q-16 -119 -9 -193q7 -75 30 -138t48 -103t45 -89q19 -50 19 -98q0 -62 -24 -118q-25 -57 -71 -105q-46 -49 -91 -85q-46 -36 -109 -77q-188 149 -188 298zM271 726q-45 45 -45 114
q0 87 65 156q65 68 154 68q69 0 114 -46q44 -46 44 -116q0 -86 -65 -154t-154 -68q-69 0 -113 46z" />
    <glyph glyph-name="cent" unicode="&#xa2;" horiz-adv-x="1073" 
d="M240 925q79 143 216 228q137 84 304 93l41 256h6l-41 -255l34 1q63 0 123 -12t117 -38t92 -76t35 -118q0 -106 -61 -163q-62 -57 -145 -57q-67 0 -106 44q-40 43 -30 124q38 18 62 59q24 40 24 91q0 59 -30 99q-31 40 -89 40q-11 0 -27 -2l-121 -766q75 -61 175 -61
q78 0 160 36q81 36 139 112l5 -2q-98 -167 -229 -271q-132 -105 -298 -116l-40 -253h-6l40 253q-11 -1 -31 -1q-175 0 -287 120t-112 317q0 174 80 318zM638 477l121 761q-64 -12 -113 -71q-50 -60 -75 -137q-25 -78 -37 -145t-12 -114q0 -195 116 -294z" />
    <glyph glyph-name="sterling" unicode="&#xa3;" horiz-adv-x="1258" 
d="M739 1351q-40 -57 -58 -169q-2 -9 -22 -164q-21 -156 -41 -264h327l-1 -7h-327q-48 -259 -108 -422q72 -3 230 -16t225 -13q147 0 231 75q83 74 123 229h4q-59 -300 -193 -457q-135 -157 -328 -157q-42 0 -82 10q-41 10 -81 31q-41 20 -69 38q-28 17 -72 48l-67 44
q-105 -171 -242 -171q-66 0 -104 32q-38 31 -38 83q0 57 23 99q22 42 65 68q42 25 94 38t120 18q-6 76 -28 230q-23 153 -28 193h-103l1 7h101q-11 91 -11 164q0 93 33 175q33 81 89 139t129 100q73 41 154 62q80 20 161 20q70 0 141 -11q70 -11 144 -36t121 -76
q46 -52 46 -124q0 -97 -66 -157t-148 -60q-70 0 -113 44q-43 43 -34 124q39 17 64 57q25 39 25 84q0 64 -47 106q-48 42 -122 42q-78 0 -118 -56zM306 47q38 54 44 154q-67 31 -129 31q-69 0 -119 -35t-50 -95q0 -50 37 -79q37 -30 96 -30q83 0 121 54z" />
    <glyph glyph-name="currency" unicode="&#xa4;" horiz-adv-x="1274" 
d="M202 144l152 134q-68 88 -79 205q-11 116 37 233q47 116 142 204l-108 136l16 14l110 -136q148 130 330 130t292 -130l152 136l12 -14l-154 -136q70 -88 82 -204q11 -117 -37 -233q-48 -117 -145 -205l110 -134l-16 -14l-110 134q-150 -129 -332 -129t-290 129l-152 -134
zM551 171q106 -30 222 0t211 115t143 200q48 114 37 229q-11 114 -80 199t-175 115t-222 0t-211 -115t-143 -199q-48 -115 -37 -229q11 -115 80 -200t175 -115z" />
    <glyph glyph-name="yen" unicode="&#xa5;" horiz-adv-x="1623" 
d="M1068 536h271l-1 -7h-271l-27 -167h271l-1 -7h-271q-14 -86 -18 -127q-5 -41 -3 -94t20 -74q18 -22 56 -38q37 -17 99 -17l-1 -5h-800l1 5q34 0 63 5q28 5 50 12q21 7 40 23q18 16 31 30q12 13 24 40q11 27 18 46q6 19 14 57l13 64l11 73h-270l1 7h270l27 167h-270l1 7
h270l5 32l-214 574q-27 72 -47 115q-21 42 -49 76q-29 34 -64 48q-36 14 -87 14l1 5h828l-1 -5q-31 0 -55 -6q-25 -7 -41 -16q-17 -9 -27 -26t-16 -30q-6 -14 -5 -38q0 -25 1 -40q0 -15 7 -43q6 -28 10 -40q3 -13 11 -41l134 -475l188 279q38 56 66 101q27 44 53 91
q26 46 39 82q12 35 19 69q6 33 -2 57q-9 23 -28 41q-20 18 -56 27q-36 8 -88 8l1 5h566l-1 -5q-76 0 -143 -28q-67 -29 -136 -95t-132 -147t-150 -211l-190 -284z" />
    <glyph glyph-name="brokenbar" unicode="&#xa6;" horiz-adv-x="475" 
d="M483 1578h10l-128 -810h-10zM332 628h10l-128 -810h-10z" />
    <glyph glyph-name="section" unicode="&#xa7;" horiz-adv-x="1183" 
d="M1173 587q-41 -74 -108 -124q-67 -51 -150 -83t-172 -41l73 -31q27 -12 69 -33q41 -21 67 -39t57 -44q30 -26 47 -53t29 -61q11 -35 11 -73q0 -94 -48 -169q-49 -76 -127 -122t-169 -70q-92 -24 -185 -24q-60 0 -117 9q-57 8 -111 27q-55 18 -88 55t-33 87q0 62 42 110
q41 48 105 48q48 0 76 -31q28 -32 22 -91q-26 -12 -44 -40t-18 -59q0 -45 45 -76q45 -32 121 -32q79 0 150 45t71 123q0 38 -33 69t-85 54t-115 46q-64 23 -127 51q-64 28 -116 63t-85 89q-33 53 -33 120q0 69 27 131q26 62 71 108t105 82t128 58q67 21 138 28
q-46 19 -72 31q-27 12 -69 34q-43 21 -68 39q-25 17 -55 44q-31 26 -48 53q-17 26 -28 61q-12 35 -12 73q0 94 49 170q48 75 126 121t170 70q91 24 184 24q60 0 117 -8q57 -9 112 -27q54 -19 87 -56t33 -87q0 -62 -41 -110q-42 -48 -106 -48q-48 0 -76 32q-28 31 -22 90
q26 12 44 40t18 59q0 45 -45 77q-45 31 -121 31q-49 0 -98 -17t-86 -57t-37 -94q0 -38 33 -69t85 -54t116 -46q63 -23 127 -51q63 -28 115 -63t85 -88q33 -54 33 -121q0 -86 -40 -160zM901 553q-14 21 -32 37t-53 35q-36 19 -62 31l-74 31q-73 -14 -130 -55
q-57 -42 -57 -105q0 -24 14 -46t31 -37q17 -16 54 -35q37 -20 61 -31t74 -32q74 15 131 57q56 42 56 104q0 24 -13 46z" />
    <glyph glyph-name="dieresis" unicode="&#xa8;" horiz-adv-x="0" 
d="M321 1340q25 -27 25 -66q0 -50 -37 -86q-38 -36 -87 -36q-38 0 -63 27q-26 26 -26 66q0 49 38 85t85 36q39 0 65 -26zM717 1340q25 -27 25 -66q0 -50 -37 -86q-38 -36 -87 -36q-38 0 -63 27q-26 26 -26 66q0 49 38 85t85 36q39 0 65 -26z" />
    <glyph glyph-name="copyright" unicode="&#xa9;" horiz-adv-x="1552" 
d="M241 854q43 121 120 218t177 172q99 74 219 115q119 41 240 41q124 0 232 -47q108 -48 184 -129q75 -82 118 -194t43 -237q0 -126 -43 -247t-120 -218t-176 -171q-100 -75 -219 -116q-120 -41 -241 -41q-124 0 -232 48q-108 47 -183 129q-76 81 -119 193t-43 237
q0 126 43 247zM278 304q72 -137 203 -217t294 -80q150 0 295 64q145 63 254 169t176 252t67 301q0 166 -72 303q-73 137 -204 217t-294 80q-150 0 -295 -63q-145 -64 -254 -170t-176 -252t-67 -301q0 -166 73 -303zM494 910q84 121 218 188q133 66 282 66q99 0 197 -28
l98 26l-39 -364h-5q3 50 0 96q-4 46 -19 96q-16 49 -42 85t-73 59t-110 23q-236 0 -309 -457t164 -457q61 0 115 23q53 23 91 59t70 85q31 49 50 96t32 96h5l-76 -364l-91 26q-97 -28 -205 -28q-187 0 -312 114q-126 113 -126 291q0 147 85 269z" />
    <glyph glyph-name="ordfeminine" unicode="&#xaa;" horiz-adv-x="896" 
d="M573 762q42 47 45 64l68 423q15 85 4 122q-12 36 -62 36q-57 0 -106 -84q-50 -84 -77 -205q-27 -122 -27 -240q0 -164 80 -164q32 0 75 48zM869 823q-18 -107 28 -107q26 0 55 39q28 39 35 88h5q-13 -87 -80 -137t-145 -50q-32 0 -56 6q-25 6 -47 22q-23 15 -35 48
t-12 82q-42 -74 -108 -114t-145 -40q-92 0 -151 72q-59 71 -59 187q0 83 35 171q34 88 92 160t143 118t178 46q65 0 140 -32q74 -33 110 -33q62 0 108 60z" />
    <glyph glyph-name="guillemotleft" unicode="&#xab;" horiz-adv-x="875" 
d="M627 926l4 -4l-351 -390l228 -390l-6 -4l-322 394zM922 926l3 -4l-350 -390l227 -390l-5 -4l-323 394z" />
    <glyph glyph-name="logicalnot" unicode="&#xac;" horiz-adv-x="934" 
d="M990 660l-59 -370h-10l57 360h-828l2 10h838z" />
    <glyph glyph-name="uni00AD" unicode="&#xad;" horiz-adv-x="725" 
d="M780 645h-630l1 10h630z" />
    <glyph glyph-name="registered" unicode="&#xae;" horiz-adv-x="1552" 
d="M241 854q43 121 120 218t177 172q99 74 219 115q119 41 240 41q124 0 232 -47q108 -48 184 -129q75 -82 118 -194t43 -237q0 -126 -43 -247t-120 -218t-176 -171q-100 -75 -219 -116q-120 -41 -241 -41q-124 0 -232 48q-108 47 -183 129q-76 81 -119 193t-43 237
q0 126 43 247zM813 708q55 0 92 19t60 59q22 40 34 85q11 44 20 113t-28 114q-38 45 -109 45h-35l-69 -435h35zM350 247q26 0 47 6q20 5 34 12t26 25q11 18 18 31t14 44q7 30 10 50l93 587q3 25 3 36v29q0 18 -3 25q-4 7 -8 19q-5 12 -13 17q-9 4 -19 10q-11 6 -26 8
q-15 1 -33 1v5h427q31 -1 80 -5t82 -11q32 -7 69 -20q37 -14 59 -33q22 -20 37 -50t15 -68q0 -60 -25 -106q-26 -47 -64 -74q-39 -27 -92 -45t-98 -25q-46 -7 -96 -9l-1 -4q50 0 89 -6t67 -14q27 -8 49 -26q22 -19 36 -35q13 -16 26 -46q12 -31 19 -53t18 -64
q56 -211 59 -220q-78 -4 -113 -4q-34 0 -56 1q-22 0 -43 5t-32 9q-11 3 -23 18q-12 14 -17 24q-6 10 -13 37q-8 26 -11 46l-12 62l-16 107q-4 23 -13 56q-9 32 -21 52t-32 35q-20 14 -46 14h-25l-35 -224l-10 -71q-4 -24 -6 -56t2 -46q4 -15 13 -30t25 -20q16 -6 41 -6
l-1 -5h-456zM278 304q72 -137 203 -217t294 -80q150 0 295 64q145 63 254 169t176 252t67 301q0 166 -72 303q-73 137 -204 217t-294 80q-150 0 -295 -63q-145 -64 -254 -170t-176 -252t-67 -301q0 -166 73 -303z" />
    <glyph glyph-name="macron" unicode="&#xaf;" horiz-adv-x="0" 
d="M750 1220h-636l1 7h636z" />
    <glyph glyph-name="degree" unicode="&#xb0;" horiz-adv-x="592" 
d="M289 1322q94 92 215 92q97 0 161 -68q63 -68 63 -168q0 -124 -94 -215t-216 -91q-97 0 -160 68q-63 67 -63 166q0 123 94 216zM263 945q61 -66 155 -66q119 0 211 89t92 210q0 97 -61 163q-62 66 -156 66q-118 0 -210 -90q-92 -91 -92 -211q0 -96 61 -161z" />
    <glyph glyph-name="plusminus" unicode="&#xb1;" horiz-adv-x="1048" 
d="M612 595h-422l2 10h421l70 435h10l-69 -435h422l-2 -10h-422l-69 -435h-10zM952 10l-2 -10h-854l2 10h854z" />
    <glyph glyph-name="uni00B2" unicode="&#xb2;" horiz-adv-x="791" 
d="M487 501q-81 21 -147 42q-67 21 -135 32t-86 -9q-9 -37 -12 -76h-7q5 67 28 126t52 100q28 40 75 82q46 41 82 66q35 25 89 60l28 18q229 147 229 341q0 53 -23 87q-24 33 -75 33q-72 0 -110 -43q-39 -43 -39 -104q0 -51 36 -72q-12 -60 -53 -92t-91 -32q-47 0 -78 30
q-32 29 -32 85q0 57 28 102q28 44 69 69q40 24 94 40q54 15 97 20q42 4 82 4q351 0 351 -197q0 -68 -31 -122t-87 -90q-57 -37 -117 -59q-60 -23 -137 -42l-95 -23l-44 -12q-34 -9 -48 -15l-42 -17q-27 -11 -43 -21q-17 -11 -37 -26q-21 -15 -37 -32q60 46 151 46
q61 0 186 -39q124 -39 192 -39q116 0 141 75l4 -1q-17 -53 -32 -92q-16 -39 -41 -84q-26 -45 -54 -73q-28 -29 -69 -48t-89 -19q-43 0 -123 21z" />
    <glyph glyph-name="uni00B3" unicode="&#xb3;" horiz-adv-x="836" 
d="M440 987l1 7h35q97 0 156 86t59 197q0 126 -99 126q-66 0 -100 -43t-34 -89q0 -47 34 -65q-11 -53 -48 -80q-37 -28 -82 -28q-43 0 -72 25t-29 75q0 62 34 107q33 44 88 66q55 21 108 30t108 9q341 0 341 -174q0 -219 -420 -243v-2q54 0 105 -5q50 -5 107 -20
q56 -15 97 -38q40 -24 67 -65t27 -95q0 -139 -124 -213q-124 -75 -356 -75q-45 0 -90 8q-46 7 -98 25t-84 57q-33 39 -33 95q0 79 47 122t108 43q51 0 81 -32q29 -32 23 -92q-64 -30 -64 -107q0 -49 31 -80q31 -32 85 -32q65 0 112 47q47 46 67 107t20 124q0 90 -42 156
t-125 66h-41z" />
    <glyph glyph-name="acute" unicode="&#xb4;" horiz-adv-x="0" 
d="M256 1146q125 83 244 175l172 132q53 41 68 41q27 0 27 -27l-509 -325z" />
    <glyph glyph-name="uni00B5" unicode="&#xb5;" horiz-adv-x="1290" 
d="M932 1030q172 -8 362 20l-132 -831q-24 -158 40 -158q37 0 79 59q42 58 52 128h5q-12 -84 -64 -146q-52 -63 -119 -92q-68 -30 -139 -30q-36 0 -65 5q-29 4 -58 19q-29 14 -48 39q-20 24 -32 66q-12 41 -11 97q-58 -102 -167 -161q-110 -59 -227 -59q-108 0 -178 56
q-71 56 -73 168l-104 -660h-6l195 1236q3 18 4 28l4 28q2 18 2 29l-2 26q-1 15 -5 24q-5 9 -11 18q-7 9 -18 13t-25 4q-30 0 -108 -56l-3 4q86 66 187 109t197 43q180 0 144 -220l-80 -504q-5 -30 -7 -49q-3 -20 -6 -57t1 -61q4 -25 12 -51q7 -26 26 -39q19 -14 46 -14
q37 0 76 22t66 52q26 29 44 54q17 24 18 33z" />
    <glyph glyph-name="paragraph" unicode="&#xb6;" horiz-adv-x="1082" 
d="M565 382q-158 -18 -263 58q-106 76 -106 216q0 95 40 172q40 76 109 124q68 48 155 73q86 25 183 25h531l-1 -7h-224l-236 -1493h-7l236 1493h-305l-236 -1493h-7z" />
    <glyph glyph-name="periodcentered" unicode="&#xb7;" horiz-adv-x="529" 
d="M547 1018q44 -46 44 -116q0 -84 -65 -153q-66 -69 -154 -69q-69 0 -113 46q-45 45 -45 114q0 85 65 155q65 69 154 69q69 0 114 -46z" />
    <glyph glyph-name="cedilla" unicode="&#xb8;" horiz-adv-x="0" 
d="M-191 -339q15 -22 50 -36q35 -15 76 -15q80 0 125 38q44 37 44 89q0 47 -41 83q-42 36 -118 45q39 65 59 130l8 -1q-19 -60 -55 -122q74 -9 114 -46t40 -87q0 -56 -47 -96q-47 -41 -131 -41q-43 0 -79 16q-36 15 -51 38z" />
    <glyph glyph-name="uni00B9" unicode="&#xb9;" horiz-adv-x="648" 
d="M136 490l1 5q26 0 46 3t36 12t28 17q11 8 20 27l15 31q5 12 11 40l9 45l77 486q-71 -77 -153 -124l-3 6q98 56 180 156q81 100 135 206h138l-114 -724q-3 -16 -6 -41q-3 -26 -2 -38l3 -30q1 -19 7 -27q5 -8 14 -19q8 -11 22 -15q13 -4 31 -7q17 -4 40 -4l-1 -5h-534z" />
    <glyph glyph-name="ordmasculine" unicode="&#xba;" horiz-adv-x="850" 
d="M895 1326q95 -88 95 -227q0 -115 -62 -216q-63 -101 -169 -162q-107 -61 -229 -61q-150 0 -245 88t-95 227q0 119 62 221q62 101 168 160q105 58 229 58q151 0 246 -88zM627 736q42 68 64 170q22 101 33 194q10 93 10 164q0 143 -85 143q-54 0 -96 -71t-64 -174t-32 -196
q-11 -93 -11 -159q0 -140 84 -140q54 0 97 69z" />
    <glyph glyph-name="guillemotright" unicode="&#xbb;" horiz-adv-x="876" 
d="M866 532l-448 -394l-4 4l352 390l-229 390l6 4zM572 532l-449 -394l-3 4l351 390l-228 390l5 4z" />
    <glyph glyph-name="onequarter" unicode="&#xbc;" horiz-adv-x="2136" 
d="M496 0l1223 1400h9l-1223 -1400h-9zM187 490l1 5q26 0 46 3t36 12t28 17q11 8 20 27l15 31q5 12 11 40l9 45l77 486q-71 -77 -153 -124l-3 6q98 56 180 156q81 100 135 206h138l-114 -724q-3 -16 -6 -41q-3 -26 -2 -38l3 -30q1 -19 7 -27q5 -8 14 -19q8 -11 22 -15
q13 -4 31 -7q17 -4 40 -4l-1 -5h-534zM1264 270q66 17 165 78t181 145q82 83 82 147q0 38 -25 58q-26 20 -62 20q-72 0 -106 -60q-51 2 -77 32q-27 30 -27 76q0 60 43 107t120 47t113 -60q35 -60 35 -154q0 -109 -43 -234q-43 -126 -91 -200h101l64 406q90 98 159 232h138
l-101 -638h138l-2 -10h-138l-4 -28q-18 -122 -13 -157q8 -56 66 -68q20 -4 46 -4v-5h-532v5q34 0 59 6q24 5 42 20q17 15 28 31q11 15 20 46q8 31 13 56l15 98h-408z" />
    <glyph glyph-name="onehalf" unicode="&#xbd;" horiz-adv-x="2092" 
d="M495 0l1223 1400h10l-1223 -1400h-10zM187 490l1 5q26 0 46 3t36 12t28 17q11 8 20 27l15 31q5 12 11 40l9 45l77 486q-71 -77 -153 -124l-3 6q98 56 180 156q81 100 135 206h138l-114 -724q-3 -16 -6 -41q-3 -26 -2 -38l3 -30q1 -19 7 -27q5 -8 14 -19q8 -11 22 -15
q13 -4 31 -7q17 -4 40 -4l-1 -5h-534zM1624 11q-81 21 -147 42q-67 21 -135 32t-86 -9q-9 -37 -12 -76h-7q5 67 28 126t52 100q28 40 75 82q46 41 82 66q35 25 89 60l28 18q229 147 229 341q0 53 -23 87q-24 33 -75 33q-72 0 -110 -43q-39 -43 -39 -104q0 -51 36 -72
q-12 -60 -53 -92t-91 -32q-47 0 -78 30q-32 29 -32 85q0 57 28 102q28 44 69 69q40 24 94 40q54 15 97 20q42 4 82 4q351 0 351 -197q0 -68 -31 -122t-87 -90q-57 -37 -117 -59q-60 -23 -137 -42l-95 -23l-44 -12q-34 -9 -48 -15l-42 -17q-27 -11 -43 -21q-17 -11 -37 -26
q-21 -15 -37 -32q60 46 151 46q61 0 186 -39q124 -39 192 -39q116 0 141 75l4 -1q-17 -53 -32 -92q-16 -39 -41 -84q-26 -45 -54 -73q-28 -29 -69 -48t-89 -19q-43 0 -123 21z" />
    <glyph glyph-name="threequarters" unicode="&#xbe;" horiz-adv-x="2206" 
d="M604 0l1223 1400h9l-1223 -1400h-9zM1371 270q66 17 165 78t181 145q82 83 82 147q0 38 -25 58q-26 20 -62 20q-72 0 -106 -60q-51 2 -77 32q-27 30 -27 76q0 60 43 107t120 47t113 -60q35 -60 35 -154q0 -109 -43 -234q-43 -126 -91 -200h101l64 406q90 98 159 232h138
l-101 -638h138l-2 -10h-138l-4 -28q-18 -122 -13 -157q8 -56 66 -68q20 -4 46 -4v-5h-532v5q34 0 59 6q24 5 42 20q17 15 28 31q11 15 20 46q8 31 13 56l15 98h-408zM501 987l1 7h35q97 0 156 86t59 197q0 126 -99 126q-66 0 -100 -43t-34 -89q0 -47 34 -65q-11 -53 -48 -80
q-37 -28 -82 -28q-43 0 -72 25t-29 75q0 62 34 107q33 44 88 66q55 21 108 30t108 9q341 0 341 -174q0 -219 -420 -243v-2q54 0 105 -5q50 -5 107 -20q56 -15 97 -38q40 -24 67 -65t27 -95q0 -139 -124 -213q-124 -75 -356 -75q-45 0 -90 8q-46 7 -98 25t-84 57
q-33 39 -33 95q0 79 47 122t108 43q51 0 81 -32q29 -32 23 -92q-64 -30 -64 -107q0 -49 31 -80q31 -32 85 -32q65 0 112 47q47 46 67 107t20 124q0 90 -42 156t-125 66h-41z" />
    <glyph glyph-name="questiondown" unicode="&#xbf;" horiz-adv-x="1145" 
d="M406 -355q-67 9 -135 31q-69 22 -121 55q-53 32 -86 84q-34 52 -34 116q0 74 34 136t90 106q55 43 122 80t136 68q68 31 126 62q58 30 98 68q39 38 46 81q6 38 -16 80l6 4q27 -43 20 -88q-4 -25 -33 -67l-66 -98q-38 -55 -75 -124q-38 -70 -63 -170q-26 -101 -26 -213
q0 -107 38 -160t108 -53q85 0 138 71q52 71 52 162q0 72 -53 106q19 93 81 143q62 49 140 49q72 0 121 -43q49 -44 49 -126q0 -80 -36 -145q-37 -65 -94 -106q-58 -41 -134 -68q-77 -28 -152 -39t-150 -11q-65 0 -131 9zM562 726q-45 45 -45 114q0 87 65 156q65 68 154 68
q69 0 114 -46q44 -46 44 -116q0 -86 -65 -154t-154 -68q-69 0 -113 46z" />
    <glyph glyph-name="Agrave" unicode="&#xc0;" horiz-adv-x="2238" 
d="M1986 356q59 -188 119 -269q60 -82 159 -82l-1 -5h-837v5q66 0 106 28q40 27 52 76q12 48 8 105q-5 56 -24 124l-44 156h-325q-188 -339 -362 -497q-171 -156 -369 -156q-216 0 -342 95q-126 94 -126 284q0 171 116 276q116 104 287 104q101 0 192 -36q90 -36 151 -110
q60 -74 60 -170q0 -103 -72 -174q-72 -72 -188 -72q-89 0 -145 63q-57 63 -31 151q72 2 122 56q50 53 50 131q0 75 -46 115q-46 39 -114 39q-127 0 -213 -106q-87 -106 -87 -263q0 -171 105 -273q104 -103 281 -103q197 0 366 154q46 42 93 97q46 54 86 107q39 53 86 131
t81 136q33 58 81 155l77 156q28 58 78 170l75 167l77 177q52 121 74 170zM1406 913q-111 -243 -203 -412h319zM1690 1558l-425 215q0 31 37 31q17 0 62 -31q44 -32 137 -94q92 -63 192 -117z" />
    <glyph glyph-name="Aacute" unicode="&#xc1;" horiz-adv-x="2238" 
d="M1986 356q59 -188 119 -269q60 -82 159 -82l-1 -5h-837v5q66 0 106 28q40 27 52 76q12 48 8 105q-5 56 -24 124l-44 156h-325q-188 -339 -362 -497q-171 -156 -369 -156q-216 0 -342 95q-126 94 -126 284q0 171 116 276q116 104 287 104q101 0 192 -36q90 -36 151 -110
q60 -74 60 -170q0 -103 -72 -174q-72 -72 -188 -72q-89 0 -145 63q-57 63 -31 151q72 2 122 56q50 53 50 131q0 75 -46 115q-46 39 -114 39q-127 0 -213 -106q-87 -106 -87 -263q0 -171 105 -273q104 -103 281 -103q197 0 366 154q46 42 93 97q46 54 86 107q39 53 86 131
t81 136q33 58 81 155l77 156q28 58 78 170l75 167l77 177q52 121 74 170zM1406 913q-112 -247 -204 -412h320zM1604 1562q117 54 230 117q112 62 167 94q54 31 71 31q28 0 28 -24l-494 -222z" />
    <glyph glyph-name="Acircumflex" unicode="&#xc2;" horiz-adv-x="2238" 
d="M1986 356q59 -188 119 -269q60 -82 159 -82l-1 -5h-837v5q66 0 106 28q40 27 52 76q12 48 8 105q-5 56 -24 124l-44 156h-325q-188 -339 -362 -497q-171 -156 -369 -156q-216 0 -342 95q-126 94 -126 284q0 171 116 276q116 104 287 104q101 0 192 -36q90 -36 151 -110
q60 -74 60 -170q0 -103 -72 -174q-72 -72 -188 -72q-89 0 -145 63q-57 63 -31 151q72 2 122 56q50 53 50 131q0 75 -46 115q-46 39 -114 39q-127 0 -213 -106q-87 -106 -87 -263q0 -171 105 -273q104 -103 281 -103q197 0 366 154q46 42 93 97q46 54 86 107q39 53 86 131
t81 136q33 58 81 155l77 156q28 58 78 170l75 167l77 177q52 121 74 170zM1406 913q-112 -247 -204 -412h320zM1960 1534l-4 -4l-269 184l-329 -184l-2 4l341 246z" />
    <glyph glyph-name="Atilde" unicode="&#xc3;" horiz-adv-x="2238" 
d="M1986 356q59 -188 119 -269q60 -82 159 -82l-1 -5h-837v5q66 0 106 28q40 27 52 76q12 48 8 105q-5 56 -24 124l-44 156h-325q-188 -339 -362 -497q-171 -156 -369 -156q-216 0 -342 95q-126 94 -126 284q0 171 116 276q116 104 287 104q101 0 192 -36q90 -36 151 -110
q60 -74 60 -170q0 -103 -72 -174q-72 -72 -188 -72q-89 0 -145 63q-57 63 -31 151q72 2 122 56q50 53 50 131q0 75 -46 115q-46 39 -114 39q-127 0 -213 -106q-87 -106 -87 -263q0 -171 105 -273q104 -103 281 -103q197 0 366 154q46 42 93 97q46 54 86 107q39 53 86 131
t81 136q33 58 81 155l77 156q28 58 78 170l75 167l77 177q52 121 74 170zM1406 913q-112 -247 -204 -412h320zM2048 1718q-55 -87 -97 -117q-43 -31 -93 -31q-44 0 -86 18q-43 18 -77 44q-34 25 -67 51q-34 25 -74 43q-41 18 -83 18q-47 0 -86 -31q-40 -31 -94 -119l-6 3
q56 91 97 123q41 31 90 31q43 0 84 -18t75 -43l67 -51q33 -26 75 -44t86 -18q48 0 89 30q40 29 95 114z" />
    <glyph glyph-name="Adieresis" unicode="&#xc4;" horiz-adv-x="2238" 
d="M1986 356q59 -188 119 -269q60 -82 159 -82l-1 -5h-837v5q66 0 106 28q40 27 52 76q12 48 8 105q-5 56 -24 124l-44 156h-325q-188 -339 -362 -497q-171 -156 -369 -156q-216 0 -342 95q-126 94 -126 284q0 171 116 276q116 104 287 104q101 0 192 -36q90 -36 151 -110
q60 -74 60 -170q0 -103 -72 -174q-72 -72 -188 -72q-89 0 -145 63q-57 63 -31 151q72 2 122 56q50 53 50 131q0 75 -46 115q-46 39 -114 39q-127 0 -213 -106q-87 -106 -87 -263q0 -171 105 -273q104 -103 281 -103q197 0 366 154q46 42 93 97q46 54 86 107q39 53 86 131
t81 136q33 58 81 155l77 156q28 58 78 170l75 167l77 177q52 121 74 170zM1406 913q-112 -247 -204 -412h320zM1953 1741q25 -27 25 -65q0 -50 -36 -86q-37 -36 -86 -36q-38 0 -63 27t-25 67q0 47 38 84q37 36 84 36q38 0 63 -27zM1557 1741q25 -27 25 -65q0 -50 -36 -86
q-37 -36 -86 -36q-38 0 -63 27t-25 67q0 47 38 84q37 36 84 36q38 0 63 -27z" />
    <glyph glyph-name="Aring" unicode="&#xc5;" horiz-adv-x="2238" 
d="M1986 356q59 -188 119 -269q60 -82 159 -82l-1 -5h-837v5q66 0 106 28q40 27 52 76q12 48 8 105q-5 56 -24 124l-44 156h-325q-188 -339 -362 -497q-171 -156 -369 -156q-216 0 -342 95q-126 94 -126 284q0 171 116 276q116 104 287 104q101 0 192 -36q90 -36 151 -110
q60 -74 60 -170q0 -103 -72 -174q-72 -72 -188 -72q-89 0 -145 63q-57 63 -31 151q72 2 122 56q50 53 50 131q0 75 -46 115q-46 39 -114 39q-127 0 -213 -106q-87 -106 -87 -263q0 -171 105 -273q104 -103 281 -103q197 0 366 154q46 42 93 97q46 54 86 107q39 53 86 131
t81 136q33 58 81 155l77 156q28 58 78 170l75 167l77 177q52 121 74 170zM1840 1869q50 -49 50 -120q0 -88 -71 -152q-72 -65 -166 -65q-77 0 -126 49q-50 48 -50 121q0 87 72 152q71 64 165 64q76 0 126 -49zM1554 1849q-70 -63 -70 -147q0 -70 48 -116q47 -47 121 -47
q91 0 161 63q69 62 69 147q0 68 -48 115t-121 47q-91 0 -160 -62zM1406 913q-112 -247 -204 -412h320z" />
    <glyph glyph-name="AE" unicode="&#xc6;" horiz-adv-x="2322" 
d="M1743 1394q-54 -38 -86 -95q-33 -58 -50 -122q-18 -64 -18 -123q0 -116 61 -201t165 -85h54l-1 -6h-35q-102 0 -192 -54t-150 -142q-61 -89 -95 -201q-35 -112 -35 -229q0 -60 9 -112t33 -104q23 -52 60 -88q36 -37 96 -60t138 -23q105 0 197 34q91 33 154 88
q62 55 108 126q45 70 66 144q21 73 21 143q0 108 -60 182q-60 73 -182 73q-99 0 -145 -50q-47 -51 -47 -139q0 -66 41 -108q40 -42 103 -44q10 -88 -57 -151q-68 -63 -157 -63q-103 0 -162 58q-60 57 -60 146q0 104 74 188q73 84 181 127t222 43q156 0 242 -83
q85 -83 85 -208q0 -70 -27 -142q-28 -72 -86 -139q-58 -68 -139 -120q-81 -53 -197 -84q-116 -32 -251 -32q-153 0 -277 41q-124 40 -200 109q-77 68 -117 152q-41 84 -41 175q0 155 87 279h-409q-212 -262 -206 -391q5 -98 145 -98v-5h-593v5q48 0 100 17q51 16 95 39
q43 23 98 67q54 44 91 78t94 96q56 61 86 96q30 34 86 100l620 727q39 59 112 103q72 44 157 67q84 22 161 33q77 10 147 10q127 0 229 -33t166 -102q63 -70 63 -167q0 -113 -76 -185q-77 -73 -170 -73q-82 0 -141 59q-60 58 -39 143q60 13 99 54t39 112q0 81 -43 133
t-122 52q-65 0 -119 -37zM1263 1196l-574 -673q-12 -15 -19 -22h408q89 119 255 189q166 69 404 73l1 3q-229 4 -364 93q-135 88 -135 227q0 60 24 110z" />
    <glyph glyph-name="Ccedilla" unicode="&#xc7;" horiz-adv-x="1430" 
d="M605 -510q15 -22 50 -36q35 -15 76 -15q80 0 125 38q44 37 44 89q0 47 -41 83q-42 36 -118 45q37 63 57 126h-2q-171 0 -305 53q-135 53 -219 146q-85 93 -128 215q-44 121 -44 264q0 119 30 240t87 235q56 114 142 214q86 99 192 173t242 117t285 43q122 0 223 -33
q100 -33 165 -103q64 -71 64 -168q0 -111 -76 -183q-77 -73 -170 -73q-82 0 -141 59q-60 58 -39 143q68 11 106 61t38 113q0 72 -46 125q-47 52 -130 52q-94 0 -184 -80q-91 -80 -159 -209q-68 -130 -120 -287q-53 -157 -80 -319t-27 -300q0 -73 8 -136q8 -64 31 -131
q22 -68 59 -115q36 -47 99 -77q62 -31 144 -31q90 0 179 38q89 37 159 102t114 162q43 97 43 207q0 77 -21 135q-22 57 -57 88q-36 31 -74 46q-39 14 -81 14q-84 0 -133 -53q-50 -54 -50 -132q0 -71 41 -112t103 -43q10 -88 -57 -151q-68 -63 -157 -63q-103 0 -162 58
q-60 57 -60 146q0 104 73 188t183 127q109 43 227 43q141 0 222 -70q81 -71 81 -220q0 -102 -39 -193q-40 -92 -114 -164q-75 -73 -193 -116t-263 -45q-18 -57 -54 -119q74 -9 114 -46t40 -87q0 -56 -47 -96q-47 -41 -131 -41q-43 0 -79 16q-36 15 -51 38z" />
    <glyph glyph-name="Egrave" unicode="&#xc8;" horiz-adv-x="1414" 
d="M836 1394q-54 -38 -86 -95q-33 -58 -50 -122q-18 -64 -18 -123q0 -116 61 -201t165 -85h54l-1 -6h-35q-102 0 -192 -54t-150 -142q-61 -89 -95 -201q-35 -112 -35 -229q0 -60 9 -112t33 -104q23 -52 60 -88q36 -37 96 -60t138 -23q105 0 197 34q91 33 154 88
q62 55 108 126q45 70 66 144q21 73 21 143q0 108 -60 182q-60 73 -182 73q-99 0 -145 -50q-47 -51 -47 -139q0 -66 41 -108q40 -42 103 -44q10 -88 -57 -151q-68 -63 -157 -63q-103 0 -162 58q-60 57 -60 146q0 104 74 188q73 84 181 127t222 43q156 0 242 -83
q85 -83 85 -208q0 -70 -27 -142q-28 -72 -86 -139q-58 -68 -139 -120q-81 -53 -197 -84q-116 -32 -251 -32q-153 0 -277 41q-124 40 -200 109q-77 68 -117 152q-41 84 -41 175q0 112 47 209q46 96 137 172q90 75 236 120q146 44 331 47l1 3q-229 4 -364 93q-135 88 -135 227
q0 68 31 124t84 93t117 65q63 27 135 42q72 14 134 21q61 7 117 7q127 0 229 -33t166 -102q63 -70 63 -167q0 -113 -76 -185q-77 -73 -170 -73q-82 0 -141 59q-60 58 -39 143q60 13 99 54t39 112q0 81 -43 133t-122 52q-65 0 -119 -37zM996 1530l-425 215q0 31 37 31
q17 0 62 -31q44 -32 137 -94q92 -63 192 -117z" />
    <glyph glyph-name="Eacute" unicode="&#xc9;" horiz-adv-x="1414" 
d="M836 1394q-54 -38 -86 -95q-33 -58 -50 -122q-18 -64 -18 -123q0 -116 61 -201t165 -85h54l-1 -6h-35q-102 0 -192 -54t-150 -142q-61 -89 -95 -201q-35 -112 -35 -229q0 -60 9 -112t33 -104q23 -52 60 -88q36 -37 96 -60t138 -23q105 0 197 34q91 33 154 88
q62 55 108 126q45 70 66 144q21 73 21 143q0 108 -60 182q-60 73 -182 73q-99 0 -145 -50q-47 -51 -47 -139q0 -66 41 -108q40 -42 103 -44q10 -88 -57 -151q-68 -63 -157 -63q-103 0 -162 58q-60 57 -60 146q0 104 74 188q73 84 181 127t222 43q156 0 242 -83
q85 -83 85 -208q0 -70 -27 -142q-28 -72 -86 -139q-58 -68 -139 -120q-81 -53 -197 -84q-116 -32 -251 -32q-153 0 -277 41q-124 40 -200 109q-77 68 -117 152q-41 84 -41 175q0 112 47 209q46 96 137 172q90 75 236 120q146 44 331 47l1 3q-229 4 -364 93q-135 88 -135 227
q0 68 31 124t84 93t117 65q63 27 135 42q72 14 134 21q61 7 117 7q127 0 229 -33t166 -102q63 -70 63 -167q0 -113 -76 -185q-77 -73 -170 -73q-82 0 -141 59q-60 58 -39 143q60 13 99 54t39 112q0 81 -43 133t-122 52q-65 0 -119 -37zM910 1534q117 54 230 117
q112 62 167 94q54 31 71 31q28 0 28 -24l-494 -222z" />
    <glyph glyph-name="Ecircumflex" unicode="&#xca;" horiz-adv-x="1414" 
d="M836 1394q-54 -38 -86 -95q-33 -58 -50 -122q-18 -64 -18 -123q0 -116 61 -201t165 -85h54l-1 -6h-35q-102 0 -192 -54t-150 -142q-61 -89 -95 -201q-35 -112 -35 -229q0 -60 9 -112t33 -104q23 -52 60 -88q36 -37 96 -60t138 -23q105 0 197 34q91 33 154 88
q62 55 108 126q45 70 66 144q21 73 21 143q0 108 -60 182q-60 73 -182 73q-99 0 -145 -50q-47 -51 -47 -139q0 -66 41 -108q40 -42 103 -44q10 -88 -57 -151q-68 -63 -157 -63q-103 0 -162 58q-60 57 -60 146q0 104 74 188q73 84 181 127t222 43q156 0 242 -83
q85 -83 85 -208q0 -70 -27 -142q-28 -72 -86 -139q-58 -68 -139 -120q-81 -53 -197 -84q-116 -32 -251 -32q-153 0 -277 41q-124 40 -200 109q-77 68 -117 152q-41 84 -41 175q0 112 47 209q46 96 137 172q90 75 236 120q146 44 331 47l1 3q-229 4 -364 93q-135 88 -135 227
q0 68 31 124t84 93t117 65q63 27 135 42q72 14 134 21q61 7 117 7q127 0 229 -33t166 -102q63 -70 63 -167q0 -113 -76 -185q-77 -73 -170 -73q-82 0 -141 59q-60 58 -39 143q60 13 99 54t39 112q0 81 -43 133t-122 52q-65 0 -119 -37zM1266 1506l-4 -4l-269 184l-329 -184
l-2 4l341 246z" />
    <glyph glyph-name="Edieresis" unicode="&#xcb;" horiz-adv-x="1414" 
d="M836 1394q-54 -38 -86 -95q-33 -58 -50 -122q-18 -64 -18 -123q0 -116 61 -201t165 -85h54l-1 -6h-35q-102 0 -192 -54t-150 -142q-61 -89 -95 -201q-35 -112 -35 -229q0 -60 9 -112t33 -104q23 -52 60 -88q36 -37 96 -60t138 -23q105 0 197 34q91 33 154 88
q62 55 108 126q45 70 66 144q21 73 21 143q0 108 -60 182q-60 73 -182 73q-99 0 -145 -50q-47 -51 -47 -139q0 -66 41 -108q40 -42 103 -44q10 -88 -57 -151q-68 -63 -157 -63q-103 0 -162 58q-60 57 -60 146q0 104 74 188q73 84 181 127t222 43q156 0 242 -83
q85 -83 85 -208q0 -70 -27 -142q-28 -72 -86 -139q-58 -68 -139 -120q-81 -53 -197 -84q-116 -32 -251 -32q-153 0 -277 41q-124 40 -200 109q-77 68 -117 152q-41 84 -41 175q0 112 47 209q46 96 137 172q90 75 236 120q146 44 331 47l1 3q-229 4 -364 93q-135 88 -135 227
q0 68 31 124t84 93t117 65q63 27 135 42q72 14 134 21q61 7 117 7q127 0 229 -33t166 -102q63 -70 63 -167q0 -113 -76 -185q-77 -73 -170 -73q-82 0 -141 59q-60 58 -39 143q60 13 99 54t39 112q0 81 -43 133t-122 52q-65 0 -119 -37zM863 1713q25 -27 25 -65
q0 -50 -36 -86q-37 -36 -86 -36q-38 0 -63 27t-25 67q0 47 38 84q37 36 84 36q38 0 63 -27zM1259 1713q25 -27 25 -65q0 -50 -36 -86q-37 -36 -86 -36q-38 0 -63 27t-25 67q0 47 38 84q37 36 84 36q38 0 63 -27z" />
    <glyph glyph-name="Igrave" unicode="&#xcc;" horiz-adv-x="1108" 
d="M896 360q-27 -171 -23 -227q7 -89 77 -114q38 -14 98 -14v-5h-817v5q61 0 104 17q43 16 69 39q25 22 44 75q18 53 27 95q8 42 21 129l106 682q10 63 42 116q31 52 78 87q46 34 98 60q51 26 110 41q58 14 105 22q47 7 91 9v2q-61 -2 -134 15q-74 16 -118 33
q-44 16 -128 51q-83 34 -128 51q-45 16 -116 33q-72 17 -132 17q-86 0 -146 -45t-60 -122q0 -65 39 -95q39 -31 93 -31q90 0 152 80q67 -30 97 -81q29 -52 18 -106t-45 -102q-34 -49 -94 -80t-128 -31q-117 0 -206 81q-90 80 -90 207q0 141 105 237q105 95 265 95
q70 0 150 -20q79 -21 151 -50q72 -30 144 -59q71 -30 148 -50q76 -21 141 -21q33 0 49 15q15 14 15 35q0 28 -24 40t-66 -10q-33 63 1 111q33 48 95 48q42 0 74 -26q32 -27 32 -75q0 -38 -22 -62q-22 -25 -56 -46q-35 -21 -71 -51q-36 -31 -69 -98q-34 -68 -50 -167z
M932 1632l-425 215q0 31 37 31q17 0 62 -31q44 -32 137 -94q92 -63 192 -117z" />
    <glyph glyph-name="Iacute" unicode="&#xcd;" horiz-adv-x="1108" 
d="M896 360q-27 -171 -23 -227q7 -89 77 -114q38 -14 98 -14v-5h-817v5q61 0 104 17q43 16 69 39q25 22 44 75q18 53 27 95q8 42 21 129l106 682q10 63 42 116q31 52 78 87q46 34 98 60q51 26 110 41q58 14 105 22q47 7 91 9v2q-61 -2 -134 15q-74 16 -118 33
q-44 16 -128 51q-83 34 -128 51q-45 16 -116 33q-72 17 -132 17q-86 0 -146 -45t-60 -122q0 -65 39 -95q39 -31 93 -31q90 0 152 80q67 -30 97 -81q29 -52 18 -106t-45 -102q-34 -49 -94 -80t-128 -31q-117 0 -206 81q-90 80 -90 207q0 141 105 237q105 95 265 95
q70 0 150 -20q79 -21 151 -50q72 -30 144 -59q71 -30 148 -50q76 -21 141 -21q33 0 49 15q15 14 15 35q0 28 -24 40t-66 -10q-33 63 1 111q33 48 95 48q42 0 74 -26q32 -27 32 -75q0 -38 -22 -62q-22 -25 -56 -46q-35 -21 -71 -51q-36 -31 -69 -98q-34 -68 -50 -167z
M846 1636q117 54 230 117q112 62 167 94q54 31 71 31q28 0 28 -24l-494 -222z" />
    <glyph glyph-name="Icircumflex" unicode="&#xce;" horiz-adv-x="1108" 
d="M1184 1624q39 -3 68 -29q28 -26 28 -71q0 -38 -22 -62q-22 -25 -56 -46q-35 -21 -71 -51q-36 -31 -69 -98q-34 -68 -50 -167l-116 -740q-27 -171 -23 -227q7 -89 77 -114q38 -14 98 -14v-5h-817v5q61 0 104 17q43 16 69 39q25 22 44 75q18 53 27 95q8 42 21 129l106 682
q10 63 42 116q31 52 78 87q46 34 98 60q51 26 110 41q58 14 105 22q47 7 91 9v2q-61 -2 -134 15q-74 16 -118 33q-44 16 -128 51q-83 34 -128 51q-45 16 -116 33q-72 17 -132 17q-86 0 -146 -45t-60 -122q0 -65 39 -95q39 -31 93 -31q90 0 152 80q67 -30 97 -81
q29 -52 18 -106t-45 -102q-34 -49 -94 -80t-128 -31q-117 0 -206 81q-90 80 -90 207q0 141 105 237q105 95 265 95q70 0 150 -20q79 -21 151 -50q72 -30 144 -59q71 -30 148 -50q76 -21 141 -21q33 0 49 15q15 14 15 35q0 28 -24 40t-66 -10q-30 64 0 110t89 49l-238 163
l-329 -184l-2 4l341 246z" />
    <glyph glyph-name="Idieresis" unicode="&#xcf;" horiz-adv-x="1108" 
d="M896 360q-27 -171 -23 -227q7 -89 77 -114q38 -14 98 -14v-5h-817v5q61 0 104 17q43 16 69 39q25 22 44 75q18 53 27 95q8 42 21 129l106 682q10 63 42 116q31 52 78 87q46 34 98 60q51 26 110 41q58 14 105 22q47 7 91 9v2q-61 -2 -134 15q-74 16 -118 33
q-44 16 -128 51q-83 34 -128 51q-45 16 -116 33q-72 17 -132 17q-86 0 -146 -45t-60 -122q0 -65 39 -95q39 -31 93 -31q90 0 152 80q67 -30 97 -81q29 -52 18 -106t-45 -102q-34 -49 -94 -80t-128 -31q-117 0 -206 81q-90 80 -90 207q0 141 105 237q105 95 265 95
q70 0 150 -20q79 -21 151 -50q72 -30 144 -59q71 -30 148 -50q76 -21 141 -21q33 0 49 15q15 14 15 35q0 28 -24 40t-66 -10q-33 63 1 111q33 48 95 48q42 0 74 -26q32 -27 32 -75q0 -38 -22 -62q-22 -25 -56 -46q-35 -21 -71 -51q-36 -31 -69 -98q-34 -68 -50 -167z
M799 1815q25 -27 25 -65q0 -50 -36 -86q-37 -36 -86 -36q-38 0 -63 27t-25 67q0 47 38 84q37 36 84 36q38 0 63 -27zM1195 1815q25 -27 25 -65q0 -50 -36 -86q-37 -36 -86 -36q-38 0 -63 27t-25 67q0 47 38 84q37 36 84 36q38 0 63 -27z" />
    <glyph glyph-name="Eth" unicode="&#xd0;" horiz-adv-x="1824" 
d="M947 698l-109 -698h-608v5q61 0 104 17q43 16 69 39q25 22 44 76q18 53 27 94q8 41 22 129l52 338h-219l1 6h219l53 336q10 63 42 116q31 52 78 87q46 35 98 61t110 41t105 23q47 7 91 9v2q-61 -2 -134 15q-74 16 -118 33q-44 16 -128 51q-83 34 -128 51q-45 16 -116 33
q-72 17 -132 17q-86 0 -146 -45t-60 -122q0 -65 39 -95q39 -31 93 -31q90 0 152 80q67 -30 97 -81q29 -52 18 -106t-45 -102q-34 -49 -94 -80t-128 -31q-117 0 -206 81q-90 80 -90 207q0 141 105 237q105 95 265 95q70 0 150 -20q79 -21 151 -50q72 -30 144 -59
q71 -30 148 -50q76 -21 141 -21q31 0 48 15q16 15 16 35q0 28 -24 40t-66 -10q-33 61 1 109q33 47 91 47q45 0 78 -27q32 -28 32 -81q0 -50 -37 -80q-38 -30 -81 -44q48 6 94 6q91 0 175 -21q83 -21 161 -68q77 -47 135 -117q57 -70 91 -175q34 -106 34 -235q0 -71 -10 -144
q-10 -74 -32 -154q-23 -80 -57 -154q-35 -75 -87 -144q-53 -70 -118 -126q-66 -56 -154 -96q-89 -41 -192 -59q-103 -19 -234 -10q-131 8 -278 47l1 5q130 -23 240 3t187 88q76 61 137 153q60 92 96 192q36 99 60 211q24 111 33 204q8 93 8 178q0 101 -12 174
q-13 72 -43 127t-83 82t-130 27q-64 0 -107 -64q-43 -65 -67 -220l-62 -396h221l-1 -6h-221z" />
    <glyph glyph-name="Ntilde" unicode="&#xd1;" horiz-adv-x="2454" 
d="M1559 1381l597 -853l107 686q24 152 61 258q36 105 85 163q48 57 102 81q53 24 120 24q63 0 108 -19q45 -20 67 -52q21 -32 30 -62q8 -30 8 -63q0 -96 -64 -154q-65 -58 -140 -58q-80 0 -108 76q30 13 46 42t16 62q0 43 -30 75q-30 31 -80 31q-152 0 -214 -406
l-200 -1280l-898 1274l-143 -847q-21 -126 -76 -228q-56 -103 -135 -172q-154 -134 -352 -134q-223 0 -345 103q-123 102 -123 292q0 171 116 276q116 104 287 104q101 0 192 -36q90 -36 151 -110q60 -74 60 -170q0 -103 -72 -174q-72 -72 -188 -72q-89 0 -145 63
q-57 63 -31 151q72 2 122 56q50 53 50 131q0 75 -46 115q-46 39 -114 39q-127 0 -213 -106q-87 -106 -87 -263q0 -178 97 -285q96 -107 289 -107q95 0 185 35q89 34 165 99q75 65 130 167q55 101 76 227l114 675q23 115 14 225q-10 109 -56 148q134 -41 348 -30l60 1
q-67 3 -136 25q-69 21 -128 50l-119 58q-60 28 -130 48q-70 19 -138 19q-86 0 -146 -45t-60 -122q0 -65 39 -95q39 -31 93 -31q90 0 152 80q67 -30 97 -81q29 -52 18 -106t-45 -102q-34 -49 -94 -80t-128 -31q-117 0 -206 81q-90 80 -90 207q0 141 105 237q105 95 265 95
q70 0 143 -20q72 -21 134 -50q62 -30 124 -59q61 -30 131 -50q69 -21 134 -21q33 0 49 15q15 14 15 35q0 28 -24 40t-66 -10q-33 63 1 111q33 48 95 48q42 0 74 -26q32 -27 32 -75q0 -127 -134 -143zM2180 1872q-55 -87 -97 -117q-43 -31 -93 -31q-44 0 -86 18
q-43 18 -77 44q-34 25 -67 51q-34 25 -74 43q-41 18 -83 18q-47 0 -86 -31q-40 -31 -94 -119l-6 3q56 91 97 123q41 31 90 31q43 0 84 -18t75 -43l67 -51q33 -26 75 -44t86 -18q48 0 89 30q40 29 95 114z" />
    <glyph glyph-name="Ograve" unicode="&#xd2;" horiz-adv-x="1736" 
d="M200 910q99 192 277 325q59 139 210 226q150 87 379 87q139 0 257 -35q117 -35 200 -95q82 -61 140 -142q58 -82 86 -175q27 -94 27 -195q0 -146 -39 -285t-108 -254q-69 -116 -165 -213q-97 -97 -209 -164t-240 -104q-128 -38 -257 -38q-144 0 -267 48t-208 132
q-86 83 -134 200q-49 116 -49 250q0 240 100 432zM987 1449q-97 -35 -180 -130q-84 -96 -140 -219q-57 -124 -98 -277q78 -65 199 -65q86 0 136 49t50 131q0 66 -40 108q-41 42 -104 44q-10 88 58 151q67 63 156 63q103 0 163 -57q59 -58 59 -147q0 -78 -46 -145
q-47 -68 -118 -111q-72 -43 -154 -67q-83 -25 -160 -25q-120 0 -202 58q-72 -273 -72 -546q0 -88 12 -160t38 -129q25 -57 68 -88q43 -32 100 -32q118 0 242 125q123 124 214 308q90 184 148 398t58 388q0 70 -9 133q-10 62 -35 124q-26 62 -66 107q-41 44 -107 72
q-67 28 -153 28q-95 0 -189 -30t-178 -95t-127 -155q205 141 476 194zM1074 1638l-425 215q0 31 37 31q17 0 62 -31q44 -32 137 -94q92 -63 192 -117z" />
    <glyph glyph-name="Oacute" unicode="&#xd3;" horiz-adv-x="1736" 
d="M200 910q99 192 277 325q59 139 210 226q150 87 379 87q139 0 257 -35q117 -35 200 -95q82 -61 140 -142q58 -82 86 -175q27 -94 27 -195q0 -146 -39 -285t-108 -254q-69 -116 -165 -213q-97 -97 -209 -164t-240 -104q-128 -38 -257 -38q-144 0 -267 48t-208 132
q-86 83 -134 200q-49 116 -49 250q0 240 100 432zM987 1449q-97 -35 -180 -130q-84 -96 -140 -219q-57 -124 -98 -277q78 -65 199 -65q86 0 136 49t50 131q0 66 -40 108q-41 42 -104 44q-10 88 58 151q67 63 156 63q103 0 163 -57q59 -58 59 -147q0 -78 -46 -145
q-47 -68 -118 -111q-72 -43 -154 -67q-83 -25 -160 -25q-120 0 -202 58q-72 -273 -72 -546q0 -88 12 -160t38 -129q25 -57 68 -88q43 -32 100 -32q118 0 242 125q123 124 214 308q90 184 148 398t58 388q0 70 -9 133q-10 62 -35 124q-26 62 -66 107q-41 44 -107 72
q-67 28 -153 28q-95 0 -189 -30t-178 -95t-127 -155q205 141 476 194zM988 1642q117 54 230 117q112 62 167 94q54 31 71 31q28 0 28 -24l-494 -222z" />
    <glyph glyph-name="Ocircumflex" unicode="&#xd4;" horiz-adv-x="1736" 
d="M200 910q99 192 277 325q59 139 210 226q150 87 379 87q139 0 257 -35q117 -35 200 -95q82 -61 140 -142q58 -82 86 -175q27 -94 27 -195q0 -146 -39 -285t-108 -254q-69 -116 -165 -213q-97 -97 -209 -164t-240 -104q-128 -38 -257 -38q-144 0 -267 48t-208 132
q-86 83 -134 200q-49 116 -49 250q0 240 100 432zM987 1449q-97 -35 -180 -130q-84 -96 -140 -219q-57 -124 -98 -277q78 -65 199 -65q86 0 136 49t50 131q0 66 -40 108q-41 42 -104 44q-10 88 58 151q67 63 156 63q103 0 163 -57q59 -58 59 -147q0 -78 -46 -145
q-47 -68 -118 -111q-72 -43 -154 -67q-83 -25 -160 -25q-120 0 -202 58q-72 -273 -72 -546q0 -88 12 -160t38 -129q25 -57 68 -88q43 -32 100 -32q118 0 242 125q123 124 214 308q90 184 148 398t58 388q0 70 -9 133q-10 62 -35 124q-26 62 -66 107q-41 44 -107 72
q-67 28 -153 28q-95 0 -189 -30t-178 -95t-127 -155q205 141 476 194zM1344 1614l-4 -4l-269 184l-329 -184l-2 4l341 246z" />
    <glyph glyph-name="Otilde" unicode="&#xd5;" horiz-adv-x="1736" 
d="M200 910q99 192 277 325q59 139 210 226q150 87 379 87q139 0 257 -35q117 -35 200 -95q82 -61 140 -142q58 -82 86 -175q27 -94 27 -195q0 -146 -39 -285t-108 -254q-69 -116 -165 -213q-97 -97 -209 -164t-240 -104q-128 -38 -257 -38q-144 0 -267 48t-208 132
q-86 83 -134 200q-49 116 -49 250q0 240 100 432zM987 1449q-97 -35 -180 -130q-84 -96 -140 -219q-57 -124 -98 -277q78 -65 199 -65q86 0 136 49t50 131q0 66 -40 108q-41 42 -104 44q-10 88 58 151q67 63 156 63q103 0 163 -57q59 -58 59 -147q0 -78 -46 -145
q-47 -68 -118 -111q-72 -43 -154 -67q-83 -25 -160 -25q-120 0 -202 58q-72 -273 -72 -546q0 -88 12 -160t38 -129q25 -57 68 -88q43 -32 100 -32q118 0 242 125q123 124 214 308q90 184 148 398t58 388q0 70 -9 133q-10 62 -35 124q-26 62 -66 107q-41 44 -107 72
q-67 28 -153 28q-95 0 -189 -30t-178 -95t-127 -155q205 141 476 194zM1432 1798q-55 -87 -97 -117q-43 -31 -93 -31q-44 0 -86 18q-43 18 -77 44q-34 25 -67 51q-34 25 -74 43q-41 18 -83 18q-47 0 -86 -31q-40 -31 -94 -119l-6 3q56 91 97 123q41 31 90 31q43 0 84 -18
t75 -43l67 -51q33 -26 75 -44t86 -18q48 0 89 30q40 29 95 114z" />
    <glyph glyph-name="Odieresis" unicode="&#xd6;" horiz-adv-x="1736" 
d="M200 910q99 192 277 325q59 139 210 226q150 87 379 87q139 0 257 -35q117 -35 200 -95q82 -61 140 -142q58 -82 86 -175q27 -94 27 -195q0 -146 -39 -285t-108 -254q-69 -116 -165 -213q-97 -97 -209 -164t-240 -104q-128 -38 -257 -38q-144 0 -267 48t-208 132
q-86 83 -134 200q-49 116 -49 250q0 240 100 432zM987 1449q-97 -35 -180 -130q-84 -96 -140 -219q-57 -124 -98 -277q78 -65 199 -65q86 0 136 49t50 131q0 66 -40 108q-41 42 -104 44q-10 88 58 151q67 63 156 63q103 0 163 -57q59 -58 59 -147q0 -78 -46 -145
q-47 -68 -118 -111q-72 -43 -154 -67q-83 -25 -160 -25q-120 0 -202 58q-72 -273 -72 -546q0 -88 12 -160t38 -129q25 -57 68 -88q43 -32 100 -32q118 0 242 125q123 124 214 308q90 184 148 398t58 388q0 70 -9 133q-10 62 -35 124q-26 62 -66 107q-41 44 -107 72
q-67 28 -153 28q-95 0 -189 -30t-178 -95t-127 -155q205 141 476 194zM941 1821q25 -27 25 -65q0 -50 -36 -86q-37 -36 -86 -36q-38 0 -63 27t-25 67q0 47 38 84q37 36 84 36q38 0 63 -27zM1337 1821q25 -27 25 -65q0 -50 -36 -86q-37 -36 -86 -36q-38 0 -63 27t-25 67
q0 47 38 84q37 36 84 36q38 0 63 -27z" />
    <glyph glyph-name="multiply" unicode="&#xd7;" horiz-adv-x="805" 
d="M495 593l-347 -308l-6 7l347 308l-250 308l8 7l250 -308l348 308l6 -7l-348 -308l251 -308l-8 -7z" />
    <glyph glyph-name="Oslash" unicode="&#xd8;" horiz-adv-x="1736" 
d="M322 -6q-106 86 -164 211q-58 124 -58 273q0 240 100 432q99 192 277 325q59 139 210 226q150 87 379 87q184 0 332 -62l110 152l6 -2l-110 -153q181 -78 277 -233q95 -156 95 -344q0 -146 -39 -285t-108 -254q-69 -116 -165 -213q-97 -97 -209 -164t-240 -104
q-128 -38 -257 -38q-252 0 -431 142l-118 -164l-5 4zM1192 944q-55 -72 -134 -115t-172 -64l-391 -543q6 -166 59 -266q53 -101 158 -101q118 0 242 125q123 124 214 308q90 184 148 398t58 388q0 172 -58 287l-104 -145q34 -51 34 -116q0 -84 -54 -156zM987 1449
q-97 -35 -180 -130q-84 -96 -140 -219q-57 -124 -98 -277q78 -65 199 -65q86 0 136 49t50 131q0 66 -40 108q-41 42 -104 44q-10 88 58 151q67 63 156 63q123 0 184 -82l104 145q-92 171 -308 171q-95 0 -189 -30t-178 -95t-127 -155q205 141 476 194zM566 810
q-72 -273 -72 -546v-32l383 531q-60 -11 -109 -11q-120 0 -202 58z" />
    <glyph glyph-name="Ugrave" unicode="&#xd9;" horiz-adv-x="1936" 
d="M602 1042q10 63 42 116q32 52 79 87q46 34 98 60t111 41q58 14 105 22q47 7 91 9v2q-61 -2 -134 15q-74 16 -118 33q-44 16 -128 51q-83 34 -128 51q-45 16 -116 33q-72 17 -132 17q-86 0 -146 -45t-60 -122q0 -65 39 -95q39 -31 93 -31q90 0 152 80q67 -30 97 -81
q29 -52 18 -106t-45 -102q-34 -49 -94 -80t-128 -31q-117 0 -206 81q-90 80 -90 207q0 141 105 237q105 95 265 95q70 0 150 -20q79 -21 151 -50q72 -30 144 -59q71 -30 148 -50q76 -21 141 -21q33 0 49 15q15 14 15 35q0 28 -24 40t-66 -10q-33 63 1 111q33 48 95 48
q42 0 74 -26q32 -27 32 -75q0 -28 -12 -48q-12 -21 -32 -35q-20 -15 -44 -30q-25 -15 -52 -38q-27 -24 -51 -56q-25 -33 -46 -88q-22 -56 -33 -129l-84 -536q-10 -65 -16 -114q-7 -50 -11 -119q-5 -69 -1 -119q3 -51 16 -105t38 -88q25 -35 67 -57t99 -22q149 1 262 82
q113 80 179 220q46 100 68 235l52 329q12 77 19 132t10 121t-3 112q-6 45 -22 91q-16 45 -45 72t-74 44q-46 17 -108 17v5h639v-5q-63 0 -115 -17t-89 -44t-68 -73t-50 -90q-20 -44 -37 -111q-18 -68 -28 -121q-10 -54 -22 -133l-52 -330q-42 -265 -192 -414
q-150 -150 -404 -150q-147 0 -253 32t-178 103q-72 70 -93 182q-22 111 0 269zM1416 1582l-425 215q0 31 37 31q17 0 62 -31q44 -32 137 -94q92 -63 192 -117z" />
    <glyph glyph-name="Uacute" unicode="&#xda;" horiz-adv-x="1936" 
d="M602 1042q10 63 42 116q32 52 79 87q46 34 98 60t111 41q58 14 105 22q47 7 91 9v2q-61 -2 -134 15q-74 16 -118 33q-44 16 -128 51q-83 34 -128 51q-45 16 -116 33q-72 17 -132 17q-86 0 -146 -45t-60 -122q0 -65 39 -95q39 -31 93 -31q90 0 152 80q67 -30 97 -81
q29 -52 18 -106t-45 -102q-34 -49 -94 -80t-128 -31q-117 0 -206 81q-90 80 -90 207q0 141 105 237q105 95 265 95q70 0 150 -20q79 -21 151 -50q72 -30 144 -59q71 -30 148 -50q76 -21 141 -21q33 0 49 15q15 14 15 35q0 28 -24 40t-66 -10q-33 63 1 111q33 48 95 48
q42 0 74 -26q32 -27 32 -75q0 -28 -12 -48q-12 -21 -32 -35q-20 -15 -44 -30q-25 -15 -52 -38q-27 -24 -51 -56q-25 -33 -46 -88q-22 -56 -33 -129l-84 -536q-10 -65 -16 -114q-7 -50 -11 -119q-5 -69 -1 -119q3 -51 16 -105t38 -88q25 -35 67 -57t99 -22q149 1 262 82
q113 80 179 220q46 100 68 235l52 329q12 77 19 132t10 121t-3 112q-6 45 -22 91q-16 45 -45 72t-74 44q-46 17 -108 17v5h639v-5q-63 0 -115 -17t-89 -44t-68 -73t-50 -90q-20 -44 -37 -111q-18 -68 -28 -121q-10 -54 -22 -133l-52 -330q-42 -265 -192 -414
q-150 -150 -404 -150q-147 0 -253 32t-178 103q-72 70 -93 182q-22 111 0 269zM1330 1586q117 54 230 117q112 62 167 94q54 31 71 31q28 0 28 -24l-494 -222z" />
    <glyph glyph-name="Ucircumflex" unicode="&#xdb;" horiz-adv-x="1936" 
d="M1686 1558l-4 -4l-269 184l-209 -117q34 -8 56 -33t22 -64q0 -28 -12 -48q-12 -21 -32 -35q-20 -15 -44 -30q-25 -15 -52 -38q-27 -24 -51 -56q-25 -33 -46 -88q-22 -56 -33 -129l-84 -536q-10 -65 -16 -114q-7 -50 -11 -119q-5 -69 -1 -119q3 -51 16 -105t38 -88
q25 -35 67 -57t99 -22q149 1 262 82q113 80 179 220q46 100 68 235l52 329q12 77 19 132t10 121t-3 112q-6 45 -22 91q-16 45 -45 72t-74 44q-46 17 -108 17v5h639v-5q-63 0 -115 -17t-89 -44t-68 -73t-50 -90q-20 -44 -37 -111q-18 -68 -28 -121q-10 -54 -22 -133l-52 -330
q-42 -265 -192 -414q-150 -150 -404 -150q-147 0 -253 32t-178 103q-72 70 -93 182q-22 111 0 269l86 544q10 63 42 116q32 52 79 87q46 34 98 60t111 41q58 14 105 22q47 7 91 9v2q-61 -2 -134 15q-74 16 -118 33q-44 16 -128 51q-83 34 -128 51q-45 16 -116 33
q-72 17 -132 17q-86 0 -146 -45t-60 -122q0 -65 39 -95q39 -31 93 -31q90 0 152 80q67 -30 97 -81q29 -52 18 -106t-45 -102q-34 -49 -94 -80t-128 -31q-117 0 -206 81q-90 80 -90 207q0 141 105 237q105 95 265 95q70 0 150 -20q79 -21 151 -50q72 -30 144 -59
q71 -30 148 -50q76 -21 141 -21q33 0 49 15q15 14 15 35q0 28 -24 40t-66 -10q-33 62 0 110t95 49l248 179z" />
    <glyph glyph-name="Udieresis" unicode="&#xdc;" horiz-adv-x="1936" 
d="M1283 1765q25 -27 25 -65q0 -65 -57 -103q31 -28 31 -73q0 -28 -12 -48q-12 -21 -32 -35q-20 -15 -44 -30q-25 -15 -52 -38q-27 -24 -51 -56q-25 -33 -46 -88q-22 -56 -33 -129l-84 -536q-10 -65 -16 -114q-7 -50 -11 -119q-5 -69 -1 -119q3 -51 16 -105t38 -88
q25 -35 67 -57t99 -22q149 1 262 82q113 80 179 220q46 100 68 235l52 329q12 77 19 132t10 121t-3 112q-6 45 -22 91q-16 45 -45 72t-74 44q-46 17 -108 17v5h639v-5q-63 0 -115 -17t-89 -44t-68 -73t-50 -90q-20 -44 -37 -111q-18 -68 -28 -121q-10 -54 -22 -133l-52 -330
q-42 -265 -192 -414q-150 -150 -404 -150q-147 0 -253 32t-178 103q-72 70 -93 182q-22 111 0 269l86 544q10 63 42 116q32 52 79 87q46 34 98 60t111 41q58 14 105 22q47 7 91 9v2q-61 -2 -134 15q-74 16 -118 33q-44 16 -128 51q-83 34 -128 51q-45 16 -116 33
q-72 17 -132 17q-86 0 -146 -45t-60 -122q0 -65 39 -95q39 -31 93 -31q90 0 152 80q67 -30 97 -81q29 -52 18 -106t-45 -102q-34 -49 -94 -80t-128 -31q-117 0 -206 81q-90 80 -90 207q0 141 105 237q105 95 265 95q70 0 150 -20q79 -21 151 -50q72 -30 144 -59
q71 -30 148 -50q76 -21 141 -21q33 0 49 15q15 14 15 35q0 28 -24 40t-66 -10q-23 49 -11 87q12 37 49 57q-20 25 -20 62q0 47 38 84q37 36 84 36q38 0 63 -27zM1679 1765q25 -27 25 -65q0 -50 -36 -86q-37 -36 -86 -36q-38 0 -63 27t-25 67q0 47 38 84q37 36 84 36
q38 0 63 -27z" />
    <glyph glyph-name="Yacute" unicode="&#xdd;" horiz-adv-x="1088" 
d="M1214 1259l-324 -578l-50 -321q-27 -171 -23 -225q5 -89 73 -115q38 -15 100 -15v-5h-817v5q44 0 79 8q34 8 59 21q24 12 44 38q19 26 31 49t23 67q10 44 16 78t15 94l30 202q-25 191 -78 367q-54 175 -133 295q-79 119 -162 119q-37 0 -94 -46l-3 5q75 63 174 108
q98 44 194 44q92 0 168 -38t129 -104q52 -66 89 -154q36 -88 52 -190t16 -210q0 -109 -18 -216l404 720q32 56 59 97q26 40 65 94t79 92q39 37 87 72q47 35 102 53t114 18q123 0 199 -76q75 -77 75 -198q0 -132 -85 -231q-86 -99 -221 -99q-106 0 -171 60t-65 146
q0 59 35 115q34 55 111 75q37 -84 124 -84q61 0 98 39t37 98q0 58 -38 102q-39 43 -120 43q-239 0 -479 -419zM866 1522q117 54 230 117q112 62 167 94q54 31 71 31q28 0 28 -24l-494 -222z" />
    <glyph glyph-name="Thorn" unicode="&#xde;" horiz-adv-x="1387" 
d="M634 292q-15 -94 -13 -158t44 -96q41 -33 133 -33v-5h-818v5q31 0 57 3t47 12l38 17q16 8 31 26l24 31q9 13 19 41l15 45q5 17 12 54l22 126l107 680q27 174 23 230q-6 85 -73 111q-38 14 -102 14v5h819v-5q-56 0 -96 -12q-40 -13 -66 -33t-44 -59q-19 -39 -29 -78
q-10 -40 -21 -105h91q296 0 444 -79t148 -252q0 -80 -25 -148q-26 -68 -69 -117t-103 -87q-61 -39 -128 -63q-68 -25 -145 -41t-149 -22q-73 -7 -148 -7h-22l1 7h14q149 0 228 97q79 96 113 306q14 89 14 152q0 127 -53 187q-54 60 -171 60h-41z" />
    <glyph glyph-name="germandbls" unicode="&#xdf;" horiz-adv-x="1524" 
d="M905 -9q-48 5 -102 20q-54 14 -95 37q-41 22 -68 61q-27 38 -27 87q0 77 53 135q53 57 133 57q64 0 108 -38q44 -39 36 -108q-43 -15 -68 -51q-26 -37 -26 -81q0 -117 166 -117q114 0 167 47t53 111q0 42 -28 79q-29 36 -75 65q-46 28 -101 56q-55 27 -110 58
q-56 31 -102 66q-46 34 -74 84q-29 49 -29 108q0 58 24 110q24 51 63 90q38 39 85 76l93 75q46 37 84 77t63 93q24 53 24 113q0 67 -30 117t-82 79t-116 43q-65 14 -141 14q-68 0 -129 -16q-62 -17 -114 -50q-52 -34 -82 -91q-31 -57 -31 -130q0 -81 55 -139q54 -59 160 -74
l-162 -1028q-12 -77 -34 -147q-22 -71 -58 -139t-83 -117q-47 -50 -113 -80q-66 -31 -143 -31q-116 0 -187 61q-72 60 -72 155q0 103 67 157q67 53 159 53q85 0 143 -54q57 -54 47 -150q-55 3 -86 -21q-31 -25 -31 -68q0 -37 23 -62q22 -26 64 -26q58 0 91 50q33 49 33 120
q0 46 -19 89q-20 42 -47 75q-27 32 -52 66q-26 33 -40 77q-14 43 -6 92l145 918h-167l1 6h169q2 58 12 124q29 183 163 285q133 101 325 101q105 0 186 -24q81 -25 135 -85q53 -60 53 -150q0 -52 -21 -111q-22 -59 -47 -103q-26 -45 -47 -98q-22 -53 -22 -94q0 -45 27 -81
t71 -61q43 -26 96 -51q52 -25 105 -54q52 -29 96 -64q43 -35 70 -89t27 -121q0 -169 -147 -278q-147 -110 -367 -110q-47 0 -94 5z" />
    <glyph glyph-name="agrave" unicode="&#xe0;" 
d="M640 973q-64 -80 -106 -201q-43 -121 -67 -259q-25 -139 -25 -261q0 -67 21 -118t58 -51q58 0 121 91t111 228t74 287l22 122q44 241 -75 241q-70 0 -134 -79zM1126 436q-9 -50 -15 -92q-6 -43 -11 -96q-6 -54 -5 -94q0 -41 6 -77t22 -55q15 -19 40 -18l-3 -4
q-64 -14 -142 -14q-54 0 -98 10q-44 9 -83 31q-40 22 -61 59t-29 92t11 130l70 309l-4 1q-46 -182 -99 -308t-111 -195q-59 -70 -119 -99q-60 -30 -131 -30q-76 0 -132 32q-57 31 -89 85q-32 53 -47 117q-16 63 -16 136q0 118 53 245q52 126 137 229q85 102 204 168
q118 66 239 66q68 0 146 -22q77 -22 143 -44t107 -22q79 0 123 80zM814 1142l-408 317q0 15 11 25q10 10 26 10q15 0 55 -41t131 -132q90 -92 188 -175z" />
    <glyph glyph-name="aacute" unicode="&#xe1;" 
d="M640 973q-64 -80 -106 -201q-43 -121 -67 -259q-25 -139 -25 -261q0 -67 21 -118t58 -51q58 0 121 91t111 228t74 287l22 122q44 241 -75 241q-70 0 -134 -79zM1126 436q-9 -50 -15 -92q-6 -43 -11 -96q-6 -54 -5 -94q0 -41 6 -77t22 -55q15 -19 40 -18l-3 -4
q-64 -14 -142 -14q-54 0 -98 10q-44 9 -83 31q-40 22 -61 59t-29 92t11 130l70 309l-4 1q-46 -182 -99 -308t-111 -195q-59 -70 -119 -99q-60 -30 -131 -30q-76 0 -132 32q-57 31 -89 85q-32 53 -47 117q-16 63 -16 136q0 118 53 245q52 126 137 229q85 102 204 168
q118 66 239 66q68 0 146 -22q77 -22 143 -44t107 -22q79 0 123 80zM706 1146q125 83 244 175l172 132q53 41 68 41q27 0 27 -27l-509 -325z" />
    <glyph glyph-name="acircumflex" unicode="&#xe2;" 
d="M640 973q-64 -80 -106 -201q-43 -121 -67 -259q-25 -139 -25 -261q0 -67 21 -118t58 -51q58 0 121 91t111 228t74 287l22 122q44 241 -75 241q-70 0 -134 -79zM1126 436q-9 -50 -15 -92q-6 -43 -11 -96q-6 -54 -5 -94q0 -41 6 -77t22 -55q15 -19 40 -18l-3 -4
q-64 -14 -142 -14q-54 0 -98 10q-44 9 -83 31q-40 22 -61 59t-29 92t11 130l70 309l-4 1q-46 -182 -99 -308t-111 -195q-59 -70 -119 -99q-60 -30 -131 -30q-76 0 -132 32q-57 31 -89 85q-32 53 -47 117q-16 63 -16 136q0 118 53 245q52 126 137 229q85 102 204 168
q118 66 239 66q68 0 146 -22q77 -22 143 -44t107 -22q79 0 123 80zM1075 1146l-4 -4l-255 274l-343 -274l-2 4l356 344z" />
    <glyph glyph-name="atilde" unicode="&#xe3;" 
d="M640 973q-64 -80 -106 -201q-43 -121 -67 -259q-25 -139 -25 -261q0 -67 21 -118t58 -51q58 0 121 91t111 228t74 287l22 122q44 241 -75 241q-70 0 -134 -79zM1126 436q-9 -50 -15 -92q-6 -43 -11 -96q-6 -54 -5 -94q0 -41 6 -77t22 -55q15 -19 40 -18l-3 -4
q-64 -14 -142 -14q-54 0 -98 10q-44 9 -83 31q-40 22 -61 59t-29 92t11 130l70 309l-4 1q-46 -182 -99 -308t-111 -195q-59 -70 -119 -99q-60 -30 -131 -30q-76 0 -132 32q-57 31 -89 85q-32 53 -47 117q-16 63 -16 136q0 118 53 245q52 126 137 229q85 102 204 168
q118 66 239 66q68 0 146 -22q77 -22 143 -44t107 -22q79 0 123 80zM1176 1302q-55 -87 -97 -117q-43 -31 -93 -31q-44 0 -86 18q-43 18 -77 44q-34 25 -67 51q-34 25 -74 43q-41 18 -83 18q-47 0 -86 -31q-40 -31 -94 -119l-6 3q56 91 97 123q41 31 90 31q43 0 84 -18
t75 -43l67 -51q33 -26 75 -44t86 -18q48 0 89 30q40 29 95 114z" />
    <glyph glyph-name="adieresis" unicode="&#xe4;" 
d="M640 973q-64 -80 -106 -201q-43 -121 -67 -259q-25 -139 -25 -261q0 -67 21 -118t58 -51q58 0 121 91t111 228t74 287l22 122q44 241 -75 241q-70 0 -134 -79zM1126 436q-9 -50 -15 -92q-6 -43 -11 -96q-6 -54 -5 -94q0 -41 6 -77t22 -55q15 -19 40 -18l-3 -4
q-64 -14 -142 -14q-54 0 -98 10q-44 9 -83 31q-40 22 -61 59t-29 92t11 130l70 309l-4 1q-46 -182 -99 -308t-111 -195q-59 -70 -119 -99q-60 -30 -131 -30q-76 0 -132 32q-57 31 -89 85q-32 53 -47 117q-16 63 -16 136q0 118 53 245q52 126 137 229q85 102 204 168
q118 66 239 66q68 0 146 -22q77 -22 143 -44t107 -22q79 0 123 80zM673 1340q25 -27 25 -66q0 -50 -37 -86q-38 -36 -87 -36q-38 0 -63 27q-26 26 -26 66q0 49 38 85t85 36q39 0 65 -26zM1069 1340q25 -27 25 -66q0 -50 -37 -86q-38 -36 -87 -36q-38 0 -63 27q-26 26 -26 66
q0 49 38 85t85 36q39 0 65 -26z" />
    <glyph glyph-name="aring" unicode="&#xe5;" 
d="M640 973q-64 -80 -106 -201q-43 -121 -67 -259q-25 -139 -25 -261q0 -67 21 -118t58 -51q58 0 121 91t111 228t74 287l22 122q44 241 -75 241q-70 0 -134 -79zM1126 436q-9 -50 -15 -92q-6 -43 -11 -96q-6 -54 -5 -94q0 -41 6 -77t22 -55q15 -19 40 -18l-3 -4
q-64 -14 -142 -14q-54 0 -98 10q-44 9 -83 31q-40 22 -61 59t-29 92t11 130l70 309l-4 1q-46 -182 -99 -308t-111 -195q-59 -70 -119 -99q-60 -30 -131 -30q-76 0 -132 32q-57 31 -89 85q-32 53 -47 117q-16 63 -16 136q0 118 53 245q52 126 137 229q85 102 204 168
q118 66 239 66q68 0 146 -22q77 -22 143 -44t107 -22q79 0 123 80zM958 1465q50 -49 50 -120q0 -88 -72 -152q-72 -65 -165 -65q-77 0 -126 49q-50 48 -50 121q0 87 72 152q71 64 165 64q76 0 126 -49zM672 1445q-70 -63 -70 -147q0 -70 48 -116q47 -47 121 -47q90 0 160 63
q70 62 70 147q0 68 -48 115t-121 47q-91 0 -160 -62z" />
    <glyph glyph-name="ae" unicode="&#xe6;" horiz-adv-x="1812" 
d="M1185 642q84 -10 150 2q66 11 107 38q40 27 67 68q26 40 37 82q10 41 10 86q0 63 -27 101q-28 38 -84 38q-83 0 -150 -81t-99 -192q-33 -111 -33 -218q0 -76 18 -142q17 -66 52 -119t94 -83q58 -31 134 -31q77 0 158 37q80 37 146 117l5 -3q-97 -161 -248 -258
q-152 -98 -322 -98q-183 0 -292 115q-109 114 -109 313q0 105 33 201l-8 3q-46 -182 -99 -308t-111 -195q-59 -70 -119 -99q-60 -30 -131 -30q-76 0 -132 32q-57 31 -89 85q-32 53 -47 117q-16 63 -16 136q0 118 53 245q52 126 137 229q85 102 204 168q118 66 239 66
q78 0 140 -24t119 -61q57 -38 86 -49q176 134 400 134q52 0 101 -5q48 -5 101 -20q53 -16 92 -39q39 -24 65 -65q25 -42 25 -95q0 -47 -20 -90q-21 -44 -70 -81q-50 -38 -123 -58t-188 -14q-116 6 -257 43zM640 973q-64 -80 -106 -201q-43 -121 -67 -259q-25 -139 -25 -261
q0 -67 21 -118t58 -51q58 0 121 91t111 228t74 287l22 122q44 241 -75 241q-70 0 -134 -79z" />
    <glyph glyph-name="ccedilla" unicode="&#xe7;" horiz-adv-x="1096" 
d="M273 -339q15 -22 50 -36q35 -15 76 -15q80 0 125 38q44 37 44 89q0 47 -41 83q-42 36 -118 45q38 66 56 122q-167 8 -276 118t-109 304q0 130 52 250t141 209t215 143q125 53 264 53q60 0 121 -11q61 -12 123 -37q62 -26 101 -77q39 -52 39 -123q0 -89 -64 -156
q-65 -68 -164 -68q-74 0 -121 46q-47 45 -37 130q59 16 91 58q31 42 31 92q0 56 -35 98q-35 41 -98 41q-70 0 -127 -53t-89 -133q-33 -81 -50 -165t-17 -157q0 -163 83 -260q82 -98 216 -98q83 0 164 39t140 115l5 -3q-69 -115 -166 -197q-98 -82 -201 -120
q-104 -39 -207 -39l-17 1q-17 -52 -52 -115q74 -9 114 -46t40 -87q0 -56 -47 -96q-47 -41 -131 -41q-43 0 -79 16q-36 15 -51 38z" />
    <glyph glyph-name="egrave" unicode="&#xe8;" horiz-adv-x="1096" 
d="M479 642q84 -10 150 2q66 11 107 38q40 27 67 68q26 40 37 82q10 41 10 86q0 63 -27 101q-28 38 -84 38q-83 0 -150 -81t-99 -192q-33 -111 -33 -218q0 -76 18 -142q17 -66 52 -119t94 -83q58 -31 134 -31q77 0 158 37q80 37 146 117l5 -3q-97 -161 -248 -258
q-152 -98 -322 -98q-185 0 -299 115q-115 115 -115 313q0 127 52 246q52 118 141 208q89 89 215 143q125 53 264 53q52 0 101 -5q48 -5 101 -20q53 -16 92 -39q39 -24 65 -65q25 -42 25 -95q0 -47 -20 -90q-21 -44 -70 -81q-50 -38 -123 -58t-188 -14q-116 6 -257 43z
M762 1142l-408 317q0 15 11 25q10 10 26 10q15 0 55 -41t131 -132q90 -92 188 -175z" />
    <glyph glyph-name="eacute" unicode="&#xe9;" horiz-adv-x="1096" 
d="M479 642q84 -10 150 2q66 11 107 38q40 27 67 68q26 40 37 82q10 41 10 86q0 63 -27 101q-28 38 -84 38q-83 0 -150 -81t-99 -192q-33 -111 -33 -218q0 -76 18 -142q17 -66 52 -119t94 -83q58 -31 134 -31q77 0 158 37q80 37 146 117l5 -3q-97 -161 -248 -258
q-152 -98 -322 -98q-185 0 -299 115q-115 115 -115 313q0 127 52 246q52 118 141 208q89 89 215 143q125 53 264 53q52 0 101 -5q48 -5 101 -20q53 -16 92 -39q39 -24 65 -65q25 -42 25 -95q0 -47 -20 -90q-21 -44 -70 -81q-50 -38 -123 -58t-188 -14q-116 6 -257 43z
M654 1146q125 83 244 175l172 132q53 41 68 41q27 0 27 -27l-509 -325z" />
    <glyph glyph-name="ecircumflex" unicode="&#xea;" horiz-adv-x="1096" 
d="M479 642q84 -10 150 2q66 11 107 38q40 27 67 68q26 40 37 82q10 41 10 86q0 63 -27 101q-28 38 -84 38q-83 0 -150 -81t-99 -192q-33 -111 -33 -218q0 -76 18 -142q17 -66 52 -119t94 -83q58 -31 134 -31q77 0 158 37q80 37 146 117l5 -3q-97 -161 -248 -258
q-152 -98 -322 -98q-185 0 -299 115q-115 115 -115 313q0 127 52 246q52 118 141 208q89 89 215 143q125 53 264 53q52 0 101 -5q48 -5 101 -20q53 -16 92 -39q39 -24 65 -65q25 -42 25 -95q0 -47 -20 -90q-21 -44 -70 -81q-50 -38 -123 -58t-188 -14q-116 6 -257 43z
M1023 1146l-4 -4l-255 274l-343 -274l-2 4l356 344z" />
    <glyph glyph-name="edieresis" unicode="&#xeb;" horiz-adv-x="1096" 
d="M479 642q84 -10 150 2q66 11 107 38q40 27 67 68q26 40 37 82q10 41 10 86q0 63 -27 101q-28 38 -84 38q-83 0 -150 -81t-99 -192q-33 -111 -33 -218q0 -76 18 -142q17 -66 52 -119t94 -83q58 -31 134 -31q77 0 158 37q80 37 146 117l5 -3q-97 -161 -248 -258
q-152 -98 -322 -98q-185 0 -299 115q-115 115 -115 313q0 127 52 246q52 118 141 208q89 89 215 143q125 53 264 53q52 0 101 -5q48 -5 101 -20q53 -16 92 -39q39 -24 65 -65q25 -42 25 -95q0 -47 -20 -90q-21 -44 -70 -81q-50 -38 -123 -58t-188 -14q-116 6 -257 43z
M1017 1340q25 -27 25 -66q0 -50 -37 -86q-38 -36 -87 -36q-38 0 -63 27q-26 26 -26 66q0 49 38 85t85 36q39 0 65 -26zM621 1340q25 -27 25 -66q0 -50 -37 -86q-38 -36 -87 -36q-38 0 -63 27q-26 26 -26 66q0 49 38 85t85 36q39 0 65 -26z" />
    <glyph glyph-name="igrave" unicode="&#xec;" horiz-adv-x="560" 
d="M476 426q-37 -225 -36 -309q1 -96 36 -113l-2 -4q-74 -16 -140 -16q-39 0 -72 6q-34 6 -65 21q-31 14 -52 38q-22 23 -37 58q-16 35 -17 82q-2 47 7 109l104 630q7 44 -14 59q-22 14 -71 -4l-3 3q59 29 149 54q90 24 157 24q87 0 118 -39q30 -39 14 -139zM483 1142
l-408 317q0 15 11 25q10 10 26 10q15 0 55 -41t131 -132q90 -92 188 -175z" />
    <glyph glyph-name="iacute" unicode="&#xed;" horiz-adv-x="560" 
d="M477 426q-37 -225 -36 -309q1 -96 36 -113l-2 -4q-74 -16 -140 -16q-39 0 -72 6q-34 6 -65 21q-31 14 -52 38q-22 23 -37 58q-16 35 -17 82q-2 47 7 109l104 630q7 44 -14 59q-22 14 -71 -4l-3 3q59 29 149 54q90 24 157 24q87 0 118 -39q30 -39 14 -139zM213 1146
q125 83 244 175l172 132q53 41 68 41q27 0 27 -27l-509 -325z" />
    <glyph glyph-name="icircumflex" unicode="&#xee;" horiz-adv-x="560" 
d="M477 426q-37 -225 -36 -309q1 -96 36 -113l-2 -4q-74 -16 -140 -16q-39 0 -72 6q-34 6 -65 21q-31 14 -52 38q-22 23 -37 58q-16 35 -17 82q-2 47 7 109l104 630q7 44 -14 59q-22 14 -71 -4l-3 3q59 29 149 54q90 24 157 24q87 0 118 -39q30 -39 14 -139zM696 1146l-4 -4
l-255 274l-343 -274l-2 4l356 344z" />
    <glyph glyph-name="idieresis" unicode="&#xef;" horiz-adv-x="560" 
d="M477 426q-37 -225 -36 -309q1 -96 36 -113l-2 -4q-74 -16 -140 -16q-39 0 -72 6q-34 6 -65 21q-31 14 -52 38q-22 23 -37 58q-16 35 -17 82q-2 47 7 109l104 630q7 44 -14 59q-22 14 -71 -4l-3 3q59 29 149 54q90 24 157 24q87 0 118 -39q30 -39 14 -139zM313 1340
q25 -27 25 -66q0 -50 -37 -86q-38 -36 -87 -36q-38 0 -63 27q-26 26 -26 66q0 49 38 85t85 36q39 0 65 -26zM709 1340q25 -27 25 -66q0 -50 -37 -86q-38 -36 -87 -36q-38 0 -63 27q-26 26 -26 66q0 49 38 85t85 36q39 0 65 -26z" />
    <glyph glyph-name="eth" unicode="&#xf0;" horiz-adv-x="1221" 
d="M932 1004q19 203 -16 328l-232 -126l-2 6l232 126q-47 169 -207 228l3 6q192 -29 327 -167l244 133l2 -6l-241 -131q108 -112 166 -274q57 -163 57 -341q0 -120 -26 -234q-26 -115 -81 -218t-133 -180q-79 -77 -191 -122q-112 -46 -245 -46q-214 0 -349 126
q-136 126 -136 325q0 122 53 238q53 115 142 200q88 85 210 137q121 52 251 52q95 0 172 -60zM706 62q52 69 83 170q31 100 53 222q21 122 30 221q8 99 8 171q0 211 -121 211q-63 0 -115 -69q-52 -70 -83 -172t-52 -224q-22 -123 -30 -221q-9 -99 -9 -169q0 -209 120 -209
q63 0 116 69z" />
    <glyph glyph-name="ntilde" unicode="&#xf1;" 
d="M466 434l6 -2q39 150 88 263q48 113 97 182t106 112q56 43 108 59q51 16 109 16q267 0 209 -344l-48 -284q-72 -413 38 -432l-4 -4q-80 -15 -146 -15q-52 0 -94 10q-43 9 -81 32q-39 22 -61 59t-32 92t4 130l80 496q15 80 6 127q-9 46 -47 46q-77 0 -173 -162
q-96 -163 -152 -387q-96 -391 -16 -424l-4 -4q-114 -16 -169 -16q-62 0 -102 15q-40 14 -66 50q-27 35 -29 96q-2 60 12 153l112 630q8 44 -14 59q-22 14 -71 -4l-3 3q59 29 149 54q90 24 157 24q89 0 124 -40q34 -41 12 -138zM1157 1302q-55 -87 -97 -117q-43 -31 -93 -31
q-44 0 -86 18q-43 18 -77 44q-34 25 -67 51q-34 25 -74 43q-41 18 -83 18q-47 0 -86 -31q-40 -31 -94 -119l-6 3q56 91 97 123q41 31 90 31q43 0 84 -18t75 -43l67 -51q33 -26 75 -44t86 -18q48 0 89 30q40 29 95 114z" />
    <glyph glyph-name="ograve" unicode="&#xf2;" horiz-adv-x="1202" 
d="M1087 939q135 -126 135 -325q0 -123 -53 -238q-53 -116 -141 -201q-88 -86 -210 -137q-122 -52 -253 -52q-214 0 -349 126q-136 126 -136 324q0 170 89 315q88 145 239 229t328 84q215 0 351 -125zM681 60q52 67 84 167q31 99 53 221q22 121 31 223q8 101 8 179
q0 207 -122 207q-62 0 -114 -69t-83 -171q-32 -102 -54 -224q-22 -123 -30 -223q-9 -101 -9 -173q0 -204 121 -204q63 0 115 67zM803 1142l-408 317q0 15 11 25q10 10 26 10q15 0 55 -41t131 -132q90 -92 188 -175z" />
    <glyph glyph-name="oacute" unicode="&#xf3;" horiz-adv-x="1202" 
d="M1087 939q135 -126 135 -325q0 -123 -53 -238q-53 -116 -141 -201q-88 -86 -210 -137q-122 -52 -253 -52q-214 0 -349 126q-136 126 -136 324q0 170 89 315q88 145 239 229t328 84q215 0 351 -125zM681 60q52 67 84 167q31 99 53 221q22 121 31 223q8 101 8 179
q0 207 -122 207q-62 0 -114 -69t-83 -171q-32 -102 -54 -224q-22 -123 -30 -223q-9 -101 -9 -173q0 -204 121 -204q63 0 115 67zM598 1146q125 83 244 175l172 132q53 41 68 41q27 0 27 -27l-509 -325z" />
    <glyph glyph-name="ocircumflex" unicode="&#xf4;" horiz-adv-x="1202" 
d="M1087 939q135 -126 135 -325q0 -123 -53 -238q-53 -116 -141 -201q-88 -86 -210 -137q-122 -52 -253 -52q-214 0 -349 126q-136 126 -136 324q0 170 89 315q88 145 239 229t328 84q215 0 351 -125zM681 60q52 67 84 167q31 99 53 221q22 121 31 223q8 101 8 179
q0 207 -122 207q-62 0 -114 -69t-83 -171q-32 -102 -54 -224q-22 -123 -30 -223q-9 -101 -9 -173q0 -204 121 -204q63 0 115 67zM1064 1146l-4 -4l-255 274l-343 -274l-2 4l356 344z" />
    <glyph glyph-name="otilde" unicode="&#xf5;" horiz-adv-x="1202" 
d="M1087 939q135 -126 135 -325q0 -123 -53 -238q-53 -116 -141 -201q-88 -86 -210 -137q-122 -52 -253 -52q-214 0 -349 126q-136 126 -136 324q0 170 89 315q88 145 239 229t328 84q215 0 351 -125zM681 60q52 67 84 167q31 99 53 221q22 121 31 223q8 101 8 179
q0 207 -122 207q-62 0 -114 -69t-83 -171q-32 -102 -54 -224q-22 -123 -30 -223q-9 -101 -9 -173q0 -204 121 -204q63 0 115 67zM1156 1302q-55 -87 -97 -117q-43 -31 -93 -31q-44 0 -86 18q-43 18 -77 44q-34 25 -67 51q-34 25 -74 43q-41 18 -83 18q-47 0 -86 -31
q-40 -31 -94 -119l-6 3q56 91 97 123q41 31 90 31q43 0 84 -18t75 -43l67 -51q33 -26 75 -44t86 -18q48 0 89 30q40 29 95 114z" />
    <glyph glyph-name="odieresis" unicode="&#xf6;" horiz-adv-x="1202" 
d="M1087 939q135 -126 135 -325q0 -123 -53 -238q-53 -116 -141 -201q-88 -86 -210 -137q-122 -52 -253 -52q-214 0 -349 126q-136 126 -136 324q0 170 89 315q88 145 239 229t328 84q215 0 351 -125zM681 60q52 67 84 167q31 99 53 221q22 121 31 223q8 101 8 179
q0 207 -122 207q-62 0 -114 -69t-83 -171q-32 -102 -54 -224q-22 -123 -30 -223q-9 -101 -9 -173q0 -204 121 -204q63 0 115 67zM650 1340q25 -27 25 -66q0 -50 -37 -86q-38 -36 -87 -36q-38 0 -63 27q-26 26 -26 66q0 49 38 85t85 36q39 0 65 -26zM1046 1340q25 -27 25 -66
q0 -50 -37 -86q-38 -36 -87 -36q-38 0 -63 27q-26 26 -26 66q0 49 38 85t85 36q39 0 65 -26z" />
    <glyph glyph-name="divide" unicode="&#xf7;" horiz-adv-x="1045" 
d="M1045 605l-1 -10h-854l1 10h854zM748 1012q23 -29 17 -68q-7 -40 -38 -68q-32 -28 -70 -28q-39 0 -62 28t-16 68q6 39 38 68q31 28 70 28q38 0 61 -28zM639 324q23 -29 17 -68q-7 -40 -38 -68q-32 -28 -70 -28q-39 0 -62 28t-16 68q6 39 38 68q31 28 70 28q38 0 61 -28z
" />
    <glyph glyph-name="oslash" unicode="&#xf8;" horiz-adv-x="1202" 
d="M987 1007l83 117l5 -3l-83 -117q108 -57 169 -158q61 -102 61 -232q0 -123 -53 -238q-53 -116 -141 -201q-88 -86 -210 -137q-122 -52 -253 -52q-142 0 -251 57l-87 -123l-4 3l86 122q-108 57 -168 159q-61 102 -61 232q0 170 89 315q88 145 239 229t328 84
q139 0 251 -57zM676 54q50 61 81 153q31 91 54 206t33 214t12 184l-411 -582v-32q0 -204 121 -204q60 0 110 61zM626 995q-50 -62 -81 -154q-31 -93 -54 -209t-33 -214t-13 -180l412 583v29q0 207 -122 207q-59 0 -109 -62z" />
    <glyph glyph-name="ugrave" unicode="&#xf9;" horiz-adv-x="1208" 
d="M444 244q-14 -80 -1 -126q13 -47 52 -47q76 0 168 161q91 161 147 388q98 398 16 432l4 4q63 8 169 8q62 0 102 -14q40 -15 67 -50q26 -36 28 -96q2 -61 -12 -154l-56 -314q-14 -77 -21 -142q-8 -66 -10 -137q-2 -72 16 -113q17 -41 53 -40l-3 -4q-64 -14 -142 -14
q-54 0 -97 10q-44 9 -83 31q-40 22 -61 59q-22 37 -30 92q-9 55 9 130l64 306l-6 2q-39 -150 -86 -263q-48 -113 -95 -182q-48 -70 -103 -112q-55 -43 -105 -59q-51 -16 -109 -16q-69 0 -117 24q-48 23 -71 58q-23 34 -32 83q-10 49 -8 91q1 41 9 88l100 600q8 44 -14 59
q-22 14 -71 -4l-3 3q59 29 149 54q90 24 157 24q87 0 118 -39q30 -39 14 -139zM759 1142l-408 317q0 15 11 25q10 10 26 10q15 0 55 -41t131 -132q90 -92 188 -175z" />
    <glyph glyph-name="uacute" unicode="&#xfa;" horiz-adv-x="1208" 
d="M444 244q-14 -80 -1 -126q13 -47 52 -47q76 0 168 161q91 161 147 388q98 398 16 432l4 4q63 8 169 8q62 0 102 -14q40 -15 67 -50q26 -36 28 -96q2 -61 -12 -154l-56 -314q-14 -77 -21 -142q-8 -66 -10 -137q-2 -72 16 -113q17 -41 53 -40l-3 -4q-64 -14 -142 -14
q-54 0 -97 10q-44 9 -83 31q-40 22 -61 59q-22 37 -30 92q-9 55 9 130l64 306l-6 2q-39 -150 -86 -263q-48 -113 -95 -182q-48 -70 -103 -112q-55 -43 -105 -59q-51 -16 -109 -16q-69 0 -117 24q-48 23 -71 58q-23 34 -32 83q-10 49 -8 91q1 41 9 88l100 600q8 44 -14 59
q-22 14 -71 -4l-3 3q59 29 149 54q90 24 157 24q87 0 118 -39q30 -39 14 -139zM651 1146q125 83 244 175l172 132q53 41 68 41q27 0 27 -27l-509 -325z" />
    <glyph glyph-name="ucircumflex" unicode="&#xfb;" horiz-adv-x="1208" 
d="M444 244q-14 -80 -1 -126q13 -47 52 -47q76 0 168 161q91 161 147 388q98 398 16 432l4 4q63 8 169 8q62 0 102 -14q40 -15 67 -50q26 -36 28 -96q2 -61 -12 -154l-56 -314q-14 -77 -21 -142q-8 -66 -10 -137q-2 -72 16 -113q17 -41 53 -40l-3 -4q-64 -14 -142 -14
q-54 0 -97 10q-44 9 -83 31q-40 22 -61 59q-22 37 -30 92q-9 55 9 130l64 306l-6 2q-39 -150 -86 -263q-48 -113 -95 -182q-48 -70 -103 -112q-55 -43 -105 -59q-51 -16 -109 -16q-69 0 -117 24q-48 23 -71 58q-23 34 -32 83q-10 49 -8 91q1 41 9 88l100 600q8 44 -14 59
q-22 14 -71 -4l-3 3q59 29 149 54q90 24 157 24q87 0 118 -39q30 -39 14 -139zM1020 1146l-4 -4l-255 274l-343 -274l-2 4l356 344z" />
    <glyph glyph-name="udieresis" unicode="&#xfc;" horiz-adv-x="1208" 
d="M444 244q-14 -80 -1 -126q13 -47 52 -47q76 0 168 161q91 161 147 388q98 398 16 432l4 4q63 8 169 8q62 0 102 -14q40 -15 67 -50q26 -36 28 -96q2 -61 -12 -154l-56 -314q-14 -77 -21 -142q-8 -66 -10 -137q-2 -72 16 -113q17 -41 53 -40l-3 -4q-64 -14 -142 -14
q-54 0 -97 10q-44 9 -83 31q-40 22 -61 59q-22 37 -30 92q-9 55 9 130l64 306l-6 2q-39 -150 -86 -263q-48 -113 -95 -182q-48 -70 -103 -112q-55 -43 -105 -59q-51 -16 -109 -16q-69 0 -117 24q-48 23 -71 58q-23 34 -32 83q-10 49 -8 91q1 41 9 88l100 600q8 44 -14 59
q-22 14 -71 -4l-3 3q59 29 149 54q90 24 157 24q87 0 118 -39q30 -39 14 -139zM618 1340q25 -27 25 -66q0 -50 -37 -86q-38 -36 -87 -36q-38 0 -63 27q-26 26 -26 66q0 49 38 85t85 36q39 0 65 -26zM1014 1340q25 -27 25 -66q0 -50 -37 -86q-38 -36 -87 -36q-38 0 -63 27
q-26 26 -26 66q0 49 38 85t85 36q39 0 65 -26z" />
    <glyph glyph-name="yacute" unicode="&#xfd;" horiz-adv-x="1192" 
d="M1068 14q-34 -214 -194 -339t-436 -125q-45 0 -87 4q-42 3 -89 12q-47 8 -85 25q-38 16 -69 40q-31 23 -48 58q-18 35 -18 79q0 83 59 139q59 55 145 55q68 0 118 -45t42 -121q-55 -6 -83 -39q-29 -33 -29 -76q0 -49 37 -86q37 -38 118 -38q57 0 97 20t67 63t44 96
q16 53 31 134l134 744l-6 2q-39 -150 -86 -263q-48 -113 -95 -182q-48 -70 -103 -112q-55 -43 -105 -59q-51 -16 -109 -16q-69 0 -117 24q-48 23 -71 58q-23 34 -32 83q-10 49 -8 91q1 41 9 88l100 600q8 44 -14 59q-22 14 -71 -4l-3 3q59 29 149 54q90 24 157 24
q87 0 118 -39q30 -39 14 -139l-106 -642q-14 -80 -1 -126q13 -47 52 -47q76 0 168 161q91 161 147 388q98 398 16 432l4 4q63 8 169 8q62 0 101 -14t66 -50q26 -36 28 -96q2 -61 -10 -154zM664 1146q125 83 244 175l172 132q53 41 68 41q27 0 27 -27l-509 -325z" />
    <glyph glyph-name="thorn" unicode="&#xfe;" horiz-adv-x="1180" 
d="M377 -14q-76 -408 4 -432l-4 -4q-61 -8 -116 -8q-42 0 -76 6q-35 5 -69 19q-34 13 -56 36q-23 23 -40 59q-17 35 -18 84q-1 48 7 112l257 1586q8 44 -14 59q-22 14 -71 -4l-3 3q59 29 149 54q90 24 157 24q89 0 124 -40q34 -41 12 -138l-178 -970l8 -2q38 148 82 261
q44 112 89 186q45 73 97 119q51 46 103 65q51 19 110 19q140 0 209 -94q68 -94 68 -244q0 -98 -27 -200q-28 -103 -84 -199q-56 -97 -133 -173t-184 -122t-228 -46q-79 0 -136 18l1 2q88 -3 171 79q82 81 138 207t90 275t34 282q0 75 -13 112q-14 36 -50 36q-57 0 -127 -98
q-70 -99 -126 -245q-56 -147 -84 -293z" />
    <glyph glyph-name="ydieresis" unicode="&#xff;" horiz-adv-x="1192" 
d="M1068 14q-34 -214 -194 -339t-436 -125q-45 0 -87 4q-42 3 -89 12q-47 8 -85 25q-38 16 -69 40q-31 23 -48 58q-18 35 -18 79q0 83 59 139q59 55 145 55q68 0 118 -45t42 -121q-55 -6 -83 -39q-29 -33 -29 -76q0 -49 37 -86q37 -38 118 -38q57 0 97 20t67 63t44 96
q16 53 31 134l134 744l-6 2q-39 -150 -86 -263q-48 -113 -95 -182q-48 -70 -103 -112q-55 -43 -105 -59q-51 -16 -109 -16q-69 0 -117 24q-48 23 -71 58q-23 34 -32 83q-10 49 -8 91q1 41 9 88l100 600q8 44 -14 59q-22 14 -71 -4l-3 3q59 29 149 54q90 24 157 24
q87 0 118 -39q30 -39 14 -139l-106 -642q-14 -80 -1 -126q13 -47 52 -47q76 0 168 161q91 161 147 388q98 398 16 432l4 4q63 8 169 8q62 0 101 -14t66 -50q26 -36 28 -96q2 -61 -10 -154zM631 1340q25 -27 25 -66q0 -50 -37 -86q-38 -36 -87 -36q-38 0 -63 27
q-26 26 -26 66q0 49 38 85t85 36q39 0 65 -26zM1027 1340q25 -27 25 -66q0 -50 -37 -86q-38 -36 -87 -36q-38 0 -63 27q-26 26 -26 66q0 49 38 85t85 36q39 0 65 -26z" />
    <glyph glyph-name="OE" unicode="&#x152;" horiz-adv-x="2200" 
d="M1622 1394q-54 -38 -86 -95q-33 -58 -50 -122q-18 -64 -18 -123q0 -116 61 -201t165 -85h54l-1 -6h-35q-102 0 -192 -54t-150 -142q-61 -89 -95 -201q-35 -112 -35 -229q0 -60 9 -112t33 -104q23 -52 60 -88q36 -37 96 -60t138 -23q105 0 197 34q91 33 154 88
q62 55 108 126q45 70 66 144q21 73 21 143q0 108 -60 182q-60 73 -182 73q-99 0 -145 -50q-47 -51 -47 -139q0 -66 41 -108q40 -42 103 -44q10 -88 -57 -151q-68 -63 -157 -63q-103 0 -162 58q-60 57 -60 146q0 104 74 188q73 84 181 127t222 43q156 0 242 -83
q85 -83 85 -208q0 -70 -27 -142q-28 -72 -86 -139q-58 -68 -139 -120q-81 -53 -197 -84q-116 -32 -251 -32q-211 0 -357 73q-147 73 -219 192q-85 -17 -167 -17q-128 0 -242 40q-115 39 -202 113q-88 73 -139 186q-52 113 -52 250q0 171 68 326q67 155 182 268
q114 112 274 179q160 66 338 66q176 0 317 -69q94 48 214 71q119 22 221 22q127 0 229 -33t166 -102q63 -70 63 -167q0 -113 -76 -185q-77 -73 -170 -73q-82 0 -141 59q-60 58 -39 143q60 13 99 54t39 112q0 81 -43 133t-122 52q-65 0 -119 -37zM1179 1253q-49 154 -197 154
q-78 0 -144 -51q-67 -51 -111 -131q-45 -81 -80 -186q-36 -106 -56 -209q-21 -103 -34 -205q-13 -103 -17 -170q-5 -68 -5 -110q0 -352 224 -352q78 0 144 50q-38 80 -38 172q0 112 47 209q46 96 137 172q90 75 236 120q146 44 331 47l1 3q-229 4 -364 93q-135 88 -135 227
q0 95 61 167z" />
    <glyph glyph-name="oe" unicode="&#x153;" horiz-adv-x="1846" 
d="M1219 642q84 -10 150 2q66 11 107 38q40 27 67 68q26 40 37 82q10 41 10 86q0 63 -27 101q-28 38 -84 38q-83 0 -150 -81t-99 -192q-33 -111 -33 -218q0 -76 18 -142q17 -66 52 -119t94 -83q58 -31 134 -31q77 0 158 37q80 37 146 117l5 -3q-97 -161 -248 -258
q-152 -98 -322 -98q-189 0 -299 122q-164 -122 -370 -122q-214 0 -349 126q-136 126 -136 324q0 170 89 315q88 145 239 229t328 84q222 0 345 -140q179 140 411 140q52 0 101 -5q48 -5 101 -20q53 -16 92 -39q39 -24 65 -65q25 -42 25 -95q0 -47 -20 -90q-21 -44 -70 -81
q-50 -38 -123 -58t-188 -14q-116 6 -257 43zM681 60q52 67 84 167q31 99 53 221q22 121 31 223q8 101 8 179q0 207 -122 207q-62 0 -114 -69t-83 -171q-32 -102 -54 -224q-22 -123 -30 -223q-9 -101 -9 -173q0 -204 121 -204q63 0 115 67z" />
    <glyph glyph-name="Ydieresis" unicode="&#x178;" horiz-adv-x="1088" 
d="M1214 1259l-324 -578l-50 -321q-27 -171 -23 -225q5 -89 73 -115q38 -15 100 -15v-5h-817v5q44 0 79 8q34 8 59 21q24 12 44 38q19 26 31 49t23 67q10 44 16 78t15 94l30 202q-25 191 -78 367q-54 175 -133 295q-79 119 -162 119q-37 0 -94 -46l-3 5q75 63 174 108
q98 44 194 44q92 0 168 -38t129 -104q52 -66 89 -154q36 -88 52 -190t16 -210q0 -109 -18 -216l404 720q32 56 59 97q26 40 65 94t79 92q39 37 87 72q47 35 102 53t114 18q123 0 199 -76q75 -77 75 -198q0 -132 -85 -231q-86 -99 -221 -99q-106 0 -171 60t-65 146
q0 59 35 115q34 55 111 75q37 -84 124 -84q61 0 98 39t37 98q0 58 -38 102q-39 43 -120 43q-239 0 -479 -419zM819 1701q25 -27 25 -65q0 -50 -36 -86q-37 -36 -86 -36q-38 0 -63 27t-25 67q0 47 38 84q37 36 84 36q38 0 63 -27zM1215 1701q25 -27 25 -65q0 -50 -36 -86
q-37 -36 -86 -36q-38 0 -63 27t-25 67q0 47 38 84q37 36 84 36q38 0 63 -27z" />
    <glyph glyph-name="circumflex" unicode="&#x2c6;" horiz-adv-x="0" 
d="M723 1146l-4 -4l-255 274l-343 -274l-2 4l356 344z" />
    <glyph glyph-name="tilde" unicode="&#x2dc;" horiz-adv-x="0" 
d="M832 1302q-55 -87 -97 -117q-43 -31 -93 -31q-44 0 -86 18q-43 18 -77 44q-34 25 -67 51q-34 25 -74 43q-41 18 -83 18q-47 0 -86 -31q-40 -31 -94 -119l-6 3q56 91 97 123q41 31 90 31q43 0 84 -18t75 -43l67 -51q33 -26 75 -44t86 -18q48 0 89 30q40 29 95 114z" />
    <glyph glyph-name="uni2000" unicode="&#x2000;" horiz-adv-x="978" 
 />
    <glyph glyph-name="uni2001" unicode="&#x2001;" horiz-adv-x="1956" 
 />
    <glyph glyph-name="uni2002" unicode="&#x2002;" horiz-adv-x="978" 
 />
    <glyph glyph-name="uni2003" unicode="&#x2003;" horiz-adv-x="1956" 
 />
    <glyph glyph-name="uni2004" unicode="&#x2004;" horiz-adv-x="652" 
 />
    <glyph glyph-name="uni2005" unicode="&#x2005;" horiz-adv-x="489" 
 />
    <glyph glyph-name="uni2006" unicode="&#x2006;" horiz-adv-x="326" 
 />
    <glyph glyph-name="uni2007" unicode="&#x2007;" horiz-adv-x="326" 
 />
    <glyph glyph-name="uni2008" unicode="&#x2008;" horiz-adv-x="244" 
 />
    <glyph glyph-name="uni2009" unicode="&#x2009;" horiz-adv-x="391" 
 />
    <glyph glyph-name="uni200A" unicode="&#x200a;" horiz-adv-x="108" 
 />
    <glyph glyph-name="uni2010" unicode="&#x2010;" horiz-adv-x="725" 
d="M780 645h-630l1 10h630z" />
    <glyph glyph-name="uni2011" unicode="&#x2011;" horiz-adv-x="725" 
d="M780 645h-630l1 10h630z" />
    <glyph glyph-name="figuredash" unicode="&#x2012;" horiz-adv-x="725" 
d="M780 645h-630l1 10h630z" />
    <glyph glyph-name="endash" unicode="&#x2013;" horiz-adv-x="933" 
d="M988 645h-838l1 10h838z" />
    <glyph glyph-name="emdash" unicode="&#x2014;" horiz-adv-x="1160" 
d="M1217 645h-1067l1 10h1067z" />
    <glyph glyph-name="quoteleft" unicode="&#x2018;" horiz-adv-x="494" 
d="M557 1509q-64 -55 -93 -125q-30 -71 -23 -133q7 -63 50 -112q43 -50 116 -67q11 -112 -60 -184q-72 -73 -164 -73q-70 0 -116 47q-47 47 -47 139q0 128 102 272q102 143 232 241z" />
    <glyph glyph-name="quoteright" unicode="&#x2019;" horiz-adv-x="495" 
d="M317 819q64 55 94 126q29 70 22 133q-7 62 -50 112q-43 49 -116 66q-11 112 61 185q71 72 163 72q70 0 117 -47q46 -47 46 -139q0 -128 -102 -271q-102 -144 -232 -242z" />
    <glyph glyph-name="quotesinglbase" unicode="&#x201a;" horiz-adv-x="495" 
d="M136 -321q64 55 94 126q29 70 22 133q-7 62 -50 112q-43 49 -116 66q-13 102 55 178q67 76 161 76q74 0 123 -51q48 -51 48 -132q0 -128 -102 -271q-102 -144 -232 -242z" />
    <glyph glyph-name="quotedblleft" unicode="&#x201c;" horiz-adv-x="939" 
d="M557 1509q-64 -55 -93 -125q-30 -71 -23 -133q7 -63 50 -112q43 -50 116 -67q11 -112 -60 -184q-72 -73 -164 -73q-70 0 -116 47q-47 47 -47 139q0 128 102 272q102 143 232 241zM1002 1509q-64 -55 -93 -125q-30 -71 -23 -133q7 -63 50 -112q43 -50 116 -67
q11 -112 -60 -184q-72 -73 -164 -73q-70 0 -116 47q-47 47 -47 139q0 128 102 272q102 143 232 241z" />
    <glyph glyph-name="quotedblright" unicode="&#x201d;" horiz-adv-x="940" 
d="M762 819q64 55 94 126q29 70 22 133q-7 62 -50 112q-43 49 -116 66q-11 112 61 185q71 72 163 72q70 0 117 -47q46 -47 46 -139q0 -128 -102 -271q-102 -144 -232 -242zM317 819q64 55 94 126q29 70 22 133q-7 62 -50 112q-43 49 -116 66q-11 112 61 185q71 72 163 72
q70 0 117 -47q46 -47 46 -139q0 -128 -102 -271q-102 -144 -232 -242z" />
    <glyph glyph-name="quotedblbase" unicode="&#x201e;" horiz-adv-x="940" 
d="M136 -321q64 55 94 126q29 70 22 133q-7 62 -50 112q-43 49 -116 66q-13 102 55 178q67 76 161 76q74 0 123 -51q48 -51 48 -132q0 -128 -102 -271q-102 -144 -232 -242zM581 -321q64 55 94 126q29 70 22 133q-7 62 -50 112q-43 49 -116 66q-13 102 55 178q67 76 161 76
q74 0 123 -51q48 -51 48 -132q0 -128 -102 -271q-102 -144 -232 -242z" />
    <glyph glyph-name="bullet" unicode="&#x2022;" horiz-adv-x="744" 
d="M696 1003q60 -62 60 -156q0 -117 -88 -212t-211 -95q-94 0 -155 64q-62 64 -62 158q0 115 89 209q89 93 211 93q95 0 156 -61z" />
    <glyph glyph-name="ellipsis" unicode="&#x2026;" horiz-adv-x="1465" 
d="M417 325q44 -46 44 -115q0 -87 -65 -155q-65 -69 -154 -69q-69 0 -113 46q-45 46 -45 116q0 86 65 154t154 68q69 0 114 -45zM906 325q44 -46 44 -115q0 -87 -65 -155q-65 -69 -154 -69q-69 0 -113 46q-45 46 -45 116q0 86 65 154t154 68q69 0 114 -45zM1395 325
q44 -46 44 -115q0 -87 -65 -155q-65 -69 -154 -69q-69 0 -113 46q-45 46 -45 116q0 86 65 154t154 68q69 0 114 -45z" />
    <glyph glyph-name="uni202F" unicode="&#x202f;" horiz-adv-x="391" 
 />
    <glyph glyph-name="guilsinglleft" unicode="&#x2039;" horiz-adv-x="545" 
d="M627 926l4 -4l-350 -390l227 -390l-6 -4l-322 394z" />
    <glyph glyph-name="guilsinglright" unicode="&#x203a;" horiz-adv-x="546" 
d="M572 532l-448 -394l-4 4l351 390l-228 390l6 4z" />
    <glyph glyph-name="fraction" unicode="&#x2044;" horiz-adv-x="442" 
d="M-284 0l1223 1400h9l-1223 -1400h-9z" />
    <glyph glyph-name="uni205F" unicode="&#x205f;" horiz-adv-x="489" 
 />
    <glyph glyph-name="uni2070" unicode="&#x2070;" horiz-adv-x="913" 
d="M657 598q50 111 87 346q27 168 27 273q0 186 -90 186q-72 0 -123 -111q-51 -112 -88 -348q-26 -170 -26 -270q0 -187 92 -187q71 0 121 111zM944 1307q95 -104 95 -270q0 -100 -36 -199q-37 -99 -100 -179q-64 -80 -160 -129q-97 -50 -208 -50q-167 0 -263 104t-96 270
q0 106 36 206q36 99 100 177t161 126q96 47 209 47q166 0 262 -103z" />
    <glyph glyph-name="uni2074" unicode="&#x2074;" horiz-adv-x="852" 
d="M125 760q66 17 165 78t181 145q82 83 82 147q0 38 -25 58q-26 20 -62 20q-72 0 -106 -60q-51 2 -77 32q-27 30 -27 76q0 60 44 107q43 47 119 47q77 0 113 -60q35 -60 35 -154q0 -109 -43 -234q-43 -126 -91 -200h101l64 406q90 98 159 232h138l-101 -638h138l-2 -10
h-138l-4 -28q-18 -122 -13 -157q8 -56 66 -68q20 -4 46 -4v-5h-532v5q34 0 59 6q24 5 42 20q17 15 28 31q11 15 20 46q8 31 13 56l15 98h-408z" />
    <glyph glyph-name="uni2075" unicode="&#x2075;" horiz-adv-x="870" 
d="M556 1149q-126 41 -166 41q-28 0 -41 -6l-100 -292q54 55 130 96t156 63q79 21 158 21q78 0 139 -21t99 -70q38 -50 38 -123q0 -110 -71 -197q-72 -88 -186 -134q-114 -47 -244 -47q-48 0 -95 8q-47 7 -97 25t-81 57t-31 93q0 81 46 124t109 43q50 0 80 -32
q29 -32 22 -92q-62 -33 -62 -108q0 -47 32 -79q31 -32 80 -32q90 0 147 83t57 176q0 76 -47 123t-115 58t-144 -3q-77 -15 -136 -54l101 300q44 132 88 182t108 50q47 0 158 -36t178 -36q123 0 151 79l5 -1q-20 -64 -41 -111q-22 -48 -54 -94q-33 -46 -79 -70
q-46 -25 -103 -25q-63 0 -189 41z" />
    <glyph glyph-name="uni2076" unicode="&#x2076;" horiz-adv-x="867" 
d="M562 1308q-47 -95 -85 -318q82 45 171 54q88 9 157 -14q69 -24 114 -79t45 -130q0 -102 -66 -182q-67 -80 -164 -119q-98 -40 -203 -40q-164 0 -260 110q-97 109 -97 280q0 142 67 266q67 123 188 199q120 75 267 75q34 0 70 -4q35 -5 75 -18q39 -13 70 -33
q30 -20 50 -53q20 -34 20 -77q0 -79 -46 -122q-47 -43 -108 -43q-50 0 -79 32q-30 32 -24 92q63 32 63 111q0 47 -27 78q-27 30 -73 30q-79 0 -125 -95zM685 987q-30 40 -83 37t-127 -43l-6 -37q-39 -234 -23 -345q16 -112 88 -112q31 0 53 6t48 28q25 22 41 61t27 111
t11 171q0 83 -29 123z" />
    <glyph glyph-name="uni2077" unicode="&#x2077;" horiz-adv-x="745" 
d="M538 1402q48 -11 96 -26t101 -29q52 -14 94 -23q41 -10 74 -7q33 2 45 19q4 13 7 39q3 25 4 29h6q-2 -35 -10 -76q-10 -62 -57 -125q-48 -64 -108 -119t-118 -113q-59 -58 -99 -130t-40 -148q0 -66 44 -87q-12 -58 -62 -92q-51 -34 -110 -34q-61 0 -102 36q-42 35 -42 95
q0 54 32 107q32 52 85 96q52 44 117 88q64 43 133 87q68 44 129 88q60 43 108 96t68 107h-2q-30 -72 -94 -116t-144 -44q-60 0 -182 22t-190 22q-119 0 -145 -77l-4 1q16 53 32 93q15 40 40 86t54 76q28 29 70 49q41 20 89 20q32 0 81 -10z" />
    <glyph glyph-name="uni2078" unicode="&#x2078;" horiz-adv-x="805" 
d="M328 490q-54 10 -100 31t-73 59q-27 37 -27 87q0 152 228 239q-113 77 -113 193q0 61 27 113t70 88q43 35 98 61q54 25 109 37t106 12q58 0 113 -15q54 -16 96 -54t42 -92q0 -104 -161 -207q79 -43 125 -97q45 -55 45 -134q0 -99 -65 -175q-65 -77 -171 -116
q-107 -40 -235 -40q-61 0 -114 10zM665 723q-36 36 -81 60l-113 58q-69 35 -108 61q-65 -39 -108 -95q-44 -57 -44 -122q0 -83 67 -140q67 -58 175 -58q100 0 174 45t74 115q0 40 -36 76zM476 1201q15 -24 47 -45q32 -22 61 -37q28 -15 77 -37q49 -23 75 -37
q108 103 108 188q0 70 -51 120t-135 50q-81 0 -139 -43q-59 -44 -59 -107q0 -28 16 -52z" />
    <glyph glyph-name="uni2079" unicode="&#x2079;" horiz-adv-x="868" 
d="M605 582q47 95 84 317q-82 -45 -171 -53t-158 17t-113 81q-45 56 -45 131q0 62 26 117q25 55 68 94q42 39 98 68q56 28 118 42q61 14 123 14q166 0 263 -103q96 -104 96 -272q0 -141 -67 -268q-68 -127 -190 -207t-268 -80q-34 0 -69 5q-36 4 -75 17q-40 13 -70 33
q-31 20 -51 54q-20 33 -20 76q0 79 47 122t108 43q50 0 79 -32t23 -92q-62 -33 -62 -111q0 -47 27 -77q27 -31 72 -31q79 0 127 95zM516 874q64 -29 174 34l6 38q37 234 22 346q-15 111 -87 111q-31 0 -53 -6t-47 -28q-26 -22 -42 -61t-27 -111t-11 -171q0 -124 65 -152z
" />
    <glyph glyph-name="uni207F" unicode="&#x207f;" horiz-adv-x="894" 
d="M309 1104q3 20 -12 32q-16 11 -42 2l-4 4q39 19 98 35q58 15 102 15q58 0 79 -25q20 -26 5 -91l-63 -294h4q32 120 71 204q39 83 83 127q43 43 85 61q41 18 88 18q39 0 68 -10t44 -29t24 -39q8 -20 9 -48q1 -29 -1 -49q-2 -21 -6 -49l-32 -184q-45 -253 26 -280l-4 -4
q-46 -8 -85 -9q-40 -2 -78 8q-39 10 -64 33q-26 22 -37 66q-12 43 -2 104l52 322q8 45 4 72q-5 26 -26 26q-55 0 -115 -98q-61 -99 -97 -244q-62 -252 -14 -276l-4 -4q-88 -13 -146 -7q-58 5 -80 53q-22 47 -4 148z" />
    <glyph glyph-name="uni2080" unicode="&#x2080;" horiz-adv-x="913" 
d="M577 108q50 111 87 346q27 168 27 273q0 186 -90 186q-72 0 -123 -111q-51 -112 -88 -348q-26 -170 -26 -270q0 -187 92 -187q71 0 121 111zM864 817q95 -104 95 -270q0 -100 -36 -199q-37 -99 -100 -179q-64 -80 -160 -129q-97 -50 -208 -50q-167 0 -263 104t-96 270
q0 106 36 206q36 99 100 177t161 126q96 47 209 47q166 0 262 -103z" />
    <glyph glyph-name="uni2081" unicode="&#x2081;" horiz-adv-x="648" 
d="M58 0l1 5q26 0 46 3t36 12t28 17q11 8 20 27l15 31q5 12 11 40l9 45l77 486q-71 -77 -153 -124l-3 6q98 56 180 156q81 100 135 206h138l-114 -724q-3 -16 -6 -41q-3 -26 -2 -38l3 -30q1 -19 7 -27q5 -8 14 -19q8 -11 22 -15q13 -4 31 -7q17 -4 40 -4l-1 -5h-534z" />
    <glyph glyph-name="uni2082" unicode="&#x2082;" horiz-adv-x="791" 
d="M409 11q-81 21 -147 42q-67 21 -135 32t-86 -9q-9 -37 -12 -76h-7q5 67 28 126t52 100q28 40 75 82q46 41 82 66q35 25 89 60l28 18q229 147 229 341q0 53 -23 87q-24 33 -75 33q-72 0 -110 -43q-39 -43 -39 -104q0 -51 36 -72q-12 -60 -53 -92t-91 -32q-47 0 -78 30
q-32 29 -32 85q0 57 28 102q28 44 69 69q40 24 94 40q54 15 97 20q42 4 82 4q351 0 351 -197q0 -68 -31 -122t-87 -90q-57 -37 -117 -59q-60 -23 -137 -42l-95 -23l-44 -12q-34 -9 -48 -15l-42 -17q-27 -11 -43 -21q-17 -11 -37 -26q-21 -15 -37 -32q60 46 151 46
q61 0 186 -39q124 -39 192 -39q116 0 141 75l4 -1q-17 -53 -32 -92q-16 -39 -41 -84q-26 -45 -54 -73q-28 -29 -69 -48t-89 -19q-43 0 -123 21z" />
    <glyph glyph-name="uni2083" unicode="&#x2083;" horiz-adv-x="862" 
d="M390 497l1 7h35q97 0 156 86t59 197q0 126 -99 126q-66 0 -100 -43t-34 -89q0 -47 34 -65q-11 -53 -48 -80q-37 -28 -82 -28q-43 0 -72 25t-29 75q0 62 34 107q33 44 88 66q55 21 108 30t108 9q341 0 341 -174q0 -219 -420 -243v-2q54 0 105 -5q50 -5 107 -20
q56 -15 97 -38q40 -24 67 -65t27 -95q0 -139 -124 -213q-124 -75 -356 -75q-45 0 -90 8q-46 7 -98 25t-84 57q-33 39 -33 95q0 79 47 122q46 43 108 43q51 0 81 -32q29 -32 23 -92q-64 -30 -64 -107q0 -49 31 -80q31 -32 85 -32q65 0 112 47q47 46 67 107t20 124
q0 90 -42 156t-125 66h-41z" />
    <glyph glyph-name="uni2084" unicode="&#x2084;" horiz-adv-x="852" 
d="M47 270q66 17 165 78t181 145q82 83 82 147q0 38 -25 58q-26 20 -62 20q-72 0 -106 -60q-51 2 -77 32q-27 30 -27 76q0 60 43 107t120 47t113 -60q35 -60 35 -154q0 -109 -43 -234q-43 -126 -91 -200h101l64 406q90 98 159 232h138l-101 -638h138l-2 -10h-138l-4 -28
q-18 -122 -13 -157q8 -56 66 -68q20 -4 46 -4v-5h-532v5q34 0 59 6q24 5 42 20q17 15 28 31q11 15 20 46q8 31 13 56l15 98h-408z" />
    <glyph glyph-name="uni2085" unicode="&#x2085;" horiz-adv-x="870" 
d="M478 659q-126 41 -166 41q-28 0 -41 -6l-100 -292q54 55 130 96t156 63q79 21 158 21q78 0 139 -21t99 -70q38 -50 38 -123q0 -110 -71 -197q-72 -88 -185 -134q-114 -47 -245 -47q-48 0 -95 8q-47 7 -97 25t-81 57t-31 93q0 81 46 124t109 43q50 0 80 -32q29 -32 22 -92
q-62 -33 -62 -108q0 -47 32 -79q31 -32 80 -32q90 0 147 83t57 176q0 76 -47 123t-115 58t-144 -3q-77 -15 -136 -54l101 300q44 132 88 182t108 50q47 0 158 -36t178 -36q123 0 151 79l5 -1q-20 -64 -41 -111q-22 -48 -54 -94q-33 -46 -79 -70q-46 -25 -103 -25
q-63 0 -189 41z" />
    <glyph glyph-name="uni2086" unicode="&#x2086;" horiz-adv-x="867" 
d="M484 818q-47 -95 -85 -318q82 45 171 54q88 9 157 -14q69 -24 114 -79t45 -130q0 -102 -66 -182q-67 -80 -164 -119q-98 -40 -203 -40q-164 0 -260 110q-97 109 -97 280q0 142 67 266q67 123 188 199q120 75 267 75q34 0 70 -4q35 -5 75 -18q39 -13 70 -33q30 -20 50 -53
q20 -34 20 -77q0 -79 -46 -122q-47 -43 -108 -43q-50 0 -79 32q-30 32 -24 92q63 32 63 111q0 47 -27 78q-27 30 -73 30q-79 0 -125 -95zM607 497q-30 40 -83 37t-127 -43l-6 -37q-39 -234 -23 -345q16 -112 88 -112q31 0 53 6t48 28q25 22 41 61t27 111t11 171
q0 83 -29 123z" />
    <glyph glyph-name="uni2087" unicode="&#x2087;" horiz-adv-x="745" 
d="M460 912q48 -11 96 -26t101 -29q52 -14 94 -23q41 -10 74 -7q33 2 45 19q3 10 5 21l6 47h6q-2 -35 -10 -76q-10 -62 -57 -125q-48 -64 -108 -119t-118 -113q-59 -58 -99 -130t-40 -148q0 -66 44 -87q-12 -58 -62 -92q-51 -34 -110 -34q-61 0 -102 36q-42 35 -42 95
q0 54 32 107q32 52 85 96q52 44 117 88q64 43 133 87q68 44 129 88q60 43 108 96t68 107h-2q-30 -72 -94 -116t-144 -44q-60 0 -182 22t-190 22q-119 0 -145 -77l-4 1q16 53 32 93q15 40 40 86t54 76q28 29 70 49q41 20 89 20q32 0 81 -10z" />
    <glyph glyph-name="uni2088" unicode="&#x2088;" horiz-adv-x="805" 
d="M250 0q-54 10 -100 31t-73 59q-27 37 -27 87q0 152 228 239q-113 77 -113 193q0 61 27 113t70 88q43 35 98 61q54 25 109 37t106 12q58 0 113 -15q54 -16 96 -54t42 -92q0 -104 -161 -207q79 -43 125 -97q45 -55 45 -134q0 -99 -65 -175q-65 -77 -171 -116
q-107 -40 -235 -40q-61 0 -114 10zM587 233q-36 36 -81 60l-113 58q-69 35 -108 61q-65 -39 -108 -95q-44 -57 -44 -122q0 -83 67 -140q67 -58 175 -58q100 0 174 45t74 115q0 40 -36 76zM398 711q15 -24 47 -45q32 -22 61 -37q28 -15 77 -37q49 -23 75 -37q108 103 108 188
q0 70 -51 120t-135 50q-81 0 -139 -43q-59 -44 -59 -107q0 -28 16 -52z" />
    <glyph glyph-name="uni2089" unicode="&#x2089;" horiz-adv-x="868" 
d="M529 92q47 95 84 317q-82 -45 -171 -53t-158 17t-113 81q-45 56 -45 131q0 62 26 117q25 55 68 94q42 39 98 68q56 28 118 42q61 14 123 14q166 0 263 -103q96 -104 96 -272q0 -141 -67 -268q-68 -127 -190 -207t-268 -80q-34 0 -69 5q-36 4 -75 17q-40 13 -70 33
q-31 20 -51 54q-20 33 -20 76q0 79 47 122q46 43 108 43q50 0 79 -32t23 -92q-62 -33 -62 -111q0 -47 27 -77q27 -31 72 -31q79 0 127 95zM440 384q64 -29 174 34l6 38q37 234 22 346q-15 111 -87 111q-31 0 -53 -6t-47 -28q-26 -22 -42 -61t-27 -111t-11 -171
q0 -124 65 -152z" />
    <glyph glyph-name="Euro" unicode="&#x20ac;" horiz-adv-x="1367" 
d="M202 828h83q72 264 280 425t494 161q156 0 284 -44l150 40l-69 -558h-5q5 75 -1 147t-28 148q-23 76 -61 132t-104 92t-153 36q-65 0 -120 -35q-56 -35 -94 -90q-39 -55 -72 -134q-33 -80 -53 -155t-38 -165h430l-1 -7h-430q-11 -58 -21 -121q-16 -103 -18 -121h431
l-1 -7h-430q-71 -579 193 -579q87 0 165 36q77 36 133 92q55 56 102 132q46 76 75 148t48 147h5l-108 -558l-137 39q-140 -43 -298 -43q-269 0 -423 161q-155 161 -157 425h-91l1 7h90v2q0 126 30 240h-82z" />
    <glyph glyph-name="trademark" unicode="&#x2122;" horiz-adv-x="2318" 
d="M1181 1400l-18 -314h-4q7 152 -60 229q-67 76 -224 76l-106 -667q-19 -124 -13 -161q9 -55 70 -65q18 -3 42 -3v-5h-532v5q29 0 52 6q22 5 38 12q15 7 28 25q12 17 20 31q7 13 14 43t11 51q4 20 10 61l106 667q-159 0 -249 -76q-90 -77 -131 -229h-5l81 314h870z
M1593 492l-200 862l-76 -478q-7 -45 -11 -76t-6 -74q-3 -43 0 -72q3 -30 13 -62q9 -33 27 -52q18 -20 47 -32q29 -13 69 -13v-5h-416v5q42 0 77 14q35 13 60 33q24 20 45 55t34 65q12 30 24 78q11 48 17 79l59 369q12 72 7 118q-6 45 -40 66q-35 21 -109 21l1 7h449
l128 -586l309 586h401l-1 -7q-25 0 -45 -2q-20 -3 -36 -12t-26 -16q-11 -7 -20 -25q-10 -19 -15 -31q-6 -12 -12 -40l-18 -101l-70 -442q-19 -124 -13 -161q9 -55 70 -65q18 -3 42 -3v-5h-518v5q23 0 41 2q17 2 32 10q14 7 24 14q9 6 18 24q9 17 14 29q4 12 11 41q6 28 9 48
l115 726l-474 -897h-37z" />
    <glyph glyph-name="uni25FC" unicode="&#x25fc;" horiz-adv-x="1065" 
d="M1065 1065v-1065h-1065v1065h1065z" />
    <glyph glyph-name="glyph253" horiz-adv-x="666" 
 />
    <glyph glyph-name="A.aalt" horiz-adv-x="1714" 
d="M994 494h-457q-25 -48 -45 -92t-37 -94q-18 -50 -25 -92q-7 -43 -3 -82q4 -40 23 -68q18 -28 57 -44q38 -17 95 -17l-1 -5h-591l1 5q63 0 130 38q66 37 115 83q49 45 114 134t97 139t92 150l553 919l347 -1112q60 -191 118 -271q57 -80 157 -80l-1 -5h-838l1 5
q67 0 108 28q40 27 52 76q11 48 7 105q-5 56 -24 124zM596 598q-45 -77 -56 -97h452l-146 513z" />
    <glyph glyph-name="Agrave.aalt" horiz-adv-x="1714" 
d="M994 494h-457q-25 -48 -45 -92t-37 -94q-18 -50 -25 -92q-7 -43 -3 -82q4 -40 23 -68q18 -28 57 -44q38 -17 95 -17l-1 -5h-591l1 5q63 0 130 38q66 37 115 83q49 45 114 134t97 139t92 150l553 919l347 -1112q60 -191 118 -271q57 -80 157 -80l-1 -5h-838l1 5
q67 0 108 28q40 27 52 76q11 48 7 105q-5 56 -24 124zM596 598q-45 -77 -56 -97h452l-146 513zM1151 1512l-425 215q0 31 37 31q17 0 62 -31q44 -32 137 -94q92 -63 192 -117z" />
    <glyph glyph-name="Aacute.aalt" horiz-adv-x="1714" 
d="M994 494h-457q-25 -48 -45 -92t-37 -94q-18 -50 -25 -92q-7 -43 -3 -82q4 -40 23 -68q18 -28 57 -44q38 -17 95 -17l-1 -5h-591l1 5q63 0 130 38q66 37 115 83q49 45 114 134t97 139t92 150l553 919l347 -1112q60 -191 118 -271q57 -80 157 -80l-1 -5h-838l1 5
q67 0 108 28q40 27 52 76q11 48 7 105q-5 56 -24 124zM596 598q-45 -77 -56 -97h452l-146 513zM1065 1516q117 54 230 117q112 62 167 94q54 31 71 31q28 0 28 -24l-494 -222z" />
    <glyph glyph-name="Acircumflex.aalt" horiz-adv-x="1714" 
d="M994 494h-457q-25 -48 -45 -92t-37 -94q-18 -50 -25 -92q-7 -43 -3 -82q4 -40 23 -68q18 -28 57 -44q38 -17 95 -17l-1 -5h-591l1 5q63 0 130 38q66 37 115 83q49 45 114 134t97 139t92 150l553 919l347 -1112q60 -191 118 -271q57 -80 157 -80l-1 -5h-838l1 5
q67 0 108 28q40 27 52 76q11 48 7 105q-5 56 -24 124zM596 598q-45 -77 -56 -97h452l-146 513zM1421 1488l-4 -4l-269 184l-329 -184l-2 4l341 246z" />
    <glyph glyph-name="Atilde.aalt" horiz-adv-x="1714" 
d="M994 494h-457q-25 -48 -45 -92t-37 -94q-18 -50 -25 -92q-7 -43 -3 -82q4 -40 23 -68q18 -28 57 -44q38 -17 95 -17l-1 -5h-591l1 5q63 0 130 38q66 37 115 83q49 45 114 134t97 139t92 150l553 919l347 -1112q60 -191 118 -271q57 -80 157 -80l-1 -5h-838l1 5
q67 0 108 28q40 27 52 76q11 48 7 105q-5 56 -24 124zM596 598q-45 -77 -56 -97h452l-146 513zM1509 1672q-55 -87 -97 -117q-43 -31 -93 -31q-44 0 -86 18q-43 18 -77 44q-34 25 -67 51q-34 25 -74 43q-41 18 -83 18q-47 0 -86 -31q-40 -31 -94 -119l-6 3q56 91 97 123
q41 31 90 31q43 0 84 -18t75 -43l67 -51q33 -26 75 -44t86 -18q48 0 89 30q40 29 95 114z" />
    <glyph glyph-name="Adieresis.aalt" horiz-adv-x="1714" 
d="M994 494h-457q-25 -48 -45 -92t-37 -94q-18 -50 -25 -92q-7 -43 -3 -82q4 -40 23 -68q18 -28 57 -44q38 -17 95 -17l-1 -5h-591l1 5q63 0 130 38q66 37 115 83q49 45 114 134t97 139t92 150l553 919l347 -1112q60 -191 118 -271q57 -80 157 -80l-1 -5h-838l1 5
q67 0 108 28q40 27 52 76q11 48 7 105q-5 56 -24 124zM596 598q-45 -77 -56 -97h452l-146 513zM1018 1695q25 -27 25 -65q0 -50 -36 -86q-37 -36 -86 -36q-38 0 -63 27t-25 67q0 47 38 84q37 36 84 36q38 0 63 -27zM1414 1695q25 -27 25 -65q0 -50 -36 -86q-37 -36 -86 -36
q-38 0 -63 27t-25 67q0 47 38 84q37 36 84 36q38 0 63 -27z" />
    <glyph glyph-name="Aring.aalt" horiz-adv-x="1714" 
d="M994 494h-457q-25 -48 -45 -92t-37 -94q-18 -50 -25 -92q-7 -43 -3 -82q4 -40 23 -68q18 -28 57 -44q38 -17 95 -17l-1 -5h-591l1 5q63 0 130 38q66 37 115 83q49 45 114 134t97 139t92 150l553 919l347 -1112q60 -191 118 -271q57 -80 157 -80l-1 -5h-838l1 5
q67 0 108 28q40 27 52 76q11 48 7 105q-5 56 -24 124zM596 598q-45 -77 -56 -97h452l-146 513zM1301 1823q50 -49 50 -120q0 -88 -71 -152q-72 -65 -166 -65q-77 0 -126 49q-50 48 -50 121q0 87 72 152q71 64 165 64q76 0 126 -49zM1015 1803q-70 -63 -70 -147
q0 -70 48 -116q47 -47 121 -47q91 0 161 63q69 62 69 147q0 68 -48 115t-121 47q-91 0 -160 -62z" />
    <glyph glyph-name="AE.aalt" horiz-adv-x="2356" 
d="M894 5q69 0 114 17t73 58q27 40 41 87q13 46 27 126l32 201h-517q-212 -262 -206 -391q5 -98 145 -98v-5h-593v5q48 0 100 17q51 16 95 39q43 23 98 67q54 44 91 78t94 96q56 61 86 96q30 34 86 100l769 902h958l-27 -482h-5q5 95 -4 166t-37 132q-28 60 -78 98
q-50 37 -129 58q-80 21 -190 21h-194l-107 -675q113 0 202 30q89 29 157 102q67 73 91 186h5l-136 -646h-5q15 86 1 147q-15 61 -60 100q-46 39 -109 57q-64 18 -147 18l-80 -510q-21 -106 -4 -150q16 -45 89 -45q161 0 287 41q125 41 214 122t149 184q60 102 106 242h5
l-187 -596h-1300v5zM689 523q-12 -15 -19 -22h512l117 737z" />
    <glyph glyph-name="B.aalt" horiz-adv-x="1484" 
d="M759 1400q91 0 143 -1t140 -6q87 -5 139 -15t117 -30q64 -20 99 -48q35 -29 60 -73t25 -101q0 -329 -624 -352v-2q56 -1 114 -6t131 -17q72 -13 134 -37q61 -24 115 -58q53 -34 84 -87q30 -53 30 -119q0 -95 -44 -173q-45 -78 -115 -128q-71 -50 -164 -84
q-94 -34 -187 -48q-93 -15 -187 -15h-789v5q62 0 106 17q43 16 69 38q25 22 44 76t27 95t22 129l107 680q27 173 23 228q-6 86 -73 112q-39 15 -105 15v5h559zM772 774q76 0 130 19t91 59q36 40 58 97t35 139q11 66 11 115q0 96 -51 144q-52 48 -179 48h-51l-99 -621h55z
M634 248q-10 -66 -14 -99q-4 -34 -2 -67q1 -34 13 -47q12 -14 35 -22q22 -8 60 -8q135 0 203 95t101 300q13 83 13 139q0 115 -58 173q-59 57 -204 57h-65z" />
    <glyph glyph-name="C.aalt" horiz-adv-x="1380" 
d="M459 61q-156 75 -244 213q-89 137 -89 315q0 114 35 223t98 199q62 90 149 166q87 75 189 127t219 81t237 29q82 0 154 -12q71 -13 132 -39q60 -26 96 -71q35 -46 35 -107q0 -92 -69 -162q-69 -71 -166 -71q-78 0 -124 47t-36 137q48 23 80 67q32 43 32 95q0 46 -34 78
q-35 31 -116 31q-83 0 -154 -39q-72 -39 -122 -103t-90 -151q-41 -87 -65 -178q-25 -92 -41 -190q-16 -99 -22 -181q-7 -83 -7 -157q0 -415 278 -415q88 0 154 71q65 71 65 163q0 75 -55 105q19 93 81 143q62 49 140 49q79 0 127 -52q47 -52 47 -130q0 -49 -19 -97t-63 -95
q-44 -48 -107 -84q-64 -36 -160 -58q-97 -22 -214 -22q-196 0 -351 75z" />
    <glyph glyph-name="Ccedilla.aalt" horiz-adv-x="1380" 
d="M566 -339q15 -22 50 -36q35 -15 76 -15q80 0 125 38q44 37 44 89q0 47 -41 83q-42 36 -118 45q38 65 56 123q-279 14 -455 180q-177 165 -177 421q0 114 35 223t98 199q62 90 149 166q87 75 189 127t219 81t237 29q82 0 154 -12q71 -13 132 -39q60 -26 96 -71
q35 -46 35 -107q0 -92 -69 -162q-69 -71 -166 -71q-78 0 -124 47t-36 137q48 23 80 67q32 43 32 95q0 46 -34 78q-35 31 -116 31q-83 0 -154 -39q-72 -39 -122 -103t-90 -151q-41 -87 -65 -178q-25 -92 -41 -190q-16 -99 -22 -181q-7 -83 -7 -157q0 -415 278 -415
q88 0 154 71q65 71 65 163q0 75 -55 105q19 93 81 143q62 49 140 49q79 0 127 -52q47 -52 47 -130q0 -49 -19 -97t-63 -95q-44 -48 -107 -84q-64 -36 -160 -58q-97 -22 -214 -22l-44 1q-19 -59 -52 -115q74 -9 114 -46t40 -87q0 -56 -47 -96q-47 -41 -131 -41q-42 0 -78 16
q-37 15 -52 38z" />
    <glyph glyph-name="D.aalt" horiz-adv-x="1574" 
d="M-18 5q62 0 105 17q43 16 68 38t44 76t27 95t22 129l107 680q27 173 23 228q-6 86 -73 112q-38 15 -103 15v5h728q325 0 504 -138q178 -138 178 -410q0 -169 -58 -323q-59 -154 -163 -271q-105 -118 -261 -188q-157 -70 -342 -70h-806v5zM926 75q84 67 146 220
q61 152 101 405q38 238 38 363q0 171 -72 251q-73 79 -253 79h-76l-181 -1145q-9 -55 -12 -84q-4 -30 -5 -62t5 -46q6 -15 19 -28q12 -13 33 -17q20 -4 52 -4q120 0 205 68z" />
    <glyph glyph-name="Eth.aalt" horiz-adv-x="1576" 
d="M-18 5q62 0 105 17q43 16 68 38t44 76t27 95t22 129l53 338h-220l1 6h220l70 448q5 35 8 86q2 51 -7 72q-10 21 -29 45q-20 24 -55 32t-87 8v5h728q325 0 504 -138q178 -138 178 -410q0 -135 -36 -261q-37 -127 -108 -234q-72 -107 -170 -187q-99 -80 -230 -125
q-132 -45 -280 -45h-806v5zM926 75q84 67 146 220q61 152 101 405q38 238 38 363q0 171 -72 251q-73 79 -253 79h-76l-109 -689h220l-1 -6h-220l-71 -450q-9 -55 -12 -84q-4 -30 -5 -62t5 -46q6 -15 19 -28q12 -13 33 -17q20 -4 52 -4q120 0 205 68z" />
    <glyph glyph-name="E.aalt" horiz-adv-x="1442" 
d="M1445 918h-5q5 95 -4 166t-37 132q-28 60 -78 98q-50 37 -129 58q-80 21 -190 21h-194l-107 -675q174 0 294 76t155 242h5l-136 -646h-5q34 164 -54 243t-260 79l-80 -510q-21 -106 -5 -150q16 -45 90 -45q130 0 237 28q106 28 186 77q79 49 143 124t109 162
q44 87 81 198h4l-187 -596h-1298v5q31 0 57 3t47 12l38 17q16 8 31 26l24 31q9 13 19 41l15 45q5 17 12 54l22 126l124 792q5 35 8 86q2 51 -7 72q-10 21 -29 45t-54 32t-87 8v5h1272z" />
    <glyph glyph-name="Egrave.aalt" horiz-adv-x="1442" 
d="M1445 918h-5q5 95 -4 166t-37 132q-28 60 -78 98q-50 37 -129 58q-80 21 -190 21h-194l-107 -675q174 0 294 76t155 242h5l-136 -646h-5q34 164 -54 243t-260 79l-80 -510q-21 -106 -5 -150q16 -45 90 -45q130 0 237 28q106 28 186 77q79 49 143 124t109 162
q44 87 81 198h4l-187 -596h-1298v5q31 0 57 3t47 12l38 17q16 8 31 26l24 31q9 13 19 41l15 45q5 17 12 54l22 126l124 792q5 35 8 86q2 51 -7 72q-10 21 -29 45t-54 32t-87 8v5h1272zM930 1512l-425 215q0 31 37 31q17 0 62 -31q44 -32 137 -94q92 -63 192 -117z" />
    <glyph glyph-name="Eacute.aalt" horiz-adv-x="1442" 
d="M1445 918h-5q5 95 -4 166t-37 132q-28 60 -78 98q-50 37 -129 58q-80 21 -190 21h-194l-107 -675q174 0 294 76t155 242h5l-136 -646h-5q34 164 -54 243t-260 79l-80 -510q-21 -106 -5 -150q16 -45 90 -45q130 0 237 28q106 28 186 77q79 49 143 124t109 162
q44 87 81 198h4l-187 -596h-1298v5q31 0 57 3t47 12l38 17q16 8 31 26l24 31q9 13 19 41l15 45q5 17 12 54l22 126l124 792q5 35 8 86q2 51 -7 72q-10 21 -29 45t-54 32t-87 8v5h1272zM844 1516q117 54 230 117q112 62 167 94q54 31 71 31q28 0 28 -24l-494 -222z" />
    <glyph glyph-name="Ecircumflex.aalt" horiz-adv-x="1442" 
d="M1445 918h-5q5 95 -4 166t-37 132q-28 60 -78 98q-50 37 -129 58q-80 21 -190 21h-194l-107 -675q174 0 294 76t155 242h5l-136 -646h-5q34 164 -54 243t-260 79l-80 -510q-21 -106 -5 -150q16 -45 90 -45q130 0 237 28q106 28 186 77q79 49 143 124t109 162
q44 87 81 198h4l-187 -596h-1298v5q31 0 57 3t47 12l38 17q16 8 31 26l24 31q9 13 19 41l15 45q5 17 12 54l22 126l124 792q5 35 8 86q2 51 -7 72q-10 21 -29 45t-54 32t-87 8v5h1272zM1200 1488l-4 -4l-269 184l-329 -184l-2 4l341 246z" />
    <glyph glyph-name="Edieresis.aalt" horiz-adv-x="1442" 
d="M1445 918h-5q5 95 -4 166t-37 132q-28 60 -78 98q-50 37 -129 58q-80 21 -190 21h-194l-107 -675q174 0 294 76t155 242h5l-136 -646h-5q34 164 -54 243t-260 79l-80 -510q-21 -106 -5 -150q16 -45 90 -45q130 0 237 28q106 28 186 77q79 49 143 124t109 162
q44 87 81 198h4l-187 -596h-1298v5q31 0 57 3t47 12l38 17q16 8 31 26l24 31q9 13 19 41l15 45q5 17 12 54l22 126l124 792q5 35 8 86q2 51 -7 72q-10 21 -29 45t-54 32t-87 8v5h1272zM797 1695q25 -27 25 -65q0 -50 -36 -86q-37 -36 -86 -36q-38 0 -63 27t-25 67
q0 47 38 84q37 36 84 36q38 0 63 -27zM1193 1695q25 -27 25 -65q0 -50 -36 -86q-37 -36 -86 -36q-38 0 -63 27t-25 67q0 47 38 84q37 36 84 36q38 0 63 -27z" />
    <glyph glyph-name="F.salt" horiz-adv-x="1364" 
d="M644 358q-24 -132 -22 -210q1 -79 53 -111q51 -32 181 -32v-5h-876v5q31 0 57 3t47 12l38 17q16 8 31 26l24 31q9 13 19 41l15 45q5 17 12 54l22 126l124 792q5 35 8 86q2 51 -7 72q-10 21 -29 45t-54 32t-87 8v5h1234l-28 -482h-5q6 118 -12 203q-19 84 -68 147
q-50 63 -138 94q-89 31 -220 31h-155l-107 -675q113 0 202 30q89 29 157 102q67 73 91 186h5l-136 -646h-5q15 86 1 147q-15 61 -60 100q-46 39 -109 57q-64 18 -147 18z" />
    <glyph glyph-name="F.titl" horiz-adv-x="1612" 
d="M896 360q-26 -172 -21 -228q8 -89 79 -114q37 -13 96 -13v-5h-817v5q61 0 104 17q43 16 69 39q25 22 44 75q18 53 27 95q8 42 21 129l104 680q10 63 42 116q31 52 78 87q46 35 98 61t110 41t105 23q47 7 91 9v2q-61 -2 -134 15q-74 16 -118 33q-44 16 -128 51
q-83 34 -128 51q-45 16 -116 33q-72 17 -132 17q-86 0 -146 -45t-60 -122q0 -65 39 -95q39 -31 93 -31q90 0 152 80q67 -30 97 -81q29 -52 18 -106t-45 -102q-34 -49 -94 -80t-128 -31q-117 0 -206 81q-90 80 -90 207q0 141 105 237q105 95 265 95q70 0 150 -20
q79 -21 151 -50q72 -30 144 -59q71 -30 148 -50q76 -21 141 -21q31 0 48 15q16 15 16 35q0 28 -24 40t-66 -10q-33 61 1 109q33 47 91 47q45 0 78 -27q32 -28 32 -81q0 -50 -37 -80q-38 -30 -81 -44v-2q41 7 117 10q75 3 135 4l270 -2l-78 -482h-5q37 249 -40 361
q-77 111 -285 111q-50 0 -87 -7t-64 -24q-27 -18 -45 -39t-31 -57q-14 -36 -22 -72t-17 -91l-59 -382q113 0 202 30q89 29 157 102q67 73 91 186h5l-136 -646h-5q15 86 1 147q-15 61 -60 100q-46 39 -109 57q-64 18 -147 18z" />
    <glyph glyph-name="G.salt" horiz-adv-x="1474" 
d="M204 915q77 154 205 263q127 108 296 172t348 64q82 0 154 -12q71 -13 132 -38q61 -26 96 -71q35 -46 35 -107q0 -92 -69 -163t-165 -71q-78 0 -124 47q-47 47 -37 137q49 23 81 67q32 43 32 95q0 46 -34 78q-35 31 -116 31q-83 0 -154 -39q-72 -39 -122 -103
q-51 -64 -91 -151q-41 -88 -65 -179q-25 -92 -41 -191q-17 -99 -23 -181q-7 -83 -7 -157q0 -413 280 -413q63 0 126 19l47 294q28 177 23 233q-6 81 -70 104q-33 12 -88 12l1 5h720l-1 -5q-45 0 -76 -15q-31 -16 -50 -36t-34 -73t-23 -93q-8 -41 -22 -132l-50 -316l-9 17
l-17 23l-17 11q-5 3 -10 4l-12 2q-7 1 -15 1q-54 0 -205 -31t-233 -31q-189 0 -342 75t-242 214q-90 139 -90 315q0 170 78 325z" />
    <glyph glyph-name="G.swash" horiz-adv-x="1536" 
d="M1367 64q-16 -104 -71 -207q-56 -104 -141 -191t-187 -155q-103 -68 -222 -106q-120 -39 -235 -39q-162 0 -365 37t-388 90t-356 106q-172 53 -316 90q-145 37 -222 37q-79 0 -123 -33q-45 -34 -45 -83q0 -40 28 -72q28 -33 78 -33q52 0 82 34q30 33 14 79q98 11 153 -42
q55 -54 55 -135q0 -83 -58 -145q-59 -62 -165 -62q-111 0 -173 69q-63 69 -63 171q0 60 22 121t69 119q47 57 115 102q67 44 166 71q98 27 214 27q183 0 389 -50q206 -51 379 -122q172 -72 325 -144q152 -72 271 -122q118 -51 172 -51q38 0 72 44q33 44 54 104q21 59 39 144
t27 142t17 120l3 24q-40 -68 -125 -101q-85 -34 -195 -34q-136 0 -244 51q-109 51 -177 140q-69 88 -104 202q-36 114 -36 245q0 127 35 253q34 126 96 238q62 111 154 208q91 96 200 166q108 70 241 110q133 39 274 39q122 0 223 -33q100 -33 165 -103q64 -71 64 -168
q0 -111 -76 -183q-77 -73 -170 -73q-82 0 -141 59q-60 58 -39 143q68 11 106 61t38 113q0 72 -46 125q-47 52 -131 52q-95 0 -186 -75q-91 -76 -160 -198t-122 -271q-53 -150 -81 -304t-28 -287q0 -30 1 -61q1 -32 7 -83q5 -51 14 -96q8 -45 25 -94t40 -83q22 -35 57 -57
q35 -23 78 -23q66 0 145 40q78 40 101 103l38 260q25 175 22 228q-5 83 -66 107q-34 14 -92 14l1 5h720l-1 -5q-23 0 -41 -3q-19 -3 -34 -11q-16 -8 -28 -15q-13 -8 -23 -25l-18 -29q-8 -13 -16 -39l-13 -44q-5 -19 -11 -54z" />
    <glyph glyph-name="H.salt" horiz-adv-x="1700" 
d="M881 0v5q94 0 132 62q37 62 64 233l64 406h-442l-64 -406q-18 -106 -18 -171q0 -66 28 -95q27 -29 92 -29v-5h-757v5q31 0 57 3t47 12l38 17q16 8 31 26l24 31q9 13 19 41l15 45q5 17 12 54l22 126l124 792q5 35 8 86q2 51 -7 72q-10 21 -29 45t-54 32t-87 8v5h758v-5
q-94 0 -131 -62q-38 -62 -65 -233l-62 -387h442l62 387q18 106 18 172q0 65 -27 94q-28 29 -93 29v5h758v-5q-131 0 -184 -69q-41 -52 -67 -195l-122 -771q-27 -171 -23 -227q7 -89 77 -114q38 -14 98 -14v-5h-758z" />
    <glyph glyph-name="H.ss04" horiz-adv-x="1950" 
d="M951 713h442l18 111q42 266 225 469q183 202 432 299l2 -6q-146 -66 -195 -374l-136 -852q-27 -171 -23 -227q7 -89 77 -114q38 -14 98 -14v-5h-758v5q94 0 132 62q37 62 64 233l63 406h-442l-68 -440q-5 -36 -8 -78t0 -66q3 -25 11 -50q8 -26 24 -38q15 -13 39 -21
t57 -8v-5h-774v5q61 0 104 17q43 16 69 39q25 22 44 75q18 53 27 95q8 42 21 129l106 682q10 63 42 116q31 52 78 87q46 34 98 60q51 26 110 41q58 14 105 22q47 7 91 9v2q-61 -2 -134 15q-74 16 -118 33q-44 16 -128 51q-83 34 -128 51q-45 16 -116 33q-72 17 -132 17
q-86 0 -146 -45t-60 -122q0 -65 39 -95q39 -31 93 -31q90 0 152 80q67 -30 97 -81q29 -52 18 -106t-45 -102q-34 -49 -94 -80t-128 -31q-117 0 -206 81q-90 80 -90 207q0 141 105 237q105 95 265 95q70 0 150 -20q79 -21 151 -50q72 -30 144 -59q71 -30 148 -50
q76 -21 141 -21q33 0 49 15q15 14 15 35q0 28 -24 40t-66 -10q-33 63 1 111q33 48 95 48q42 0 74 -26q32 -27 32 -75q0 -38 -22 -62q-22 -25 -56 -46q-35 -21 -71 -51q-36 -31 -69 -98q-34 -68 -50 -167z" />
    <glyph glyph-name="H.titl" horiz-adv-x="1950" 
d="M951 713h441l18 111q22 140 94 276q71 136 168 240q97 103 208 184q110 80 216 122t188 42q87 0 132 -42q44 -42 44 -111q0 -88 -64 -145q-65 -58 -139 -58q-41 0 -72 21t-45 58q32 14 54 45q21 30 21 61q0 46 -28 80q-28 33 -84 33q-42 0 -78 -31q-36 -32 -59 -76
q-24 -45 -44 -106q-20 -62 -30 -109t-18 -96l-136 -852q-27 -171 -23 -227q7 -89 77 -114q38 -14 98 -14v-5h-758v5q94 0 132 62q37 62 64 233l63 406h-441l-68 -440q-5 -36 -8 -78t0 -66q3 -25 11 -50q8 -26 24 -38q15 -13 39 -21t57 -8v-5h-774v5q61 0 104 17q43 16 69 39
q25 22 44 75q18 53 27 95q8 42 21 129l106 682q10 63 42 116q31 52 78 87q46 34 98 60q51 26 110 41q58 14 105 22q47 7 91 9v2q-61 -2 -134 15q-74 16 -118 33q-44 16 -128 51q-83 34 -128 51q-45 16 -116 33q-72 17 -132 17q-86 0 -146 -45t-60 -122q0 -65 39 -95
q39 -31 93 -31q90 0 152 80q67 -30 97 -81q29 -52 18 -106t-45 -102q-34 -49 -94 -80t-128 -31q-117 0 -206 81q-90 80 -90 207q0 141 105 237q105 95 265 95q70 0 150 -20q79 -21 151 -50q72 -30 144 -59q71 -30 148 -50q76 -21 141 -21q33 0 49 15q15 14 15 35
q0 28 -24 40t-66 -10q-33 63 1 111q33 48 95 48q42 0 74 -26q32 -27 32 -75q0 -38 -22 -62q-22 -25 -56 -46q-35 -21 -71 -51q-36 -31 -69 -98q-34 -68 -50 -167z" />
    <glyph glyph-name="I.aalt" horiz-adv-x="858" 
d="M-20 0v5q31 0 57 3t47 12l38 17q16 8 31 26l24 31q9 13 19 41l15 45q5 17 12 54l22 126l124 792q5 35 8 86q2 51 -7 72q-10 21 -29 45t-54 32t-87 8v5h818v-5q-131 0 -184 -69q-41 -52 -67 -195l-122 -771q-27 -171 -23 -227q7 -89 77 -114q38 -14 98 -14v-5h-817z" />
    <glyph glyph-name="Igrave.aalt" horiz-adv-x="858" 
d="M-20 0v5q31 0 57 3t47 12l38 17q16 8 31 26l24 31q9 13 19 41l15 45q5 17 12 54l22 126l124 792q5 35 8 86q2 51 -7 72q-10 21 -29 45t-54 32t-87 8v5h818v-5q-131 0 -184 -69q-41 -52 -67 -195l-122 -771q-27 -171 -23 -227q7 -89 77 -114q38 -14 98 -14v-5h-817z
M664 1512l-425 215q0 31 37 31q17 0 62 -31q44 -32 137 -94q92 -63 192 -117z" />
    <glyph glyph-name="Iacute.aalt" horiz-adv-x="858" 
d="M-20 0v5q31 0 57 3t47 12l38 17q16 8 31 26l24 31q9 13 19 41l15 45q5 17 12 54l22 126l124 792q5 35 8 86q2 51 -7 72q-10 21 -29 45t-54 32t-87 8v5h818v-5q-131 0 -184 -69q-41 -52 -67 -195l-122 -771q-27 -171 -23 -227q7 -89 77 -114q38 -14 98 -14v-5h-817z
M578 1516q117 54 230 117q112 62 167 94q54 31 71 31q28 0 28 -24l-494 -222z" />
    <glyph glyph-name="Icircumflex.aalt" horiz-adv-x="858" 
d="M-20 0v5q31 0 57 3t47 12l38 17q16 8 31 26l24 31q9 13 19 41l15 45q5 17 12 54l22 126l124 792q5 35 8 86q2 51 -7 72q-10 21 -29 45t-54 32t-87 8v5h818v-5q-131 0 -184 -69q-41 -52 -67 -195l-122 -771q-27 -171 -23 -227q7 -89 77 -114q38 -14 98 -14v-5h-817z
M934 1488l-4 -4l-269 184l-329 -184l-2 4l341 246z" />
    <glyph glyph-name="Idieresis.aalt" horiz-adv-x="858" 
d="M-20 0v5q31 0 57 3t47 12l38 17q16 8 31 26l24 31q9 13 19 41l15 45q5 17 12 54l22 126l124 792q5 35 8 86q2 51 -7 72q-10 21 -29 45t-54 32t-87 8v5h818v-5q-131 0 -184 -69q-41 -52 -67 -195l-122 -771q-27 -171 -23 -227q7 -89 77 -114q38 -14 98 -14v-5h-817z
M531 1695q25 -27 25 -65q0 -50 -36 -86q-37 -36 -86 -36q-38 0 -63 27t-25 67q0 47 38 84q37 36 84 36q38 0 63 -27zM927 1695q25 -27 25 -65q0 -50 -36 -86q-37 -36 -86 -36q-38 0 -63 27t-25 67q0 47 38 84q37 36 84 36q38 0 63 -27z" />
    <glyph glyph-name="J.aalt" horiz-adv-x="1286" 
d="M779 1042q24 132 22 211q-2 78 -53 110q-52 32 -183 32v5h877v-5q-133 0 -187 -75q-40 -54 -66 -200l-95 -602q-84 -532 -612 -532q-108 0 -192 26t-132 70q-49 44 -73 96q-25 51 -25 107q0 97 66 168q65 71 170 71q78 0 124 -49q46 -50 35 -143q-49 -19 -77 -70
q-28 -52 -28 -111q0 -66 35 -112q34 -46 98 -46q36 0 64 17t45 40q16 22 30 61q13 38 19 65l12 70z" />
    <glyph glyph-name="K.salt" horiz-adv-x="1652" 
d="M742 716q82 39 155 58q72 19 128 22q55 3 104 -13q49 -17 84 -37q34 -21 66 -62t51 -73t40 -85t31 -84l78 -261q5 -18 14 -46t14 -39l14 -30q8 -19 14 -25q6 -7 16 -17q10 -11 20 -13q9 -3 23 -6q13 -4 28 -3l32 3l-1 -5l-139 -26q-30 -5 -48 -7q-19 -2 -44 -3
q-26 -2 -50 -2q-85 0 -144 13q-60 13 -99 36q-39 22 -66 67q-27 44 -42 92q-16 48 -33 128l-30 152q-8 35 -15 57l-17 53q-10 32 -21 52l-24 43q-14 23 -30 35t-34 21q-19 8 -41 6t-46 -13l-54 -344q-7 -44 -10 -68q-4 -25 -8 -60q-5 -35 -6 -54t0 -45q0 -27 4 -40
q4 -14 11 -31q6 -17 18 -25q11 -9 26 -17q15 -9 36 -12q20 -3 45 -3l-1 -5h-781l1 5q52 0 90 9q37 8 64 33q26 24 43 46q16 22 30 73q13 50 20 85l142 901q5 35 8 86q2 51 -7 72q-10 21 -29 45q-20 24 -55 32t-87 8v5h782v-5q-25 0 -46 -3q-22 -3 -39 -11q-18 -9 -32 -17
t-26 -25l-21 -31q-9 -14 -17 -40l-13 -46q-6 -19 -13 -54l-11 -60l-63 -394l289 282q203 198 246 286q56 113 -97 113v5h569v-5q-90 0 -184 -32t-186 -92q-93 -60 -173 -127q-81 -67 -172 -155z" />
    <glyph glyph-name="K.swash" horiz-adv-x="1766" 
d="M1835 -501q-177 -69 -335 -108q-158 -40 -339 -40q-166 0 -369 40q-204 40 -361 88q-158 47 -335 87t-297 40q-66 0 -112 -19q-46 -20 -85 -67l-4 2q53 105 125 184q72 78 150 122q77 43 153 64q76 20 153 20q89 0 180 -25q91 -26 174 -66q82 -41 167 -90q85 -50 176 -99
q91 -50 185 -90q93 -41 207 -66q113 -26 230 -26q156 0 323 55q-114 52 -209 138t-158 183q-64 97 -117 207t-86 214l-65 199q-32 96 -55 168q-23 71 -52 114q-30 42 -63 43l-66 -65l-68 -440q-5 -36 -8 -78t0 -66q3 -25 11 -50q8 -26 24 -38q15 -13 39 -21t57 -8v-5h-774v5
q61 0 104 17q43 16 69 39q25 22 44 75q18 53 27 95q8 42 21 129l106 682q10 63 42 116q31 52 78 87q46 34 98 60q51 26 110 41q58 14 105 22q47 7 91 9v2q-61 -2 -134 15q-74 16 -118 33q-44 16 -128 51q-83 34 -128 51q-45 16 -116 33q-72 17 -132 17q-86 0 -146 -45
t-60 -122q0 -65 39 -95q39 -31 93 -31q90 0 152 80q67 -30 97 -81q29 -52 18 -106t-45 -102q-34 -49 -94 -80t-128 -31q-117 0 -206 81q-90 80 -90 207q0 141 105 237q105 95 265 95q70 0 150 -20q79 -21 151 -50q72 -30 144 -59q71 -30 148 -50q76 -21 141 -21q33 0 49 15
q15 14 15 35q0 28 -24 40t-66 -10q-33 63 1 111q33 48 95 48q42 0 74 -26q32 -27 32 -75q0 -38 -22 -62q-22 -25 -56 -46q-35 -21 -71 -51q-36 -31 -69 -98q-34 -68 -50 -167l-60 -383l286 279q203 198 246 286q56 113 -97 113v5h569v-5q-90 0 -184 -32t-186 -92
q-93 -60 -173 -127q-81 -67 -172 -155l-220 -214q113 16 201 -2q87 -18 157 -74t125 -138q55 -83 112 -209q23 -51 97 -239q74 -189 141 -323q66 -134 140 -223q186 72 299 72q83 0 143 -26t60 -67q0 -47 -81 -85q-82 -39 -190 -39q-214 0 -390 77zM1998 -437
q113 -134 239 -134q53 0 111 15t100 43q41 28 41 59q0 38 -61 62t-137 24q-110 0 -293 -69z" />
    <glyph glyph-name="K.titl" horiz-adv-x="1766" 
d="M952 717l286 279q203 198 246 286q56 113 -97 113v5h569v-5q-90 0 -184 -32t-186 -92q-93 -60 -173 -127q-81 -67 -172 -155l-233 -227q117 30 203 30q66 0 120 -15t93 -45q38 -30 67 -63q29 -34 52 -82q23 -49 38 -88q15 -40 33 -94l68 -218q13 -41 32 -93
q18 -52 36 -84q17 -33 39 -64t48 -47t57 -19l-1 -5q-79 -15 -154 -15q-205 0 -350 113q-145 112 -190 325q-5 23 -13 75l-15 93q-7 42 -21 95t-32 91t-48 68q-30 29 -68 36l-52 -50l-68 -440q-5 -36 -8 -78t0 -66q3 -25 11 -50q8 -26 24 -38q15 -13 39 -21t57 -8v-5h-774v5
q61 0 104 17q43 16 69 39q25 22 44 75q18 53 27 95q8 42 21 129l106 682q10 63 42 116q31 52 78 87q46 34 98 60q51 26 110 41q58 14 105 22q47 7 91 9v2q-61 -2 -134 15q-74 16 -118 33q-44 16 -128 51q-83 34 -128 51q-45 16 -116 33q-72 17 -132 17q-86 0 -146 -45
t-60 -122q0 -65 39 -95q39 -31 93 -31q90 0 152 80q67 -30 97 -81q29 -52 18 -106t-45 -102q-34 -49 -94 -80t-128 -31q-117 0 -206 81q-90 80 -90 207q0 141 105 237q105 95 265 95q70 0 150 -20q79 -21 151 -50q72 -30 144 -59q71 -30 148 -50q76 -21 141 -21q33 0 49 15
q15 14 15 35q0 28 -24 40t-66 -10q-33 63 1 111q33 48 95 48q42 0 74 -26q32 -27 32 -75q0 -38 -22 -62q-22 -25 -56 -46q-35 -21 -71 -51q-36 -31 -69 -98q-34 -68 -50 -167z" />
    <glyph glyph-name="L.salt" horiz-adv-x="1434" 
d="M1079 1395q-40 0 -72 -2t-59 -9l-47 -14q-21 -7 -38 -23q-18 -16 -30 -28q-12 -13 -23 -39t-17 -45q-7 -19 -15 -55q-8 -37 -12 -64l-13 -76l-123 -778q-18 -97 -16 -154t31 -79q28 -22 100 -22q137 0 253 48q115 47 201 135q86 87 149 195t111 243h5l-222 -628h-1262v5
q62 0 105 17q43 16 68 38t44 76t27 95t22 129l107 680q27 173 23 228q-6 86 -73 112q-38 15 -103 15v5h879v-5z" />
    <glyph glyph-name="L.swash" horiz-adv-x="1380" 
d="M434 824q24 147 101 295q76 147 187 268q110 121 261 197q150 76 307 76q117 0 181 -61q63 -61 63 -149q0 -106 -85 -185t-195 -79q-74 0 -120 47q-47 47 -28 121q57 -1 93 42q35 42 35 95q0 45 -37 84q-38 39 -97 39q-185 0 -248 -402l-120 -756q-14 -89 -48 -163
q-34 -75 -82 -130t-104 -102q-56 -48 -120 -93q-64 -46 -123 -91t-120 -105q-62 -60 -106 -126l1 -1q262 317 542 317q114 0 289 -38t356 -92t359 -108t340 -92t256 -38q66 0 112 20q46 19 85 66l4 -2q-106 -209 -235 -299q-130 -91 -285 -91q-111 0 -279 45
q-168 44 -344 108t-356 128q-180 63 -361 108q-182 44 -314 44q-59 0 -101 -21q-42 -22 -87 -88l-6 3q28 49 71 103t79 98q36 43 73 99q37 55 66 133q28 77 43 173z" />
    <glyph glyph-name="M.salt" horiz-adv-x="2069" 
d="M1207 0l1 5q57 0 95 14q37 13 61 31q23 18 40 71t26 96q8 43 24 143l161 1019l-766 -1447l-336 1410l-119 -748q-11 -67 -16 -116q-6 -49 -9 -114q-4 -66 2 -112q5 -47 21 -96q15 -50 43 -80q28 -31 75 -51q46 -20 109 -20l-1 -5h-638l1 5q50 0 94 12q43 11 77 29
q33 18 62 50q28 31 49 61q20 29 39 76q18 47 29 83q11 35 23 91t19 93l97 609q21 109 9 173q-12 63 -63 88q-52 25 -169 25l1 5h691l200 -907l480 907h610l-1 -5q-31 0 -57 -3t-47 -11l-38 -16q-17 -8 -31 -26q-15 -18 -24 -30q-10 -12 -19 -40q-10 -28 -15 -45
q-6 -17 -13 -54l-11 -60l-132 -833q-4 -27 -8 -70t-2 -63t8 -48q5 -29 19 -41q13 -13 33 -27q19 -14 49 -18q29 -5 68 -5l-1 -5h-800z" />
    <glyph glyph-name="M.ss04" horiz-adv-x="2208" 
d="M664 1426q152 -56 298 -48l54 2q-66 3 -134 25q-69 22 -127 51l-119 56q-60 28 -129 48q-69 19 -137 19q-86 0 -146 -45t-60 -122q0 -65 39 -95q39 -31 93 -31q90 0 152 80q67 -30 97 -81q29 -52 18 -106t-45 -102q-34 -49 -94 -80t-128 -31q-117 0 -206 81
q-90 80 -90 207q0 141 105 237q105 95 265 95q70 0 143 -20q72 -21 134 -50q62 -30 124 -59q61 -30 131 -50q69 -21 134 -21q33 0 49 15q15 14 15 35q0 28 -24 40t-66 -10q-33 63 1 111q33 48 95 48q42 0 74 -26q32 -27 32 -75q0 -126 -130 -143l195 -871q111 192 223 356
q111 164 245 317q133 153 249 230q140 114 306 179l2 -6q-146 -66 -195 -374l-136 -852q-27 -171 -23 -227q7 -89 77 -114q38 -14 98 -14v-5h-758v5q94 0 132 62q37 62 64 233l82 524q47 303 284 530q-136 -112 -291 -313q-155 -202 -281 -414t-220 -393q-95 -182 -143 -302
l-325 1470l-131 -808q-11 -67 -17 -116t-9 -114q-3 -66 2 -113t21 -96t44 -80t75 -50q46 -20 109 -20l-1 -5h-638l1 5q64 0 117 19t90 47q37 27 68 78t50 93q18 42 36 114q17 71 25 116q8 44 21 123z" />
    <glyph glyph-name="M.titl" horiz-adv-x="2208" 
d="M664 1426q152 -56 298 -48l54 2q-66 3 -134 25q-69 22 -127 51l-119 56q-60 28 -129 48q-69 19 -137 19q-86 0 -146 -45t-60 -122q0 -65 39 -95q39 -31 93 -31q90 0 152 80q67 -30 97 -81q29 -52 18 -106t-45 -102q-34 -49 -94 -80t-128 -31q-117 0 -206 81
q-90 80 -90 207q0 141 105 237q105 95 265 95q70 0 143 -20q72 -21 134 -50q62 -30 124 -59q61 -30 131 -50q69 -21 134 -21q33 0 49 15q15 14 15 35q0 28 -24 40t-66 -10q-33 63 1 111q33 48 95 48q42 0 74 -26q32 -27 32 -75q0 -126 -130 -143l195 -870q78 136 159 261
q80 124 170 245q89 121 183 221q93 100 178 162q136 132 288 210t265 78q87 0 132 -42q44 -42 44 -111q0 -88 -64 -145q-65 -58 -139 -58q-41 0 -72 21t-45 58q32 14 54 45q21 30 21 61q0 46 -28 80q-28 33 -84 33q-42 0 -78 -31q-36 -32 -59 -76q-24 -45 -44 -106
q-20 -62 -30 -109t-18 -96l-136 -852q-27 -171 -23 -227q7 -89 77 -114q38 -14 98 -14v-5h-758v5q94 0 132 62q37 62 64 233l82 524q45 286 283 537q-111 -91 -235 -243q-124 -153 -229 -315q-106 -163 -204 -336t-164 -307q-67 -135 -105 -228l-325 1470l-131 -808
q-11 -67 -17 -116t-9 -114q-3 -66 2 -113t21 -96t44 -80t75 -50q46 -20 109 -20l-1 -5h-638l1 5q64 0 117 19t90 47q37 27 68 78t50 93q18 42 36 114q17 71 25 116q8 44 21 123z" />
    <glyph glyph-name="N.salt" horiz-adv-x="1770" 
d="M1384 -68l-893 1271l-97 -609q-11 -68 -17 -119q-6 -52 -9 -117t3 -112t22 -95t44 -78t74 -49t107 -19l-1 -5h-637l1 5q49 0 91 11q42 10 75 27t62 47q28 29 49 59q20 29 38 73t30 82q12 37 24 92t20 97l88 547q7 43 10 74t2 71q-1 39 -9 67q-9 28 -28 57q-19 28 -49 46
t-76 29q-47 11 -108 11l1 5h665l606 -870l44 276q11 68 17 120q6 51 9 116t-3 112t-22 95t-44 78t-74 49t-107 19l1 5h638l-1 -5q-49 0 -91 -10q-43 -11 -76 -28t-61 -46t-49 -58q-21 -30 -39 -73q-18 -44 -30 -82t-24 -92q-12 -55 -19 -97q-8 -42 -18 -103z" />
    <glyph glyph-name="Ntilde.aalt" horiz-adv-x="1770" 
d="M1384 -68l-893 1271l-97 -609q-11 -68 -17 -119q-6 -52 -9 -117t3 -112t22 -95t44 -78t74 -49t107 -19l-1 -5h-637l1 5q49 0 91 11q42 10 75 27t62 47q28 29 49 59q20 29 38 73t30 82q12 37 24 92t20 97l88 547q7 43 10 74t2 71q-1 39 -9 67q-9 28 -28 57q-19 28 -49 46
t-76 29q-47 11 -108 11l1 5h665l606 -870l44 276q11 68 17 120q6 51 9 116t-3 112t-22 95t-44 78t-74 49t-107 19l1 5h638l-1 -5q-49 0 -91 -10q-43 -11 -76 -28t-61 -46t-49 -58q-21 -30 -39 -73q-18 -44 -30 -82t-24 -92q-12 -55 -19 -97q-8 -42 -18 -103zM1494 1672
q-55 -87 -97 -117q-43 -31 -93 -31q-44 0 -86 18q-43 18 -77 44q-34 25 -67 51q-34 25 -74 43q-41 18 -83 18q-47 0 -86 -31q-40 -31 -94 -119l-6 3q56 91 97 123q41 31 90 31q43 0 84 -18t75 -43l67 -51q33 -26 75 -44t86 -18q48 0 89 30q40 29 95 114z" />
    <glyph glyph-name="N.ss04" horiz-adv-x="1814" 
d="M1075 1381l597 -853l141 902q24 152 61 258q36 105 85 163q48 57 102 81q53 24 120 24q63 0 108 -19q45 -20 67 -52q21 -32 30 -62q8 -30 8 -63q0 -96 -64 -154q-65 -58 -140 -58q-80 0 -108 76q30 13 46 42t16 62q0 43 -30 75q-30 31 -80 31q-152 0 -214 -406
l-234 -1496l-899 1276l-98 -614q-11 -68 -17 -119q-6 -52 -9 -116q-3 -65 3 -112q5 -48 22 -96q16 -48 44 -78t74 -49t107 -19l-1 -5h-637l1 5q49 0 91 11q42 10 75 27t62 47q28 29 49 59q20 29 38 73t30 82q12 37 24 92t20 97l88 547q23 116 13 223q-10 106 -56 145
q134 -41 348 -30l60 1q-67 3 -136 25q-69 21 -128 50l-119 58q-60 28 -130 48q-70 19 -138 19q-86 0 -146 -45t-60 -122q0 -65 39 -95q39 -31 93 -31q90 0 152 80q67 -30 97 -81q29 -52 18 -106t-45 -102q-34 -49 -94 -80t-128 -31q-117 0 -206 81q-90 80 -90 207
q0 141 105 237q105 95 265 95q70 0 143 -20q72 -21 134 -50q62 -30 124 -59q61 -30 131 -50q69 -21 134 -21q33 0 49 15q15 14 15 35q0 28 -24 40t-66 -10q-33 63 1 111q33 48 95 48q42 0 74 -26q32 -27 32 -75q0 -127 -134 -143z" />
    <glyph glyph-name="N.titl" horiz-adv-x="1970" 
d="M1075 1381l597 -853l107 686q24 152 61 258q36 105 85 163q48 57 102 81q53 24 120 24q63 0 108 -19q45 -20 67 -52q21 -32 30 -62q8 -30 8 -63q0 -96 -64 -154q-65 -58 -140 -58q-80 0 -108 76q30 13 46 42t16 62q0 43 -30 75q-30 31 -80 31q-152 0 -214 -406
l-200 -1280l-899 1276l-98 -614q-11 -68 -17 -119q-6 -52 -9 -116q-3 -65 3 -112q5 -48 22 -96q16 -48 44 -78t74 -49t107 -19l-1 -5h-637l1 5q49 0 91 11q42 10 75 27t62 47q28 29 49 59q20 29 38 73t30 82q12 37 24 92t20 97l88 547q23 116 13 223q-10 106 -56 145
q134 -41 348 -30l60 1q-67 3 -136 25q-69 21 -128 50l-119 58q-60 28 -130 48q-70 19 -138 19q-86 0 -146 -45t-60 -122q0 -65 39 -95q39 -31 93 -31q90 0 152 80q67 -30 97 -81q29 -52 18 -106t-45 -102q-34 -49 -94 -80t-128 -31q-117 0 -206 81q-90 80 -90 207
q0 141 105 237q105 95 265 95q70 0 143 -20q72 -21 134 -50q62 -30 124 -59q61 -30 131 -50q69 -21 134 -21q33 0 49 15q15 14 15 35q0 28 -24 40t-66 -10q-33 63 1 111q33 48 95 48q42 0 74 -26q32 -27 32 -75q0 -127 -134 -143z" />
    <glyph glyph-name="O.aalt" horiz-adv-x="1594" 
d="M1441 1251q179 -164 179 -430q0 -147 -50 -280q-50 -134 -135 -233q-85 -100 -195 -173q-110 -74 -234 -111q-125 -38 -249 -38q-128 0 -242 40q-115 39 -202 113q-88 73 -139 186q-52 113 -52 250q0 171 68 326q67 155 182 268q114 112 274 179q160 66 338 66
q278 0 457 -163zM899 40q65 47 110 123q44 76 80 176q35 100 56 201q21 100 36 203q14 102 19 178q5 75 5 130q0 356 -223 356q-78 0 -144 -51q-67 -51 -111 -131q-45 -81 -80 -186q-36 -106 -56 -209q-21 -103 -34 -205q-13 -103 -17 -170q-5 -68 -5 -110q0 -352 224 -352
q75 0 140 47z" />
    <glyph glyph-name="Ograve.aalt" horiz-adv-x="1594" 
d="M1441 1251q179 -164 179 -430q0 -147 -50 -280q-50 -134 -135 -233q-85 -100 -195 -173q-110 -74 -234 -111q-125 -38 -249 -38q-128 0 -242 40q-115 39 -202 113q-88 73 -139 186q-52 113 -52 250q0 171 68 326q67 155 182 268q114 112 274 179q160 66 338 66
q278 0 457 -163zM899 40q65 47 110 123q44 76 80 176q35 100 56 201q21 100 36 203q14 102 19 178q5 75 5 130q0 356 -223 356q-78 0 -144 -51q-67 -51 -111 -131q-45 -81 -80 -186q-36 -106 -56 -209q-21 -103 -34 -205q-13 -103 -17 -170q-5 -68 -5 -110q0 -352 224 -352
q75 0 140 47zM1036 1512l-425 215q0 31 37 31q17 0 62 -31q44 -32 137 -94q92 -63 192 -117z" />
    <glyph glyph-name="Oacute.aalt" horiz-adv-x="1594" 
d="M1441 1251q179 -164 179 -430q0 -147 -50 -280q-50 -134 -135 -233q-85 -100 -195 -173q-110 -74 -234 -111q-125 -38 -249 -38q-128 0 -242 40q-115 39 -202 113q-88 73 -139 186q-52 113 -52 250q0 171 68 326q67 155 182 268q114 112 274 179q160 66 338 66
q278 0 457 -163zM899 40q65 47 110 123q44 76 80 176q35 100 56 201q21 100 36 203q14 102 19 178q5 75 5 130q0 356 -223 356q-78 0 -144 -51q-67 -51 -111 -131q-45 -81 -80 -186q-36 -106 -56 -209q-21 -103 -34 -205q-13 -103 -17 -170q-5 -68 -5 -110q0 -352 224 -352
q75 0 140 47zM950 1516q117 54 230 117q112 62 167 94q54 31 71 31q28 0 28 -24l-494 -222z" />
    <glyph glyph-name="Ocircumflex.aalt" horiz-adv-x="1594" 
d="M1441 1251q179 -164 179 -430q0 -147 -50 -280q-50 -134 -135 -233q-85 -100 -195 -173q-110 -74 -234 -111q-125 -38 -249 -38q-128 0 -242 40q-115 39 -202 113q-88 73 -139 186q-52 113 -52 250q0 171 68 326q67 155 182 268q114 112 274 179q160 66 338 66
q278 0 457 -163zM899 40q65 47 110 123q44 76 80 176q35 100 56 201q21 100 36 203q14 102 19 178q5 75 5 130q0 356 -223 356q-78 0 -144 -51q-67 -51 -111 -131q-45 -81 -80 -186q-36 -106 -56 -209q-21 -103 -34 -205q-13 -103 -17 -170q-5 -68 -5 -110q0 -352 224 -352
q75 0 140 47zM1306 1488l-4 -4l-269 184l-329 -184l-2 4l341 246z" />
    <glyph glyph-name="Otilde.aalt" horiz-adv-x="1594" 
d="M1441 1251q179 -164 179 -430q0 -147 -50 -280q-50 -134 -135 -233q-85 -100 -195 -173q-110 -74 -234 -111q-125 -38 -249 -38q-128 0 -242 40q-115 39 -202 113q-88 73 -139 186q-52 113 -52 250q0 171 68 326q67 155 182 268q114 112 274 179q160 66 338 66
q278 0 457 -163zM899 40q65 47 110 123q44 76 80 176q35 100 56 201q21 100 36 203q14 102 19 178q5 75 5 130q0 356 -223 356q-78 0 -144 -51q-67 -51 -111 -131q-45 -81 -80 -186q-36 -106 -56 -209q-21 -103 -34 -205q-13 -103 -17 -170q-5 -68 -5 -110q0 -352 224 -352
q75 0 140 47zM1394 1672q-55 -87 -97 -117q-43 -31 -93 -31q-44 0 -86 18q-43 18 -77 44q-34 25 -67 51q-34 25 -74 43q-41 18 -83 18q-47 0 -86 -31q-40 -31 -94 -119l-6 3q56 91 97 123q41 31 90 31q43 0 84 -18t75 -43l67 -51q33 -26 75 -44t86 -18q48 0 89 30
q40 29 95 114z" />
    <glyph glyph-name="Odieresis.aalt" horiz-adv-x="1594" 
d="M1441 1251q179 -164 179 -430q0 -147 -50 -280q-50 -134 -135 -233q-85 -100 -195 -173q-110 -74 -234 -111q-125 -38 -249 -38q-128 0 -242 40q-115 39 -202 113q-88 73 -139 186q-52 113 -52 250q0 171 68 326q67 155 182 268q114 112 274 179q160 66 338 66
q278 0 457 -163zM899 40q65 47 110 123q44 76 80 176q35 100 56 201q21 100 36 203q14 102 19 178q5 75 5 130q0 356 -223 356q-78 0 -144 -51q-67 -51 -111 -131q-45 -81 -80 -186q-36 -106 -56 -209q-21 -103 -34 -205q-13 -103 -17 -170q-5 -68 -5 -110q0 -352 224 -352
q75 0 140 47zM903 1695q25 -27 25 -65q0 -50 -36 -86q-37 -36 -86 -36q-38 0 -63 27t-25 67q0 47 38 84q37 36 84 36q38 0 63 -27zM1299 1695q25 -27 25 -65q0 -50 -36 -86q-37 -36 -86 -36q-38 0 -63 27t-25 67q0 47 38 84q37 36 84 36q38 0 63 -27z" />
    <glyph glyph-name="Oslash.aalt" horiz-adv-x="1594" 
d="M1319 1336l95 132l6 -2l-96 -133q139 -74 218 -206q78 -133 78 -306q0 -147 -50 -280q-50 -134 -135 -233q-85 -100 -195 -173q-110 -74 -234 -111q-125 -38 -249 -38q-191 0 -341 82l-92 -128l-6 2l92 129q-134 74 -211 203q-77 128 -77 301q0 171 68 326
q67 155 182 268q114 112 274 179q160 66 338 66q185 0 335 -78zM899 40q65 47 110 123q44 76 80 176q35 100 56 201q21 100 36 203q14 102 19 178q5 75 5 130q0 56 -6 107l-659 -917q30 -248 219 -248q75 0 140 47zM539 250l659 917q-34 240 -216 240q-78 0 -144 -51
q-67 -51 -111 -131q-45 -81 -80 -186q-36 -106 -56 -209q-21 -103 -34 -205q-13 -103 -17 -170q-5 -68 -5 -110q0 -54 4 -95z" />
    <glyph glyph-name="OE.aalt" horiz-adv-x="2320" 
d="M1278 1347l9 53h1063l-27 -482h-5q5 95 -4 166t-37 132q-28 60 -78 98q-50 37 -129 58q-80 21 -190 21h-194l-107 -675q113 0 202 30q89 29 157 102q67 73 91 186h4l-136 -646h-4q15 86 1 147q-15 61 -60 100q-46 39 -109 57q-64 18 -147 18l-80 -510q-21 -106 -5 -150
q16 -45 90 -45q161 0 287 41q125 41 214 122t149 184q60 102 106 242h5l-187 -596h-1091l8 54q-151 -68 -317 -68q-128 0 -242 40q-115 39 -202 113q-88 73 -139 186q-52 113 -52 250q0 171 68 326q67 155 182 268q114 112 274 179q160 66 338 66q169 0 294 -67zM899 40
q65 47 110 123q44 76 80 176q35 100 56 201q21 100 36 203q14 102 19 178q5 75 5 130q0 356 -223 356q-78 0 -144 -51q-67 -51 -111 -131q-45 -81 -80 -186q-36 -106 -56 -209q-21 -103 -34 -205q-13 -103 -17 -170q-5 -68 -5 -110q0 -352 224 -352q75 0 140 47z" />
    <glyph glyph-name="P.salt" horiz-adv-x="1448" 
d="M645 360q-20 -121 -22 -199q-2 -79 44 -117q46 -39 158 -39v-5h-845v5q62 0 105 17q43 16 68 38t44 76t27 95t22 129l107 680q27 173 23 228q-6 86 -73 112q-38 15 -103 15v5h716q296 0 444 -79t148 -252q0 -93 -33 -169q-34 -77 -93 -129t-133 -89q-74 -38 -163 -58
q-89 -21 -173 -30q-85 -10 -173 -10h-44l1 7h37q157 0 232 95q75 94 109 308q15 93 15 164q0 121 -52 178q-53 57 -173 57h-57z" />
    <glyph glyph-name="P.titl" horiz-adv-x="1696" 
d="M895 360q-19 -121 -21 -199q-2 -79 44 -117q45 -39 157 -39v-5h-845v5q62 0 105 17q43 16 68 38t44 76t27 95t22 129l104 680q10 63 42 116q31 52 78 87q46 35 98 61t110 41t105 23q47 7 91 9v2q-61 -2 -134 15q-74 16 -118 33q-44 16 -128 51q-83 34 -128 51
q-45 16 -116 33q-72 17 -132 17q-86 0 -146 -45t-60 -122q0 -65 39 -95q39 -31 93 -31q90 0 152 80q67 -30 97 -81q29 -52 18 -106t-45 -102q-34 -49 -94 -80t-128 -31q-117 0 -206 81q-90 80 -90 207q0 141 105 237q105 95 265 95q70 0 150 -20q79 -21 151 -50
q72 -30 144 -59q71 -30 148 -50q76 -21 141 -21q31 0 48 15q16 15 16 35q0 28 -24 40t-66 -10q-33 61 1 109q33 47 91 47q45 0 78 -27q32 -28 32 -81q0 -50 -37 -80q-38 -30 -81 -44v-2q53 14 108 14q226 0 354 -87q128 -88 128 -267q0 -84 -27 -157q-27 -74 -73 -128
t-108 -99q-63 -45 -134 -71q-71 -27 -147 -44q-76 -18 -149 -17q-74 0 -142 8l1 7q61 -9 113 7t89 49q36 33 65 83q29 49 47 104q17 54 29 117q11 63 16 120q4 56 4 113q0 108 -38 174q-39 66 -112 66q-69 0 -111 -66q-43 -67 -65 -214z" />
    <glyph glyph-name="Q.salt" horiz-adv-x="1594" 
d="M1312 1342q144 -73 226 -208q82 -136 82 -312q0 -147 -49 -280q-50 -133 -134 -232q-85 -100 -194 -173q-110 -74 -234 -112t-248 -39l-251 -346q122 150 257 225q134 75 231 75q67 0 173 -34t208 -68t161 -34q42 0 73 20q31 19 64 61l5 -3q-193 -354 -423 -354
q-73 0 -156 26q-83 25 -147 56t-149 57q-86 25 -162 25q-92 0 -155 -79l-16 -23l-6 4l283 392q-127 1 -240 42q-114 40 -201 113t-137 186q-51 112 -51 249q0 175 72 333q72 157 191 267q118 110 275 174t324 64q183 0 328 -72zM904 38q66 45 111 118q44 72 80 171
q35 98 56 197q20 98 33 203q13 104 18 183q4 78 4 143q0 354 -223 354q-79 0 -145 -45q-66 -46 -111 -119t-80 -171q-35 -99 -55 -198q-21 -99 -34 -204t-17 -183q-5 -78 -5 -142q0 -352 223 -352q78 0 145 45z" />
    <glyph glyph-name="Q.swash" horiz-adv-x="1700" 
d="M313 -101q-81 15 -126 38q-46 23 -69 48q-24 25 -24 47q0 41 71 62q70 21 142 21q114 0 614 -97q108 74 191 188q82 113 130 243t72 263t24 266q0 62 -5 120q-6 57 -19 124t-38 122q-26 55 -63 101q-38 46 -95 72q-58 26 -131 26q-107 0 -196 -54q-90 -55 -149 -142
q-59 -88 -100 -201q-42 -113 -60 -228t-18 -228q0 -172 52 -256q52 -85 147 -85q84 0 127 60q42 59 42 146q0 91 -45 138q-46 46 -121 49q-12 106 61 184q72 78 185 78q118 0 187 -73q69 -74 69 -177q0 -73 -31 -139q-31 -67 -82 -115q-52 -49 -115 -85q-64 -36 -130 -54
q-67 -19 -128 -19q-58 0 -123 16t-137 56t-128 99q-57 58 -94 153q-38 95 -38 212q0 151 63 278t172 213q108 86 255 134q147 47 314 47q114 0 223 -21q108 -22 209 -70t177 -116q75 -69 120 -171t45 -224q0 -176 -87 -358q-88 -182 -252 -340t-375 -252l354 -70
q292 -58 418 -82q125 -24 397 -74q272 -51 437 -76q164 -25 383 -55q218 -31 389 -44q170 -13 310 -13q267 0 461 48q194 47 285 115l2 -1q-38 -71 -70 -122t-80 -114t-96 -106q-48 -44 -116 -88q-68 -45 -143 -72q-76 -27 -175 -44q-100 -17 -214 -17q-203 0 -443 41
q-241 40 -456 100q-216 59 -475 149q-259 89 -451 165l-438 171q-245 96 -386 147q-205 -72 -425 -72q-101 0 -181 15zM856 -22q-367 129 -535 129q-83 0 -114 -23q-31 -24 -31 -54q0 -55 83 -97q82 -42 232 -42q202 0 365 87z" />
    </font>
</defs>
</svg>
